<svg width="12" height="6" viewBox="0 0 12 6" fill="none" xmlns="http://www.w3.org/2000/svg">
<g id="Arrow - Down 1">
<path id="Vector 59 (Stroke)" fill-rule="evenodd" clip-rule="evenodd" d="M11.1669 0.505067C11.4402 0.778434 11.4402 1.22165 11.1669 1.49502L10.7334 1.06159C11.1669 1.49502 11.1669 1.49497 11.1669 1.49502L11.1208 1.54097L10.9918 1.66909C10.8806 1.77928 10.7214 1.9365 10.5289 2.12509C10.1442 2.502 9.62496 3.00549 9.08914 3.50978C8.55512 4.01239 7.99712 4.52288 7.53684 4.91048C7.30821 5.10302 7.09189 5.27525 6.90855 5.4028C6.81788 5.46587 6.72111 5.528 6.62587 5.57716C6.56065 5.61082 6.38509 5.70004 6.17189 5.70004C5.95868 5.70004 5.78313 5.61082 5.7179 5.57716C5.62266 5.528 5.5259 5.46587 5.43523 5.4028C5.25188 5.27525 5.03557 5.10302 4.80693 4.91048C4.34666 4.52288 3.78865 4.01239 3.25463 3.50978C2.71882 3.00549 2.19961 2.502 1.81485 2.12509C1.62233 1.9365 1.46314 1.77928 1.35197 1.66909L1.22299 1.54097L1.17776 1.49587L1.17699 1.49509C1.17694 1.49505 1.17691 1.49502 1.67189 1.00004C2.16686 0.505067 2.16686 0.505067 2.16688 0.505082L2.21088 0.548961L2.33751 0.674747C2.44704 0.783306 2.60426 0.938585 2.79455 1.12499C3.17541 1.49809 3.68746 1.9946 4.21414 2.4903C4.74262 2.98769 5.27837 3.4772 5.70872 3.8396C5.89255 3.99441 6.04871 4.11884 6.17189 4.2087C6.29507 4.11884 6.45122 3.99441 6.63506 3.8396C7.06541 3.4772 7.60115 2.98769 8.12963 2.4903C8.65632 1.9946 9.16836 1.49809 9.54923 1.12499C9.73952 0.938585 9.89674 0.783307 10.0063 0.674747L10.1329 0.548961L10.1763 0.505674C10.1763 0.505662 10.1769 0.505068 10.4469 0.775073L10.1763 0.505674C10.4497 0.232307 10.8935 0.2317 11.1669 0.505067ZM5.98377 4.33309C5.96576 4.34028 5.96487 4.34284 5.98377 4.33309C5.98401 4.33296 5.98352 4.33322 5.98377 4.33309ZM1.17691 0.505067C1.45028 0.2317 1.89351 0.231715 2.16688 0.505082L1.67189 1.00004L1.17699 1.49509C0.903622 1.22173 0.903545 0.778434 1.17691 0.505067Z" fill="#1F447A"/>
<path id="Vector 58 (Stroke)" fill-rule="evenodd" clip-rule="evenodd" d="M6.87189 5.00004C6.87189 5.38664 6.55849 5.70004 6.17189 5.70004C5.95868 5.70004 5.78313 5.61082 5.7179 5.57716C5.62266 5.528 5.5259 5.46587 5.43523 5.4028C5.25188 5.27525 5.03557 5.10302 4.80693 4.91048C4.34666 4.52288 3.78865 4.01239 3.25463 3.50978C2.71882 3.00549 2.19961 2.502 1.81485 2.12509C1.62233 1.9365 1.46314 1.77928 1.35197 1.66909L1.22299 1.54097L1.17699 1.49509C1.17694 1.49505 1.17691 1.49502 1.67189 1.00004C2.16686 0.505067 2.16686 0.505067 2.16688 0.505082L2.21088 0.548961L2.33751 0.674747C2.44704 0.783306 2.60426 0.938585 2.79455 1.12499C3.17541 1.49809 3.68746 1.9946 4.21414 2.4903C4.74262 2.98769 5.27837 3.4772 5.70872 3.8396C5.9254 4.02207 6.10361 4.16233 6.23472 4.25353C6.27984 4.28492 6.31295 4.30597 6.3353 4.31922C6.64308 4.39282 6.87189 4.66971 6.87189 5.00004ZM1.17691 0.505067C1.45028 0.2317 1.89351 0.231715 2.16688 0.505082L1.67189 1.00004L1.17699 1.49509C0.903622 1.22173 0.903546 0.778433 1.17691 0.505067Z" fill="#A8CC33"/>
</g>
</svg>
