<svg width="23" height="23" viewBox="0 0 23 23" fill="none" xmlns="http://www.w3.org/2000/svg">
<g id="Calling">
<path id="Vector 19 (Stroke)" fill-rule="evenodd" clip-rule="evenodd" d="M3.16125 3.61567C3.54609 3.42987 3.95849 3.30005 4.31156 3.30005C4.54424 3.30005 4.76561 3.37347 4.93813 3.44748C5.12269 3.52666 5.31401 3.63426 5.50257 3.75692C5.88037 4.0027 6.29216 4.33848 6.68206 4.72002C7.43517 5.45698 8.23432 6.49023 8.44671 7.50334C8.53691 7.93361 8.44332 8.37083 8.20959 8.7243C8.06619 8.94115 7.88276 9.17098 7.70987 9.38489C7.685 9.41566 7.66022 9.44626 7.63555 9.47671C7.48113 9.66738 7.33111 9.8526 7.19168 10.0405C7.03003 10.2584 6.90071 10.4562 6.81334 10.6338C6.72405 10.8153 6.69997 10.9331 6.69997 11C6.69997 11.3143 6.89163 11.9357 7.31722 12.7099C7.72678 13.4549 8.29807 14.2418 8.93457 14.8704C9.60554 15.5331 10.1995 16.0254 10.7264 16.3488C11.2179 16.6505 11.6116 16.7809 11.928 16.7981C11.9428 16.7857 11.9629 16.7678 11.9887 16.7424C12.0478 16.6842 12.1127 16.6117 12.2018 16.5112L12.2137 16.4977C12.2954 16.4056 12.3931 16.2953 12.5011 16.1839C12.9765 15.6934 13.6916 15.1422 14.8689 15.1422C15.7891 15.1422 16.729 15.628 17.4712 16.27C18.225 16.9219 18.875 17.8191 19.1702 18.7979C19.421 19.6296 19.0128 20.3378 18.5306 20.827C18.045 21.3196 17.3653 21.7254 16.7049 22.0387C15.5936 22.5661 14.3585 22.751 13.1563 22.6354C11.0179 22.4296 8.0389 21.5801 4.51856 18.2451C4.507 18.2341 4.49582 18.2228 4.48504 18.2111C2.48674 16.041 1.40022 14.205 0.836382 12.5259C0.271598 10.8439 0.250145 9.37239 0.300432 7.98848C0.35764 6.41411 1.08834 5.24419 1.91145 4.47812C2.32099 4.09696 2.7588 3.80996 3.16125 3.61567ZM2.86526 5.50294C2.2601 6.06616 1.74079 6.90316 1.69951 8.03932C1.6513 9.36594 1.67909 10.6375 2.16356 12.0802C2.64758 13.5216 3.60623 15.1864 5.49872 17.2451C8.77982 20.3471 11.4591 21.0656 13.2904 21.2418C14.2635 21.3354 15.2418 21.1834 16.1047 20.7739C16.7035 20.4898 17.2146 20.1677 17.5335 19.8442C17.8558 19.5172 17.8657 19.3211 17.8298 19.2022C17.625 18.5231 17.1479 17.8414 16.5554 17.3288C15.9513 16.8063 15.3256 16.5422 14.8689 16.5422C14.2101 16.5422 13.8344 16.8199 13.5063 17.1583C13.4206 17.2467 13.3414 17.3361 13.2555 17.4331L13.2496 17.4397C13.1666 17.5334 13.0698 17.6426 12.9713 17.7396C12.7934 17.915 12.4677 18.2 12 18.2C11.3184 18.2 10.6457 17.942 9.99403 17.542C9.33975 17.1404 8.65987 16.5669 7.95078 15.8665C7.20721 15.1321 6.55715 14.2334 6.09037 13.3843C5.63962 12.5643 5.29997 11.683 5.29997 11C5.29997 10.6364 5.418 10.2986 5.55715 10.0158C5.69822 9.72904 5.88368 9.45386 6.06737 9.2063C6.22601 8.99249 6.39684 8.78165 6.55008 8.59251C6.57421 8.56274 6.5979 8.53349 6.62104 8.50486C6.7988 8.28493 6.9408 8.10485 7.04181 7.95209C7.0781 7.89721 7.08674 7.83946 7.07649 7.79059C6.95168 7.19522 6.40227 6.40502 5.7029 5.72064C5.36655 5.3915 5.02612 5.11715 4.73913 4.93045C4.5953 4.83688 4.47608 4.77266 4.38616 4.73408C4.33621 4.71265 4.30663 4.70405 4.29467 4.70085C4.22464 4.70664 4.0409 4.7456 3.76993 4.87642C3.49075 5.01121 3.16986 5.21945 2.86526 5.50294Z" fill="#1F447A"/>
<path id="Line 37 (Stroke)" fill-rule="evenodd" clip-rule="evenodd" d="M12.0947 7.69857C12.1004 7.69796 12.1113 7.69701 12.1288 7.69577C12.1637 7.69327 12.2207 7.69044 12.2961 7.69086C12.4473 7.69169 12.6692 7.70557 12.9333 7.75979C13.4584 7.86757 14.1489 8.13383 14.7964 8.78132C15.4439 9.42882 15.7101 10.1193 15.8179 10.6444C15.8721 10.9085 15.886 11.1304 15.8869 11.2817C15.8873 11.357 15.8844 11.414 15.8819 11.4489C15.8807 11.4664 15.8795 11.4782 15.8789 11.484C15.879 11.4836 15.8792 11.4824 16.5727 11.5777L15.8792 11.4824C15.879 11.4841 15.8788 11.4857 15.8786 11.4873C15.8786 11.4873 15.8786 11.4873 15.8786 11.4873C15.8289 11.8684 16.096 12.2188 16.4774 12.2712C16.8604 12.3239 17.2135 12.0561 17.2662 11.6731L16.5969 11.5811C17.2662 11.673 17.2661 11.6734 17.2662 11.6731L17.2666 11.6701L17.2671 11.6665L17.2682 11.6573L17.2712 11.6311C17.2734 11.6102 17.276 11.5826 17.2784 11.5487C17.2832 11.481 17.2875 11.3881 17.2868 11.2739C17.2856 11.0462 17.2649 10.7311 17.1893 10.3629C17.0375 9.62329 16.6631 8.66812 15.7863 7.79137C14.9096 6.91463 13.9544 6.54021 13.2148 6.38839C12.8467 6.3128 12.5315 6.29214 12.3038 6.29088C12.1897 6.29025 12.0967 6.29449 12.029 6.29933C11.9951 6.30175 11.9675 6.30432 11.9466 6.30653L11.9204 6.3095L11.9112 6.31065L11.9076 6.31113L11.906 6.31134C11.9057 6.31138 11.9047 6.31153 12 7.00501L11.9047 6.31153C11.5217 6.36417 11.2539 6.71733 11.3065 7.10033C11.3589 7.48168 11.7093 7.74883 12.0904 7.69914" fill="#A8CC33"/>
<path id="Line 38 (Stroke)" fill-rule="evenodd" clip-rule="evenodd" d="M12.0383 3.70399C11.6537 3.7251 11.3241 3.43141 11.3012 3.04657C11.2783 2.66065 11.5725 2.32921 11.9584 2.30627L12 3.00504C11.9584 2.30627 11.9581 2.30629 11.9584 2.30627L11.9599 2.30618L11.9617 2.30609L11.966 2.30586L11.9777 2.3053C11.9869 2.3049 11.9988 2.30445 12.0134 2.30406C12.0426 2.30326 12.0824 2.30266 12.1321 2.30301C12.2314 2.30373 12.3705 2.30826 12.5433 2.32277C12.8887 2.35176 13.3705 2.42071 13.9393 2.57945C15.0799 2.89775 16.566 3.57615 17.9949 5.00505C19.4239 6.43399 20.1013 7.91923 20.4185 9.05903C20.5767 9.62746 20.6451 10.1088 20.6737 10.4539C20.688 10.6265 20.6923 10.7655 20.6929 10.8648C20.6932 10.9145 20.6925 10.9543 20.6917 10.9834C20.6913 10.998 20.6908 11.0099 20.6904 11.0191L20.6898 11.0309L20.6896 11.0352L20.6895 11.0369C20.6894 11.0373 20.6894 11.0384 19.9907 10.9957L20.6894 11.0384C20.6658 11.4243 20.3339 11.718 19.948 11.6944C19.5632 11.671 19.2701 11.3409 19.2918 10.9564L19.2923 10.9431C19.2927 10.9295 19.2931 10.9059 19.2929 10.8729C19.2925 10.8069 19.2896 10.7038 19.2785 10.5693C19.2562 10.3001 19.2013 9.90697 19.0698 9.43442C18.8076 8.49226 18.2396 7.22963 17.005 5.995C15.7703 4.76034 14.5065 4.19124 13.563 3.92793C13.0898 3.79587 12.6959 3.7405 12.4262 3.71786C12.2915 3.70655 12.1882 3.70345 12.122 3.70298C12.089 3.70274 12.0652 3.70316 12.0516 3.70353L12.0383 3.70399ZM12.0383 3.70399C12.0383 3.70399 12.0383 3.70399 12.0383 3.70399V3.70399Z" fill="#A8CC33"/>
</g>
</svg>
