<svg width="80" height="80" viewBox="0 0 80 80" fill="none" xmlns="http://www.w3.org/2000/svg">
<g id="icon-microsoft-sharepoint">
<path id="Vector" d="M42.5247 8.00218C42.2836 7.99345 42.0424 8.01092 41.8013 8.05459L9.63826 13.811C7.5328 14.1954 6 16.0385 6 18.2179V61.7799C6 63.9593 7.5328 65.8024 9.63826 66.1868L41.8013 71.9432C41.9908 71.9782 42.1845 72 42.374 72C43.1447 72 43.8939 71.7205 44.501 71.2051C45.2501 70.5674 45.6807 69.6284 45.6807 68.6457V64.5096C49.418 63.9724 52.2941 60.7055 52.2941 56.7703C52.2941 56.5476 52.2855 56.3248 52.2597 56.1021C55.8205 54.3463 58.7095 51.4157 60.4404 47.8037C64.4963 47.581 67.7255 44.1699 67.7255 39.9989C67.7255 35.8279 64.4963 32.4168 60.4404 32.1941C58.7095 28.5821 55.8205 25.6515 52.2597 23.8957C52.2855 23.673 52.2941 23.4502 52.2941 23.2275C52.2941 19.2923 49.418 16.0254 45.6807 15.4882V11.3565C45.6807 10.3694 45.2501 9.43037 44.501 8.79271C43.9369 8.30791 43.2394 8.03276 42.5247 8.00218ZM42.4945 10.2471C42.7701 10.2733 42.9725 10.4087 43.0801 10.5004C43.2351 10.6271 43.4762 10.9066 43.4762 11.3565V68.6457C43.4762 69.0912 43.2351 69.3707 43.0801 69.493C42.938 69.6197 42.628 69.8162 42.1845 69.7376L10.0215 63.9812C8.96658 63.789 8.20448 62.8762 8.20448 61.7799V18.2179C8.20448 17.1216 8.96658 16.2088 10.0215 16.0167L42.1845 10.2558C42.2965 10.2384 42.3998 10.234 42.4945 10.2471ZM45.6807 17.7462C48.1263 18.2528 49.9777 20.4017 50.0767 23.0047C50.0897 23.0834 50.0897 23.1489 50.0897 23.2275C50.0897 23.9307 49.9562 24.6164 49.728 25.2409C49.052 26.9967 47.5321 28.3244 45.6807 28.7088V17.7462ZM51.743 26.1319C54.4125 27.5645 56.617 29.757 58.0809 32.4299C54.7527 33.2903 52.2941 36.352 52.2941 39.9989C52.2941 43.6458 54.7527 46.7075 58.0809 47.5679C56.617 50.2408 54.4125 52.4333 51.743 53.8659C50.7269 51.3152 48.4363 49.4241 45.6807 49.031V30.9668C48.4363 30.5737 50.7269 28.6826 51.743 26.1319ZM60.0098 34.4084C60.4835 34.4084 60.9485 34.4652 61.3876 34.5875C63.7687 35.2033 65.521 37.3958 65.521 39.9989C65.521 42.602 63.7687 44.7945 61.3876 45.4103C60.9485 45.5326 60.4835 45.5894 60.0098 45.5894C59.6783 45.5894 59.3468 45.5544 59.0282 45.502C56.4491 45.0303 54.4986 42.7505 54.4986 39.9989C54.4986 37.2473 56.4491 34.9675 59.0282 34.4958C59.3468 34.4434 59.6783 34.4084 60.0098 34.4084ZM45.6807 51.289C47.5321 51.6734 49.052 53.0011 49.728 54.7569C49.9562 55.3814 50.0897 56.0672 50.0897 56.7703C50.0897 56.8489 50.0897 56.9145 50.0767 56.9931C49.9777 59.5961 48.1263 61.745 45.6807 62.2516V51.289Z" fill="#1F447A"/>
<path id="Vector_2" d="M19.2269 33.2903C19.2269 30.2068 21.6984 27.6998 24.7381 27.6998H26.9426C29.9824 27.6998 32.4538 30.2068 32.4538 33.2903C32.4538 33.9105 31.9587 34.4084 31.3516 34.4084C30.7445 34.4084 30.2493 33.9105 30.2493 33.2903C30.2493 31.4428 28.7639 29.936 26.9426 29.936H24.7381C22.9169 29.936 21.4314 31.4428 21.4314 33.2903V35.5265C21.4314 37.374 22.9169 38.8808 24.7381 38.8808H26.9426C29.9824 38.8808 32.4538 41.3878 32.4538 44.4712V46.7074C32.4538 49.7909 29.9824 52.2979 26.9426 52.2979H24.7381C21.6984 52.2979 19.2269 49.7909 19.2269 46.7074C19.2269 46.0872 19.7221 45.5893 20.3292 45.5893C20.9363 45.5893 21.4314 46.0872 21.4314 46.7074C21.4314 48.5549 22.9169 50.0617 24.7381 50.0617H26.9426C28.7639 50.0617 30.2493 48.5549 30.2493 46.7074V44.4712C30.2493 42.6238 28.7639 41.117 26.9426 41.117H24.7381C21.6984 41.117 19.2269 38.61 19.2269 35.5265V33.2903Z" fill="#A8CC33"/>
<g id="Vector_3">
<path d="M65.6718 27.8221C65.8956 27.4203 66.3305 27.215 66.7611 27.2675C66.9032 27.2893 67.0409 27.333 67.1744 27.4116C67.6997 27.7217 67.8805 28.403 67.5748 28.9402L66.4726 30.8751C66.2702 31.2332 65.9 31.4341 65.5211 31.4341C65.3316 31.4341 65.1422 31.3861 64.9699 31.2812C64.4447 30.9755 64.2638 30.2898 64.5695 29.757L65.6718 27.8221Z" fill="#A8CC33"/>
<path d="M70.9117 32.3251C71.0452 32.2465 71.1873 32.1984 71.3251 32.181C71.7513 32.1286 72.1905 32.3295 72.4187 32.7313C72.7244 33.2641 72.5435 33.9498 72.0139 34.2556L70.1066 35.3736C69.9343 35.4785 69.7406 35.5265 69.5554 35.5265C69.1722 35.5265 68.8063 35.3256 68.6039 34.9675C68.2982 34.4346 68.4747 33.7489 69.0043 33.4432L70.9117 32.3251Z" fill="#A8CC33"/>
<path d="M69.93 39.9989C69.93 39.3787 70.4252 38.8808 71.0323 38.8808H73.2367C73.8438 38.8808 74.339 39.3787 74.339 39.9989C74.339 40.6191 73.8438 41.117 73.2367 41.117H71.0323C70.4252 41.117 69.93 40.6191 69.93 39.9989Z" fill="#A8CC33"/>
<path d="M68.6039 45.0303C68.8278 44.6285 69.2627 44.4276 69.6889 44.48C69.8353 44.4975 69.9731 44.5455 70.1066 44.6241L72.0139 45.7422C72.5435 46.048 72.7244 46.7293 72.4187 47.2665C72.2163 47.6246 71.846 47.8256 71.4628 47.8256C71.2777 47.8256 71.0882 47.7775 70.9117 47.6727L69.0043 46.5546C68.479 46.2489 68.2982 45.5675 68.6039 45.0303Z" fill="#A8CC33"/>
<path d="M64.9699 48.7165C65.1034 48.6379 65.2455 48.5899 65.3833 48.5724C65.8095 48.52 66.2444 48.7209 66.4726 49.1227L67.5748 51.0575C67.8805 51.5948 67.6997 52.2761 67.1744 52.5862C67.0022 52.6866 66.8127 52.7347 66.6233 52.7347C66.2444 52.7347 65.8741 52.5338 65.6718 52.1756L64.5695 50.2408C64.2638 49.708 64.4447 49.0223 64.9699 48.7165Z" fill="#A8CC33"/>
</g>
</g>
</svg>
