<svg width="81" height="80" viewBox="0 0 81 80" fill="none" xmlns="http://www.w3.org/2000/svg">
<g id="icon-alarme">
<g id="Group 2">
<path id="Vector" d="M59.2067 60.6804C60.5271 60.6804 61.7791 60.6804 63.0364 60.6804C64.0832 60.6804 64.5514 61.1246 64.5567 62.175C64.5672 64.9396 64.5672 67.7094 64.5567 70.474C64.5567 71.5453 64.078 72 62.9996 72C47.9859 72 32.967 72 17.9534 72C16.8697 72 16.3963 71.5453 16.391 70.4792C16.3805 67.7146 16.3805 64.9448 16.391 62.1802C16.391 61.0984 16.8434 60.6804 17.9587 60.6804C19.1265 60.6804 20.2996 60.6804 21.499 60.6804C21.8041 58.3861 22.104 56.1546 22.4038 53.9283C23.0404 49.136 23.6769 44.3489 24.3187 39.5566C24.6606 36.9802 24.9657 34.3933 25.3708 31.8273C26.0547 27.4478 28.4482 24.4428 32.7882 23.1468C33.6404 22.8907 34.5768 22.8175 35.4711 22.8019C38.6063 22.7601 41.7416 22.7653 44.8769 22.7914C49.9008 22.828 54.1408 26.0838 55.1298 30.7821C55.5822 32.9404 55.7716 35.1563 56.0714 37.346C56.7185 42.1122 57.3602 46.8836 58.002 51.6497C58.4018 54.6286 58.8016 57.6127 59.2172 60.6804H59.2067ZM56.5817 60.6438C56.5712 60.4138 56.5712 60.21 56.5449 60.0166C56.124 56.8496 55.7032 53.6879 55.2771 50.5209C54.4722 44.4952 53.6252 38.4748 52.8625 32.4439C52.3364 28.2997 49.2011 25.3731 44.9453 25.2999C41.7311 25.2477 38.5117 25.2477 35.2975 25.3051C31.5519 25.3731 28.5113 28.0227 27.9642 31.7071C27.4224 35.3287 26.9753 38.9661 26.486 42.5982C25.839 47.4062 25.1972 52.2141 24.5554 57.0221C24.3976 58.2136 24.245 59.4052 24.0819 60.6438H56.5764H56.5817ZM61.9895 63.2202H18.9687V69.4497H61.9895V63.2202Z" fill="#1F447A"/>
<path id="Vector_2" d="M71.8347 45.4332L65.8114 42.2723C65.1989 41.9508 64.4417 42.1868 64.1202 42.7994C63.7987 43.4119 64.0347 44.1691 64.6473 44.4906L70.6705 47.6516C71.2831 47.973 72.0403 47.737 72.3618 47.1245C72.6833 46.5119 72.4473 45.7547 71.8347 45.4332Z" fill="#A8CC33"/>
<path id="Vector_3" d="M10.2737 47.644L16.297 44.4831C16.9095 44.1616 17.1455 43.4044 16.824 42.7918C16.5026 42.1792 15.7454 41.9433 15.1328 42.2647L9.10954 45.4257C8.49696 45.7471 8.26097 46.5043 8.58245 47.1169C8.90392 47.7295 9.66112 47.9655 10.2737 47.644Z" fill="#A8CC33"/>
<path id="Vector_4" d="M70.6704 22.604L64.6471 25.765C64.0346 26.0864 63.7986 26.8436 64.12 27.4562C64.4415 28.0688 65.1987 28.3048 65.8113 27.9833L71.8346 24.8224C72.4471 24.5009 72.6831 23.7437 72.3616 23.1311C72.0402 22.5185 71.283 22.2826 70.6704 22.604Z" fill="#A8CC33"/>
<path id="Vector_5" d="M9.10922 24.8231L15.1325 27.9841C15.745 28.3056 16.5022 28.0696 16.8237 27.457C17.1452 26.8444 16.9092 26.0872 16.2966 25.7657L10.2734 22.6048C9.6608 22.2833 8.9036 22.5193 8.58212 23.1319C8.26065 23.7445 8.49663 24.5017 9.10922 24.8231Z" fill="#A8CC33"/>
<path id="Vector_6" d="M53.2879 9.10903L50.127 15.1323C49.8055 15.7449 50.0415 16.5021 50.6541 16.8235C51.2667 17.145 52.0239 16.909 52.3454 16.2964L55.5063 10.2732C55.8278 9.66062 55.5918 8.90342 54.9792 8.58194C54.3666 8.26046 53.6094 8.49645 53.2879 9.10903Z" fill="#A8CC33"/>
<path id="Vector_7" d="M30.8044 15.1385L27.6434 9.11528C27.3219 8.5027 26.5647 8.26671 25.9522 8.58819C25.3396 8.90966 25.1036 9.66687 25.4251 10.2794L28.586 16.3027C28.9075 16.9153 29.6647 17.1513 30.2773 16.8298C30.8898 16.5083 31.1258 15.7511 30.8044 15.1385Z" fill="#A8CC33"/>
</g>
<path id="Rectangle 203" d="M40 28H45.1037C47.6178 28 49.7409 29.8668 50.0626 32.3601L53.5 59H40V28Z" fill="#A8CC33"/>
</g>
</svg>
