<svg width="80" height="80" viewBox="0 0 80 80" fill="none" xmlns="http://www.w3.org/2000/svg">
<g id="icon-fotinet">
<path id="Vector" d="M65.0154 62.5217C68.5616 61.3206 71.3216 57.2488 71.9846 52.1296V50.65H53.8035V62.523H65.0128L65.0154 62.5217ZM71.9871 28.8807V27.542C71.2902 22.1999 68.3252 17.9903 64.5451 17.0013H53.8061V28.8794H71.9871V28.8807ZM8 50.6513V52.1181C8.65837 57.2424 11.4178 61.3213 14.9743 62.523H26.1271V50.65H8V50.6513ZM15.4395 17.0102C11.6645 17.9998 8.69127 22.2114 8 27.5612V28.8904H26.1271V17.0123H15.4395V17.0102ZM72 33.8333H53.8189V45.7114H72V33.8333ZM31.0893 62.5294H48.8747V50.6564H31.0893V62.5294ZM48.8747 17H31.0893V28.8781H48.8747V17ZM8.01542 45.6961H26.1425V33.8179H8.01542V45.6961Z" fill="#EE2E24"/>
</g>
</svg>
