<svg width="16" height="16" viewBox="0 0 16 16" fill="none" xmlns="http://www.w3.org/2000/svg">
<g id="icon-whatsapp-white">
<path id="Vector" d="M11.4225 9.77657L11.9021 9.99878C11.9893 10.0432 12.0329 10.0876 12.0329 10.0876V10.3987L12.0327 10.3997C11.9891 10.6215 11.9456 10.8433 11.8585 11.0208C11.8149 11.1098 11.7277 11.1986 11.6405 11.2875L11.6405 11.2875C11.5533 11.3764 11.4661 11.4208 11.379 11.5096L11.2917 11.5986C11.2045 11.6874 11.1173 11.6875 10.9866 11.7763C10.8121 11.8652 10.5506 11.9541 10.3326 11.9541H9.89664C9.76583 11.9096 9.59145 11.9096 9.46064 11.8652C8.28352 11.5541 7.23721 10.9764 6.32164 10.1765C6.23446 10.0432 6.10364 9.95431 5.97289 9.82097L5.79852 9.64323C5.10089 8.97667 4.57777 8.22117 4.18539 7.37687L4.14177 7.24353C4.01095 6.93246 3.92377 6.57691 3.92377 6.22143C3.92377 5.7326 4.09814 5.24378 4.40333 4.84383C4.49052 4.7549 4.53414 4.66609 4.62133 4.57716C4.70852 4.53276 4.7957 4.44388 4.88289 4.39942L4.92652 4.35501C5.01377 4.35501 5.10089 4.31055 5.18814 4.31055H5.6677C5.79852 4.35501 5.88564 4.39942 5.97289 4.53276C6.10364 4.79937 6.62683 5.99922 6.67039 6.22143C6.71402 6.35476 6.67039 6.5325 6.5832 6.66584C6.49602 6.75471 6.45245 6.88799 6.3652 6.97692C6.23445 7.1102 6.06008 7.3324 6.06008 7.3324C6.01645 7.37687 6.01645 7.46574 6.01645 7.55461C6.06008 7.64348 6.06008 7.68789 6.10364 7.73235L6.14727 7.82122C6.3652 8.22117 6.67039 8.57672 6.97558 8.8878C7.06277 8.97667 7.19358 9.06554 7.28077 9.15441C7.62958 9.50989 8.06552 9.77657 8.54508 9.99878L8.76308 10.0876C8.8067 10.1321 8.89389 10.1765 8.93745 10.1765H8.98108C9.06827 10.1765 9.15545 10.1321 9.19908 10.0432C9.80945 9.33215 9.85302 9.28775 9.85302 9.28775C9.9402 9.24328 10.0274 9.19882 10.1582 9.19882C10.2018 9.19882 10.2454 9.24328 10.289 9.24328C10.725 9.46549 11.4225 9.77657 11.4225 9.77657Z" fill="#A8CC33"/>
<path id="Ellipse 10" d="M14.2857 8.00007C14.2857 11.4716 11.4715 14.2858 8.00002 14.2858C6.9712 14.2858 6.0001 14.0386 5.14288 13.6004L1.42859 14.8572L2.73084 11.4286C2.08793 10.4426 1.71431 9.26497 1.71431 8.00007C1.71431 4.52857 4.52852 1.71436 8.00002 1.71436C11.4715 1.71436 14.2857 4.52857 14.2857 8.00007Z" stroke="white" stroke-width="1.2" stroke-linejoin="round"/>
</g>
</svg>
