<svg width="80" height="80" viewBox="0 0 80 80" fill="none" xmlns="http://www.w3.org/2000/svg">
<g id="icon-cftv">
<g id="Group 3">
<path id="Vector" d="M50.1558 33.0142C50.5156 33.7535 50.9494 34.3646 51.112 35.0399C51.3782 36.1538 50.9691 37.1247 50.1509 37.938C47.7999 40.2742 45.4637 42.6203 43.1176 44.9614C42.9451 45.1339 42.7134 45.2522 42.5853 45.3459C44.8131 47.5687 46.9275 49.6832 48.9927 51.7434C49.6925 51.1322 50.4318 50.4865 51.3092 49.7177C50.7571 49.21 50.1263 48.6432 49.5151 48.0567C48.8152 47.3814 48.1301 46.6816 47.445 45.9915C46.8832 45.4247 46.8142 44.9762 47.2183 44.5868C47.6077 44.2073 48.0513 44.2911 48.6181 44.8579C50.0474 46.2823 51.4669 47.7215 52.911 49.1311C53.1032 49.3184 53.3891 49.486 53.6503 49.5156C56.7554 49.831 58.7861 52.4679 58.2685 55.5385C58.2439 55.6962 58.2242 55.8539 58.1946 56.0609H64.6611V53.0248C63.6901 53.0248 62.6551 53.0248 61.6201 53.0248C61.2554 53.0248 60.8906 53.0396 60.5308 53.0101C60.038 52.9706 59.7127 52.7143 59.7274 52.187C59.7373 51.6596 60.0626 51.4082 60.5653 51.4033C61.97 51.3934 63.3796 51.3786 64.7843 51.4033C65.2181 51.4131 65.4694 51.2751 65.7208 50.9055C66.9431 49.1016 68.6632 48.1257 70.8417 47.9926C71.7191 47.9384 72 48.2045 72 49.0819C72 52.734 72 56.3912 72 60.0434C72 60.9256 71.7289 61.1868 70.8516 61.1375C68.6682 61.0143 66.953 60.0286 65.7257 58.2296C65.4744 57.8649 65.223 57.7318 64.7893 57.7367C62.4728 57.7564 60.1612 57.7318 57.8447 57.7663C57.5292 57.7663 57.1448 57.9339 56.9131 58.1507C55.3557 59.6294 53.2659 60.0286 51.3141 59.171C49.3525 58.3085 48.1991 56.5095 48.3125 54.3605C48.3421 53.7789 48.1843 53.4044 47.7802 53.0051C45.6608 50.9203 43.576 48.8058 41.358 46.583C40.9884 47.0118 40.6729 47.4209 40.3082 47.7905C38.1001 50.0134 35.8822 52.2215 33.6692 54.4345C31.9491 56.1546 30.4852 56.2187 28.6222 54.6464C26.7887 55.4547 25.9508 55.2921 24.4968 53.8381C22.7964 52.1377 21.1009 50.4323 19.3167 48.6481C18.7992 49.1903 18.2817 49.693 17.8184 50.2401C17.3551 50.7823 17.3797 51.4969 17.8923 52.0342C18.7401 52.9213 19.6075 53.7839 20.4898 54.6316C21.0615 55.1787 21.6776 55.2083 22.338 54.7253C22.8112 54.3802 23.24 54.2817 23.6442 54.7795C23.9645 55.1738 23.8265 55.6519 23.309 56.0609C22.1852 56.9432 20.5637 56.9185 19.4942 55.9328C18.5133 55.0259 17.5621 54.0747 16.6503 53.0988C15.5807 51.9504 15.5955 50.2401 16.6651 49.0819C17.1382 48.5693 17.6902 48.1257 18.2965 47.5638C17.9071 47.2878 17.6311 47.0956 17.2959 46.8639C15.9652 48.1947 14.5851 49.6289 13.1361 50.9991C12.7319 51.3836 12.1701 51.699 11.6328 51.8321C10.7654 52.049 9.99155 51.7138 9.37053 51.0484C7.48282 49.0227 7.54197 45.9767 9.56768 43.9362C12.6826 40.7917 15.8222 37.6718 18.9471 34.5421C24.0335 29.4556 29.12 24.3692 34.2064 19.2827C35.9167 17.5724 37.7995 17.5724 39.5098 19.2827C42.7677 22.5406 46.0256 25.7985 49.2835 29.0564C50.7325 30.5054 50.8951 31.3285 50.1706 33.029L50.1558 33.0142ZM18.5971 45.6416C21.0122 48.0517 23.4224 50.457 25.8325 52.8573C26.6901 53.7149 27.2224 53.7198 28.08 52.8573C34.8176 46.1197 41.5552 39.3821 48.2928 32.6396C49.1504 31.782 49.1405 31.2201 48.2632 30.3379C46.0206 28.0904 43.7731 25.8429 41.5256 23.5953C41.3679 23.4376 41.2003 23.2898 41.0672 23.1616C33.5805 30.6484 26.1233 38.1056 18.5971 45.6367V45.6416ZM39.9879 22.0083C39.3668 21.4119 38.8887 20.9585 38.4205 20.4952C37.2524 19.332 36.449 19.3271 35.2957 20.4804C27.2273 28.5487 19.159 36.6171 11.0907 44.6854C10.8837 44.8924 10.6668 45.0994 10.4746 45.3212C9.51839 46.4253 9.36067 47.9877 10.0704 49.2544C10.7309 50.4323 11.3125 50.5161 12.2637 49.5599C21.2931 40.5305 30.3226 31.4961 39.357 22.4716C39.5147 22.3139 39.7217 22.2005 39.9829 22.0083H39.9879ZM49.7122 35.6609C49.4609 35.2124 49.2687 34.8723 49.0814 34.5322C48.7906 34.6998 48.4505 34.8082 48.2238 35.035C45.2912 37.9429 42.3783 40.8656 39.4605 43.7884C36.4145 46.8344 33.3636 49.8852 30.3177 52.9312C29.7558 53.4931 29.8445 53.8036 30.6282 54.0303C31.2985 54.2225 31.816 53.9662 32.2793 53.498C34.2163 51.5512 36.1582 49.6142 38.1001 47.6722C41.6932 44.0792 45.2912 40.4911 48.8694 36.8832C49.1997 36.5481 49.4165 36.0996 49.7172 35.656L49.7122 35.6609ZM49.9193 54.5971C49.9193 56.4503 51.4422 57.9634 53.2954 57.9684C55.193 57.9733 56.7456 56.4503 56.7406 54.5823C56.7406 52.6503 55.2768 51.1716 53.3497 51.1569C51.388 51.1421 49.9143 52.6207 49.9143 54.5922L49.9193 54.5971ZM70.3489 49.7078C67.7416 50.107 66.0806 52.3151 66.2777 55.0653C66.4355 57.2783 68.3774 59.3287 70.3489 59.3484V49.7078Z" fill="#1F447A"/>
<path id="Vector_2" d="M44.3893 32.7579C44.3104 33.9408 43.8668 34.6308 43.0388 35.0645C42.2403 35.4834 41.4123 35.4489 40.7469 34.8575C39.7858 33.9999 38.8543 33.0979 38.0115 32.122C37.2426 31.2299 37.4102 29.9978 38.253 29.1747C39.0909 28.3565 40.3379 28.2283 41.2102 28.9923C42.1467 29.8105 43.0191 30.7075 43.8471 31.6341C44.1576 31.9791 44.2661 32.5016 44.3794 32.7579H44.3893ZM42.7579 33.0634C42.6839 32.8761 42.6642 32.7234 42.5804 32.6346C41.8066 31.8411 41.0377 31.0328 40.2146 30.2935C40.0668 30.1604 39.5493 30.2245 39.3965 30.3822C39.2486 30.535 39.2338 31.0427 39.3768 31.2004C40.0816 31.9939 40.8455 32.7431 41.6292 33.4627C41.782 33.6007 42.1467 33.6105 42.3734 33.5415C42.541 33.4922 42.6396 33.2162 42.7579 33.0585V33.0634Z" fill="#A8CC33"/>
<path id="Vector_3" d="M36.0499 32.3096C36.316 32.4525 36.8828 32.6447 37.3067 33.0045C38.0953 33.6847 38.81 34.4486 39.5296 35.2027C40.4857 36.2033 40.4808 37.4798 39.5591 38.4212C38.6128 39.3872 37.3116 39.3971 36.2914 38.4212C35.5077 37.6671 34.7339 36.9032 33.9995 36.1047C33.3539 35.4048 33.2356 34.562 33.6397 33.7044C34.0488 32.8369 34.7585 32.3638 36.0499 32.3145V32.3096ZM38.6522 36.9229C38.5783 36.7405 38.5635 36.5828 38.4797 36.4941C37.6911 35.6858 36.9025 34.8676 36.0696 34.1086C35.9316 33.9853 35.4239 34.0297 35.3056 34.1726C35.1578 34.3599 35.0986 34.8429 35.2317 34.9908C35.971 35.8188 36.7645 36.5926 37.5729 37.3467C37.7059 37.47 38.0509 37.47 38.2481 37.3911C38.4206 37.327 38.5241 37.0757 38.6522 36.9179V36.9229Z" fill="#A8CC33"/>
<path id="Vector_4" d="M33.4769 43.5815C33.1861 43.4189 32.6094 43.2069 32.1658 42.8274C31.4117 42.1818 30.7316 41.4474 30.0416 40.7278C29.0558 39.6977 29.0361 38.4063 29.9775 37.4551C30.9238 36.494 32.2151 36.4841 33.2452 37.4699C34.0289 38.2191 34.8027 38.9879 35.5371 39.7864C36.1778 40.4863 36.2961 41.3291 35.887 42.1867C35.473 43.0492 34.7633 43.5224 33.4769 43.5815ZM31.5547 38.2979C31.3526 38.4753 31.0667 38.6084 31.0322 38.7908C30.9879 39.0372 31.0569 39.3921 31.2195 39.5695C31.8553 40.2743 32.5503 40.9249 33.2206 41.6002C33.5262 41.9107 33.8761 42.0585 34.231 41.7234C34.6105 41.3685 34.4725 40.989 34.1472 40.6637C33.4917 40.0082 32.8411 39.3477 32.1757 38.7021C32.0229 38.5542 31.811 38.4606 31.5596 38.3028L31.5547 38.2979Z" fill="#A8CC33"/>
</g>
</g>
</svg>
