<svg width="20" height="23" viewBox="0 0 20 23" fill="none" xmlns="http://www.w3.org/2000/svg">
<g id="Location">
<path id="Ellipse 8 (Stroke)" fill-rule="evenodd" clip-rule="evenodd" d="M4.12265 3.8655C2.65352 5.28621 1.7 7.45467 1.7 10.4498C1.7 13.346 3.31805 16.0688 5.2569 18.1045C6.21906 19.1148 7.23703 19.9305 8.12313 20.4888C8.56636 20.768 8.96703 20.9768 9.30302 21.1136C9.6516 21.2555 9.88192 21.2998 10 21.2998C10.1181 21.2998 10.3484 21.2555 10.697 21.1136C11.033 20.9768 11.4336 20.768 11.8769 20.4888C12.763 19.9305 13.7809 19.1148 14.7431 18.1045C16.6819 16.0688 18.3 13.346 18.3 10.4498C18.3 7.45467 17.3465 5.28621 15.8773 3.8655C14.4026 2.43936 12.3391 1.6998 10 1.6998C7.66093 1.6998 5.5974 2.43936 4.12265 3.8655ZM3.14943 2.85911C4.93204 1.13525 7.36851 0.299805 10 0.299805C12.6315 0.299805 15.068 1.13525 16.8506 2.85911C18.6388 4.5884 19.7 7.14494 19.7 10.4498C19.7 13.8536 17.8181 16.9058 15.7569 19.0701C14.7191 20.1598 13.612 21.0503 12.6231 21.6733C12.1289 21.9847 11.6545 22.2353 11.2249 22.4102C10.8078 22.58 10.3819 22.6998 10 22.6998C9.61808 22.6998 9.19215 22.58 8.7751 22.4102C8.34546 22.2353 7.87113 21.9847 7.37687 21.6733C6.38797 21.0503 5.28094 20.1598 4.2431 19.0701C2.18194 16.9058 0.299999 13.8536 0.299999 10.4498C0.299999 7.14494 1.36119 4.5884 3.14943 2.85911Z" fill="#1F447A"/>
<path id="Ellipse 9 (Stroke)" fill-rule="evenodd" clip-rule="evenodd" d="M10 6.6998C8.59167 6.6998 7.45 7.84148 7.45 9.2498C7.45 10.6581 8.59167 11.7998 10 11.7998C11.4083 11.7998 12.55 10.6581 12.55 9.2498C12.55 7.84148 11.4083 6.6998 10 6.6998ZM6.05 9.2498C6.05 7.06828 7.81847 5.2998 10 5.2998C12.1815 5.2998 13.95 7.06828 13.95 9.2498C13.95 11.4313 12.1815 13.1998 10 13.1998C7.81847 13.1998 6.05 11.4313 6.05 9.2498Z" fill="#A8CC33"/>
</g>
</svg>
