<svg width="80" height="80" viewBox="0 0 80 80" fill="none" xmlns="http://www.w3.org/2000/svg">
<g id="icon-suporte">
<g id="Group 4">
<path id="Vector" d="M18.9829 72C18.9829 68.733 19.073 65.4619 18.9543 62.1989C18.7988 57.9444 17.395 54.0435 15.0007 50.5245C12.8316 47.3306 11.1577 43.9173 10.5192 40.1098C9.14818 31.9382 10.3924 24.2623 15.4509 17.4763C18.7456 13.0512 23.2721 10.3733 28.609 9.06894C34.9936 7.50857 41.3823 7.6386 47.6605 9.57688C55.056 11.8646 59.8936 16.8383 62.3328 24.0754C63.0531 26.2087 63.3928 28.472 63.9208 30.6704C64.0149 31.0686 64.1254 31.479 64.326 31.8285C66.1145 34.933 67.9398 38.0172 69.712 41.1298C70.0517 41.7312 70.3422 42.4301 70.3995 43.1046C70.5346 44.6569 69.8347 45.8434 68.431 46.5748C67.2441 47.1925 66.0572 47.8142 64.8294 48.3506C64.2277 48.6147 64.0763 48.9601 64.0804 49.5777C64.1009 51.6582 64.1418 53.7428 64.019 55.8192C63.6998 61.1139 59.0259 65.4659 53.685 65.4984C52.4571 65.5066 51.2252 65.3806 49.9319 65.3115V71.9919H47.2881C47.3044 71.1182 47.3331 70.2486 47.3372 69.375C47.3454 67.3554 47.3372 65.3359 47.3372 63.3204V62.5646C48.6673 62.6499 49.9156 62.7718 51.1679 62.8044C52.5022 62.8369 53.8732 62.975 55.1665 62.7393C58.7845 62.077 61.4324 58.8547 61.4979 55.2057C61.5388 52.792 61.5348 50.3782 61.4938 47.9645C61.4815 47.3428 61.6903 47.0543 62.2346 46.8024C63.7325 46.1075 65.2018 45.3517 66.6834 44.6203C68.0421 43.9498 68.1731 43.5272 67.4201 42.2432C65.8157 39.5125 64.2564 36.7575 62.5907 34.0634C61.8376 32.8443 61.4488 31.5765 61.236 30.1787C60.6303 26.2331 59.3902 22.4987 57.0492 19.1992C54.0369 14.9488 49.8133 12.5554 44.7915 11.442C43.5351 11.1616 42.2499 10.991 40.9321 10.7634C40.9157 11.06 40.8994 11.247 40.8994 11.4298C40.8994 17.6104 40.8994 23.7909 40.8912 29.9715C40.8912 30.3697 40.9812 30.5932 41.3741 30.7801C47.1857 33.5351 49.1052 40.4593 45.5446 45.7825C45.475 45.884 45.4136 45.9897 45.3154 46.1441C45.7206 46.4245 46.1053 46.7008 46.4982 46.969C48.1844 48.1311 49.8787 49.2852 51.5567 50.4595C51.8432 50.6627 52.0683 50.6871 52.408 50.553C54.0369 49.9069 55.8009 50.4108 56.8486 51.7761C57.8923 53.1373 57.9086 54.9862 56.8854 56.3637C55.8827 57.7169 54.0983 58.2695 52.5144 57.7128C50.8978 57.1439 49.8542 55.5998 49.936 53.8972C49.9442 53.7509 49.9279 53.5884 49.9933 53.4665C50.3617 52.7676 50.0056 52.4222 49.4367 52.0443C47.5909 50.8212 45.7738 49.5493 43.9607 48.2734C43.6333 48.0417 43.4205 48.0499 43.093 48.2815C36.6961 52.8407 27.8354 49.0495 26.8082 41.3208C26.2311 36.9891 28.6335 32.6574 32.6689 30.7964C33.0414 30.6257 33.1928 30.4388 33.1928 30.0121C33.1764 23.8112 33.1805 17.6063 33.1805 11.4054C33.1805 11.2226 33.1641 11.0397 33.1478 10.8122C25.7236 11.7061 19.5518 14.709 15.938 21.3935C11.5588 29.496 11.2355 37.8668 15.3855 46.2335C15.8929 47.2534 16.5601 48.2002 17.1862 49.1592C20.0962 53.625 21.6186 58.4889 21.59 63.8243C21.5777 66.5509 21.6105 69.2734 21.6227 72H18.9788H18.9829ZM37.0522 47.6923C41.325 47.6801 44.767 44.2627 44.767 40.0286C44.767 35.7904 41.325 32.373 37.0522 32.3649C32.7549 32.3567 29.2924 35.7985 29.3047 40.0611C29.317 44.2912 32.7835 47.7045 37.0522 47.6964V47.6923ZM38.2964 29.8252V10.6821H35.7753V29.8252H38.2964ZM55.0724 54.0923C55.0724 53.3974 54.4994 52.8285 53.7955 52.8204C53.0874 52.8123 52.5144 53.3608 52.4981 54.0679C52.4817 54.7912 53.0792 55.3885 53.7995 55.3763C54.4953 55.3641 55.0724 54.7831 55.0683 54.0923H55.0724Z" fill="#1F447A"/>
<path id="Vector_2" d="M32.0161 40.2824C31.9998 37.459 34.3029 35.1401 37.1279 35.136C39.9528 35.136 42.2641 37.4386 42.256 40.262C42.2519 43.061 39.9691 45.3596 37.1768 45.3759C34.3478 45.3922 32.0324 43.1058 32.0161 40.2783V40.2824ZM37.1605 42.8088C38.6076 42.7925 39.7286 41.6453 39.7001 40.201C39.6715 38.7893 38.5342 37.6949 37.1116 37.7072C35.6644 37.7194 34.5434 38.8707 34.572 40.3149C34.6005 41.7266 35.7419 42.8251 37.1646 42.8088H37.1605Z" fill="#A8CC33"/>
</g>
</g>
</svg>
