<svg width="22" height="18" viewBox="0 0 22 18" fill="none" xmlns="http://www.w3.org/2000/svg">
<path fill-rule="evenodd" clip-rule="evenodd" d="M8.96854 0.300049H13.0315C14.405 0.300045 15.4787 0.300042 16.341 0.370495C17.218 0.442152 17.9378 0.590168 18.5877 0.921312C19.6603 1.46779 20.5323 2.33978 21.0787 3.4123C21.4099 4.06221 21.5579 4.78201 21.6296 5.65906C21.7 6.52137 21.7 7.59511 21.7 8.96863V9.03147C21.7 10.405 21.7 11.4787 21.6296 12.341C21.5579 13.2181 21.4099 13.9379 21.0787 14.5878C20.5323 15.6603 19.6603 16.5323 18.5877 17.0788C17.9378 17.4099 17.218 17.5579 16.341 17.6296C15.4787 17.7001 14.4049 17.7001 13.0314 17.7001H8.96859C7.59506 17.7001 6.52132 17.7001 5.65901 17.6296C4.78196 17.5579 4.06216 17.4099 3.41226 17.0788C2.33973 16.5323 1.46774 15.6603 0.921266 14.5878C0.590122 13.9379 0.442107 13.2181 0.370449 12.341C0.299996 11.4787 0.299999 10.405 0.300003 9.03151V8.96859C0.299999 7.59509 0.299996 6.52136 0.370449 5.65906C0.442107 4.78201 0.590122 4.06221 0.921266 3.4123C1.46774 2.33978 2.33973 1.46779 3.41226 0.921312C4.06216 0.590168 4.78196 0.442152 5.65901 0.370495C6.52132 0.300042 7.59504 0.300045 8.96854 0.300049ZM5.77302 1.76585C4.98254 1.83043 4.4675 1.9549 4.04784 2.16872C3.23875 2.58098 2.58093 3.23879 2.16868 4.04789C1.95485 4.46754 1.83038 4.98259 1.7658 5.77306C1.70055 6.5717 1.7 7.58837 1.7 9.00005C1.7 10.4117 1.70055 11.4284 1.7658 12.227C1.83038 13.0175 1.95485 13.5326 2.16868 13.9522C2.58093 14.7613 3.23875 15.4191 4.04784 15.8314C4.4675 16.0452 4.98254 16.1697 5.77302 16.2343C6.57166 16.2995 7.58832 16.3 9 16.3H13C14.4117 16.3 15.4283 16.2995 16.227 16.2343C17.0175 16.1697 17.5325 16.0452 17.9522 15.8314C18.7613 15.4191 19.4191 14.7613 19.8313 13.9522C20.0452 13.5326 20.1696 13.0175 20.2342 12.227C20.2995 11.4284 20.3 10.4117 20.3 9.00005C20.3 7.58837 20.2995 6.5717 20.2342 5.77306C20.1696 4.98259 20.0452 4.46754 19.8313 4.04789C19.4191 3.23879 18.7613 2.58098 17.9522 2.16872C17.5325 1.9549 17.0175 1.83043 16.227 1.76585C15.4283 1.70059 14.4117 1.70005 13 1.70005H9C7.58832 1.70005 6.57166 1.70059 5.77302 1.76585Z" fill="#1F447A"/>
<path fill-rule="evenodd" clip-rule="evenodd" d="M6.46852 6.54451C6.72012 6.25098 7.16203 6.21699 7.45555 6.46858L7 7.00006L6.54445 7.53154C6.25092 7.27995 6.21693 6.83804 6.46852 6.54451ZM11 9.24487C10.8883 9.17893 10.7426 9.08283 10.5677 8.95943C10.1866 8.69036 9.71507 8.32568 9.24979 7.95345C8.78647 7.5828 8.33762 7.21136 8.00404 6.93208C7.83742 6.79258 7.69994 6.6764 7.60425 6.59521L7.49373 6.50121L7.45555 6.46858L7 7.00006C6.54445 7.53154 6.5444 7.5315 6.54445 7.53154L6.58512 7.5663L6.69848 7.66272C6.79616 7.7456 6.93602 7.86379 7.10533 8.00554C7.44363 8.28877 7.90103 8.66732 8.37521 9.04667C8.84743 9.42444 9.34469 9.80976 9.76038 10.1032C9.96687 10.2489 10.1655 10.3807 10.3373 10.4789C10.4226 10.5277 10.5141 10.5756 10.605 10.6132C10.6772 10.643 10.8256 10.7001 11 10.7001C11.1744 10.7001 11.3228 10.643 11.395 10.6132C11.4859 10.5756 11.5774 10.5277 11.6627 10.4789C11.8345 10.3807 12.0331 10.2489 12.2396 10.1032C12.6553 9.80976 13.1526 9.42444 13.6248 9.04667C14.099 8.66732 14.5564 8.28877 14.8947 8.00554C15.064 7.86379 15.2038 7.7456 15.3015 7.66272L15.4149 7.5663L15.4548 7.53221C15.4548 7.53218 15.4556 7.53154 15 7.00006L15.4556 7.53154C15.7491 7.27995 15.7831 6.83804 15.5315 6.54451C15.2799 6.25098 14.838 6.21699 14.5444 6.46858L14.5063 6.50121L14.3957 6.59521C14.3001 6.6764 14.1626 6.79258 13.996 6.93208C13.6624 7.21136 13.2135 7.5828 12.7502 7.95345C12.2849 8.32568 11.8134 8.69036 11.4323 8.95943C11.2574 9.08283 11.1117 9.17893 11 9.24487ZM11.1403 9.31956C11.1403 9.31956 11.1403 9.31956 11.1403 9.31956V9.31956Z" fill="#A8CC33"/>
</svg>
