<svg width="24" height="24" viewBox="0 0 24 24" fill="none" xmlns="http://www.w3.org/2000/svg">
<g id="icon-whatsapp">
<path id="Vector" d="M17.1337 14.665L17.8531 14.9983C17.9839 15.0649 18.0493 15.1316 18.0493 15.1316V15.5982L18.049 15.5996C17.9837 15.9324 17.9183 16.2651 17.7877 16.5314C17.7223 16.6648 17.5915 16.7981 17.4607 16.9314C17.33 17.0647 17.1992 17.1313 17.0684 17.2646L16.9375 17.398C16.8067 17.5313 16.676 17.5313 16.4798 17.6646C16.2182 17.7979 15.8258 17.9312 15.4988 17.9312H14.8449C14.6487 17.8645 14.3872 17.8645 14.1909 17.7979C12.4252 17.3313 10.8558 16.4648 9.48243 15.2648C9.35165 15.0649 9.15543 14.9316 8.95931 14.7316L8.69775 14.465C7.65131 13.4651 6.86662 12.3319 6.27806 11.0654L6.21262 10.8654C6.0164 10.3988 5.88562 9.86548 5.88562 9.33226C5.88562 8.59903 6.14718 7.8658 6.60496 7.26587C6.73575 7.13247 6.80118 6.99926 6.93196 6.86586C7.06275 6.79925 7.19353 6.66595 7.32431 6.59925L7.38974 6.53264C7.52062 6.53264 7.65131 6.46594 7.78218 6.46594H8.50153C8.69775 6.53264 8.82843 6.59925 8.95931 6.79925C9.15543 7.19917 9.94021 8.99895 10.0056 9.33226C10.071 9.53227 10.0056 9.79888 9.87478 9.99889C9.744 10.1322 9.67865 10.3321 9.54778 10.4655C9.35165 10.6654 9.09009 10.9987 9.09009 10.9987C9.02465 11.0654 9.02465 11.1987 9.02465 11.332C9.09009 11.4653 9.09009 11.532 9.15543 11.5987L9.22087 11.732C9.54778 12.3319 10.0056 12.8652 10.4633 13.3318C10.5941 13.4651 10.7903 13.5984 10.9211 13.7317C11.4443 14.265 12.0982 14.665 12.8176 14.9983L13.1446 15.1316C13.21 15.1982 13.3408 15.2649 13.4062 15.2649H13.4716C13.6024 15.2649 13.7332 15.1982 13.7986 15.0649C14.7142 13.9984 14.7795 13.9317 14.7795 13.9317C14.9103 13.865 15.0411 13.7983 15.2373 13.7983C15.3027 13.7983 15.3681 13.865 15.4335 13.865C16.0875 14.1984 17.1337 14.665 17.1337 14.665Z" fill="#A8CC33"/>
<path id="Ellipse 10" d="M21.4286 12C21.4286 17.2072 17.2073 21.4286 12 21.4286C10.4568 21.4286 9.00012 21.0578 7.71429 20.4005L2.14285 22.2857L4.09623 17.1428C3.13187 15.6638 2.57143 13.8973 2.57143 12C2.57143 6.79273 6.79275 2.57141 12 2.57141C17.2073 2.57141 21.4286 6.79273 21.4286 12Z" stroke="#1F447A" stroke-width="1.2" stroke-linejoin="round"/>
</g>
</svg>
