<svg width="23" height="16" viewBox="0 0 23 16" fill="none" xmlns="http://www.w3.org/2000/svg">
<g id="simbolo">
<path id="Fill 43" fill-rule="evenodd" clip-rule="evenodd" d="M10.0781 10.7795C9.44023 10.9126 9.03108 11.5377 9.1646 12.1757C9.29812 12.8136 9.92322 13.2232 10.5613 13.0899C11.1996 12.9561 11.6083 12.3314 11.4747 11.6933C11.3412 11.0554 10.7161 10.6464 10.0781 10.7795Z" fill="#0B2537"/>
<path id="Fill 45" fill-rule="evenodd" clip-rule="evenodd" d="M21.9942 7.99793L14.5866 0.526675C13.8902 -0.175558 12.7611 -0.175558 12.0648 0.526675L1.00592 11.6805C0.309508 12.3828 0.309508 13.5215 1.00592 14.2238L2.7563 15.9891C3.0926 14.6202 3.69948 13.207 4.58104 11.861C7.47203 7.44784 13.6709 5.65919 15.4141 6.79826C17.0586 7.87258 17.8175 12.0949 16.5818 16L21.9942 10.5412C22.6905 9.83892 22.6905 8.70017 21.9942 7.99793Z" fill="#0B2537"/>
</g>
</svg>
