<svg width="16" height="16" viewBox="0 0 16 16" fill="none" xmlns="http://www.w3.org/2000/svg">
<path fill-rule="evenodd" clip-rule="evenodd" d="M3.44082 1.74386C3.69738 1.61999 3.97231 1.53345 4.20769 1.53345C4.36281 1.53345 4.51039 1.58239 4.62541 1.63174C4.74845 1.68452 4.876 1.75625 5.0017 1.83803C5.25357 2.00188 5.5281 2.22574 5.78803 2.48009C6.2901 2.9714 6.82287 3.66023 6.96446 4.33564C7.02459 4.62249 6.9622 4.91397 6.80638 5.14961C6.71078 5.29418 6.5885 5.4474 6.47324 5.59001C6.45666 5.61052 6.44014 5.63092 6.42369 5.65122C6.32074 5.77834 6.22073 5.90182 6.12778 6.02709C6.02001 6.17234 5.9338 6.30424 5.87555 6.42263C5.81602 6.54362 5.79997 6.62217 5.79997 6.66678C5.79997 6.8763 5.92775 7.29054 6.21147 7.80666C6.48451 8.30334 6.86537 8.82794 7.2897 9.24704C7.73701 9.68883 8.13297 10.017 8.48425 10.2326C8.81195 10.4338 9.07442 10.5207 9.28533 10.5321C9.29519 10.5239 9.30859 10.512 9.32581 10.495C9.36518 10.4562 9.40847 10.4079 9.46783 10.3409L9.47581 10.3319C9.53023 10.2705 9.59538 10.1969 9.66736 10.1227C9.98434 9.79568 10.461 9.42818 11.2459 9.42818C11.8594 9.42818 12.486 9.75207 12.9808 10.1801C13.4833 10.6147 13.9166 11.2128 14.1134 11.8654C14.2807 12.4198 14.0085 12.892 13.687 13.2181C13.3633 13.5465 12.9102 13.817 12.47 14.0259C11.729 14.3775 10.9056 14.5007 10.1042 14.4236C8.6786 14.2865 6.69259 13.7202 4.34569 11.4968C4.33799 11.4895 4.33054 11.4819 4.32335 11.4741C2.99115 10.0274 2.26681 8.8034 1.89091 7.68399C1.51439 6.5627 1.50009 5.58167 1.53361 4.65907C1.57175 3.60949 2.05888 2.82954 2.60763 2.31882C2.88065 2.06472 3.17252 1.87339 3.44082 1.74386ZM3.24349 3.00204C2.84005 3.37752 2.49385 3.93552 2.46633 4.69296C2.43419 5.57737 2.45272 6.42506 2.77569 7.38688C3.09838 8.34783 3.73748 9.45771 4.99914 10.8302C7.18654 12.8982 8.9727 13.3772 10.1936 13.4946C10.8423 13.557 11.4946 13.4557 12.0698 13.1827C12.469 12.9933 12.8098 12.7785 13.0224 12.5629C13.2372 12.3449 13.2438 12.2141 13.2199 12.1349C13.0833 11.6822 12.7653 11.2277 12.3702 10.886C11.9675 10.5376 11.5504 10.3615 11.2459 10.3615C10.8067 10.3615 10.5562 10.5466 10.3375 10.7723C10.2804 10.8312 10.2276 10.8908 10.1703 10.9555L10.1664 10.9599C10.111 11.0223 10.0465 11.0952 9.98088 11.1598C9.86222 11.2767 9.64511 11.4668 9.3333 11.4668C8.8789 11.4668 8.43048 11.2947 7.99601 11.0281C7.55982 10.7603 7.10657 10.378 6.63384 9.91108C6.13813 9.42149 5.70476 8.82235 5.39357 8.25627C5.09307 7.70963 4.86663 7.12209 4.86663 6.66678C4.86663 6.42435 4.94532 6.19915 5.03809 6.0106C5.13214 5.81944 5.25578 5.63599 5.37823 5.47095C5.484 5.3284 5.59788 5.18785 5.70004 5.06176C5.71613 5.0419 5.73192 5.02241 5.74735 5.00332C5.86586 4.8567 5.96052 4.73665 6.02786 4.63481C6.05206 4.59822 6.05781 4.55972 6.05098 4.52714C5.96778 4.13023 5.60151 3.60342 5.13525 3.14717C4.91102 2.92775 4.68407 2.74485 4.49274 2.62038C4.39685 2.558 4.31738 2.51519 4.25743 2.48947C4.22413 2.47518 4.20441 2.46945 4.19644 2.46731C4.14975 2.47117 4.02726 2.49715 3.84661 2.58436C3.66049 2.67422 3.44656 2.81305 3.24349 3.00204Z" fill="white"/>
<path fill-rule="evenodd" clip-rule="evenodd" d="M9.39643 4.46571C9.40027 4.46531 9.40754 4.46467 9.41916 4.46384C9.44244 4.46218 9.48044 4.4603 9.53068 4.46057C9.63149 4.46113 9.77944 4.47038 9.95552 4.50652C10.3056 4.57838 10.7659 4.75589 11.1976 5.18755C11.6292 5.61921 11.8067 6.07956 11.8786 6.4296C11.9147 6.60568 11.924 6.75363 11.9245 6.85444C11.9248 6.90468 11.9229 6.94268 11.9213 6.96596C11.9204 6.97758 11.9197 6.98547 11.9193 6.98931C11.9193 6.9891 11.9195 6.98827 12.3818 7.05182L11.9195 6.98827C11.9193 6.98937 11.9192 6.99046 11.919 6.99156C11.919 6.99156 11.919 6.99156 11.919 6.99156C11.8859 7.24562 12.064 7.47919 12.3182 7.51414C12.5736 7.54924 12.809 7.3707 12.8441 7.11537L12.3979 7.05404C12.8441 7.11536 12.8441 7.11559 12.8441 7.11537L12.8444 7.1134L12.8447 7.111L12.8455 7.10485L12.8474 7.08738C12.8489 7.07346 12.8506 7.05505 12.8522 7.03247C12.8555 6.98735 12.8583 6.92537 12.8579 6.84929C12.857 6.69746 12.8433 6.48737 12.7929 6.24191C12.6916 5.74886 12.442 5.11208 11.8575 4.52758C11.273 3.94309 10.6363 3.69347 10.1432 3.59226C9.89775 3.54187 9.68767 3.52809 9.53583 3.52725C9.45975 3.52683 9.39777 3.52966 9.35265 3.53288C9.33007 3.5345 9.31166 3.53621 9.29774 3.53768L9.28027 3.53966L9.27413 3.54044L9.27172 3.54075L9.27068 3.54089C9.27045 3.54092 9.26975 3.54102 9.3333 4.00334L9.26975 3.54102C9.01442 3.57611 8.83588 3.81155 8.87098 4.06688C8.90593 4.32112 9.13951 4.49922 9.39357 4.4661" fill="#A8CC33"/>
<path fill-rule="evenodd" clip-rule="evenodd" d="M9.35882 1.80266C9.10247 1.81673 8.8827 1.62094 8.86745 1.36438C8.85216 1.1071 9.04833 0.886139 9.3056 0.870848L9.33329 1.33669C9.3056 0.870848 9.30536 0.870862 9.3056 0.870848L9.30659 0.87079L9.30776 0.870724L9.31062 0.870571L9.31843 0.870201C9.32455 0.869934 9.33251 0.869636 9.34224 0.86937C9.36168 0.86884 9.38822 0.868439 9.42135 0.868677C9.48759 0.869151 9.58033 0.872176 9.69553 0.881846C9.92578 0.901172 10.2469 0.947142 10.6262 1.05297C11.3866 1.26517 12.3773 1.71743 13.3299 2.67003C14.2826 3.62266 14.7342 4.61282 14.9457 5.37269C15.0511 5.75164 15.0967 6.07254 15.1158 6.30259C15.1253 6.4177 15.1282 6.51036 15.1286 6.57655C15.1288 6.60966 15.1283 6.63618 15.1278 6.65562C15.1275 6.66535 15.1272 6.6733 15.1269 6.67943L15.1265 6.68724L15.1264 6.6901L15.1263 6.69127C15.1263 6.69151 15.1262 6.69226 14.6604 6.66383L15.1262 6.69226C15.1105 6.94952 14.8893 7.14534 14.632 7.12963C14.3755 7.11398 14.18 6.89391 14.1945 6.63759L14.1948 6.62877C14.1951 6.61968 14.1954 6.60391 14.1953 6.58192C14.195 6.53792 14.193 6.4692 14.1856 6.37955C14.1708 6.20009 14.1342 5.93798 14.0465 5.62295C13.8717 4.99484 13.4931 4.15309 12.67 3.33C11.8469 2.50689 11.0043 2.12749 10.3753 1.95195C10.0598 1.86392 9.79727 1.827 9.61747 1.81191C9.52765 1.80437 9.45878 1.8023 9.41467 1.80199C9.39263 1.80183 9.37681 1.80211 9.36769 1.80236L9.35882 1.80266ZM9.35882 1.80266C9.35882 1.80266 9.35883 1.80266 9.35882 1.80266V1.80266Z" fill="#A8CC33"/>
</svg>
