<svg width="16" height="16" viewBox="0 0 16 16" fill="none" xmlns="http://www.w3.org/2000/svg">
<path fill-rule="evenodd" clip-rule="evenodd" d="M6.64572 2.19995H9.35434C10.27 2.19995 10.9858 2.19995 11.5607 2.24692C12.1454 2.29469 12.6253 2.39336 13.0585 2.61413C13.7735 2.97845 14.3549 3.55977 14.7192 4.27479C14.94 4.70806 15.0386 5.18792 15.0864 5.77262C15.1334 6.3475 15.1334 7.06333 15.1334 7.97901V8.0209C15.1334 8.93658 15.1334 9.6524 15.0864 10.2273C15.0386 10.812 14.94 11.2918 14.7192 11.7251C14.3549 12.4401 13.7735 13.0215 13.0585 13.3858C12.6253 13.6065 12.1454 13.7052 11.5607 13.753C10.9858 13.8 10.27 13.8 9.35431 13.8H6.64575C5.73007 13.8 5.01425 13.8 4.43937 13.753C3.85467 13.7052 3.37481 13.6065 2.94154 13.3858C2.22652 13.0215 1.64519 12.4401 1.28087 11.7251C1.06011 11.2918 0.961435 10.812 0.913663 10.2273C0.866694 9.65241 0.866697 8.93659 0.866699 8.02093V7.97898C0.866697 7.06331 0.866694 6.34749 0.913663 5.77262C0.961435 5.18792 1.06011 4.70806 1.28087 4.27479C1.64519 3.55977 2.22652 2.97845 2.94154 2.61413C3.37481 2.39336 3.85467 2.29469 4.43937 2.24692C5.01424 2.19995 5.73006 2.19995 6.64572 2.19995ZM4.51537 3.17715C3.98839 3.2202 3.64503 3.30318 3.36526 3.44573C2.82586 3.72057 2.38732 4.15911 2.11248 4.69851C1.96993 4.97828 1.88695 5.32165 1.8439 5.84863C1.8004 6.38106 1.80003 7.05883 1.80003 7.99995C1.80003 8.94107 1.8004 9.61885 1.8439 10.1513C1.88695 10.6783 1.96993 11.0216 2.11248 11.3014C2.38732 11.8408 2.82586 12.2793 3.36526 12.5542C3.64503 12.6967 3.98839 12.7797 4.51537 12.8228C5.0478 12.8663 5.72558 12.8666 6.6667 12.8666H9.33337C10.2745 12.8666 10.9523 12.8663 11.4847 12.8228C12.0117 12.7797 12.355 12.6967 12.6348 12.5542C13.1742 12.2793 13.6127 11.8408 13.8876 11.3014C14.0301 11.0216 14.1131 10.6783 14.1562 10.1513C14.1997 9.61885 14.2 8.94107 14.2 7.99995C14.2 7.05883 14.1997 6.38106 14.1562 5.84863C14.1131 5.32165 14.0301 4.97828 13.8876 4.69851C13.6127 4.15911 13.1742 3.72057 12.6348 3.44573C12.355 3.30318 12.0117 3.2202 11.4847 3.17715C10.9523 3.13365 10.2745 3.13328 9.33337 3.13328H6.6667C5.72558 3.13328 5.0478 3.13365 4.51537 3.17715Z" fill="white"/>
<path fill-rule="evenodd" clip-rule="evenodd" d="M4.97905 6.36292C5.14678 6.16724 5.44139 6.14458 5.63708 6.31231L5.33337 6.66663L5.02967 7.02095C4.83399 6.85322 4.81132 6.55861 4.97905 6.36292ZM8.00004 8.16316C7.92556 8.1192 7.82841 8.05514 7.71187 7.97287C7.45775 7.79349 7.14342 7.55037 6.83323 7.30222C6.52436 7.05512 6.22512 6.80749 6.00274 6.62131C5.89165 6.52831 5.8 6.45085 5.73621 6.39673L5.66253 6.33406L5.63708 6.31231L5.33337 6.66663C5.02967 7.02095 5.02964 7.02092 5.02967 7.02095L5.05679 7.04412L5.13236 7.1084C5.19748 7.16365 5.29072 7.24245 5.4036 7.33695C5.62913 7.52576 5.93406 7.77813 6.25018 8.03103C6.56499 8.28288 6.8965 8.53976 7.17363 8.73538C7.31129 8.83255 7.44368 8.92041 7.55822 8.98587C7.61511 9.01837 7.67614 9.0503 7.73673 9.07537C7.78484 9.09528 7.88376 9.13329 8.00004 9.13329C8.11632 9.13329 8.21524 9.09528 8.26335 9.07537C8.32394 9.0503 8.38497 9.01837 8.44186 8.98587C8.5564 8.92041 8.68879 8.83255 8.82645 8.73538C9.10358 8.53976 9.43509 8.28288 9.7499 8.03103C10.066 7.77813 10.371 7.52576 10.5965 7.33695C10.7094 7.24245 10.8026 7.16365 10.8677 7.1084L10.9433 7.04412L10.9699 7.02139C10.9699 7.02137 10.9704 7.02095 10.6667 6.66663L10.9704 7.02095C11.1661 6.85322 11.1888 6.55861 11.021 6.36292C10.8533 6.16724 10.5587 6.14458 10.363 6.31231L10.3376 6.33406L10.2639 6.39673C10.2001 6.45085 10.1084 6.52831 9.99735 6.62131C9.77496 6.80749 9.47573 7.05512 9.16685 7.30222C8.85666 7.55037 8.54234 7.79349 8.28821 7.97287C8.17167 8.05514 8.07452 8.1192 8.00004 8.16316ZM8.09359 8.21296C8.09359 8.21296 8.0936 8.21296 8.09359 8.21296V8.21296Z" fill="#A8CC33"/>
</svg>
