<svg width="135" height="40" viewBox="0 0 135 40" fill="none" xmlns="http://www.w3.org/2000/svg">
<g id="logo-rpm-informatica" clip-path="url(#clip0_902_2742)">
<path id="Vector" d="M121.862 0H132.589C133.018 0 133.39 0.0972746 133.702 0.291824C134.014 0.486373 134.172 0.71782 134.172 0.982809V24.5031C134.172 24.7715 134.014 24.9996 133.702 25.1941C133.39 25.3887 133.018 25.486 132.589 25.486H121.979C121.55 25.486 121.177 25.3887 120.865 25.1941C120.553 24.9996 120.396 24.7681 120.396 24.5031V13.2159L116.116 18.4587C115.881 18.7505 115.529 18.9753 115.059 19.1329C114.59 19.2906 114.12 19.3711 113.654 19.3711H109.669C109.005 19.3711 108.458 19.2604 108.029 19.0423C107.599 18.8243 107.324 18.6298 107.207 18.4587L102.927 13.2159V24.5031C102.927 24.7715 102.769 24.9996 102.457 25.1941C102.145 25.3887 101.773 25.486 101.343 25.486H90.7337C90.3044 25.486 89.9321 25.3887 89.6201 25.1941C89.3082 24.9996 89.1505 24.7681 89.1505 24.5031V0.982809C89.1505 0.71782 89.3048 0.486373 89.6201 0.291824C89.9321 0.0972746 90.3044 0 90.7337 0H101.461C102.554 0 103.396 0.328721 103.98 0.982809L111.658 9.72075L119.336 0.982809C119.923 0.328721 120.761 0 121.855 0L121.862 0Z" fill="#1F447A"/>
<g id="Group">
<path id="Vector_2" d="M7.06415 39.8927H5.72243V32.1309H7.06415V39.8927Z" fill="#1F447A"/>
<path id="Vector_3" d="M19.5723 39.8927H18.2239L14.7656 34.3849V39.8927H13.4172V32.1309H14.7656L18.234 37.6587V32.1309H19.5723V39.8927Z" fill="#1F447A"/>
<path id="Vector_4" d="M30.3329 36.6021H27.2101V39.8927H25.8616V32.1309H30.7925V33.2177H27.2101V35.5254H30.3329V36.6021Z" fill="#1F447A"/>
<path id="Vector_5" d="M42.7472 36.213C42.7472 36.9744 42.6164 37.6419 42.3514 38.2155C42.0897 38.7891 41.714 39.2319 41.2243 39.5371C40.7346 39.8424 40.1744 39.9967 39.5371 39.9967C38.8998 39.9967 38.3463 39.8424 37.8566 39.5371C37.3635 39.2285 36.9845 38.7925 36.7161 38.2222C36.4478 37.6554 36.3103 36.9979 36.3069 36.2566V35.8206C36.3069 35.0625 36.4411 34.395 36.7094 33.8147C36.9778 33.2344 37.3568 32.7916 37.8432 32.4864C38.3329 32.1778 38.8931 32.0269 39.5237 32.0269C40.1543 32.0269 40.7178 32.1778 41.2042 32.483C41.6906 32.7883 42.0696 33.2243 42.3379 33.7946C42.6029 34.3648 42.7405 35.029 42.7438 35.787V36.2197L42.7472 36.213ZM41.3987 35.8071C41.3987 34.9484 41.2377 34.2877 40.9124 33.8281C40.587 33.3686 40.1275 33.1405 39.5304 33.1405C38.9333 33.1405 38.4906 33.3686 38.1618 33.8248C37.8331 34.2809 37.6654 34.9283 37.6587 35.7635V36.2097C37.6587 37.0617 37.8264 37.7225 38.1585 38.1887C38.4906 38.6549 38.9501 38.8864 39.5405 38.8864C40.1308 38.8864 40.5971 38.6583 40.9191 38.2055C41.2411 37.7493 41.4021 37.0851 41.4021 36.213V35.8071H41.3987Z" fill="#1F447A"/>
<path id="Vector_6" d="M51.636 36.9074H50.1333V39.8927H48.7849V32.1309H51.5153C52.4109 32.1309 53.1019 32.3321 53.5882 32.7346C54.0746 33.1371 54.3195 33.7174 54.3195 34.4789C54.3195 34.9988 54.1954 35.4315 53.9438 35.7837C53.6922 36.1325 53.3434 36.4042 52.8973 36.5921L54.6415 39.8256V39.8961H53.1958L51.6394 36.9107L51.636 36.9074ZM50.1333 35.8206H51.5186C51.9748 35.8206 52.3304 35.7065 52.5853 35.4784C52.8402 35.2504 52.9677 34.9351 52.9677 34.5359C52.9677 34.1367 52.8503 33.7979 52.6122 33.5699C52.374 33.3418 52.0218 33.2244 51.5555 33.2177H50.1333V35.8172V35.8206Z" fill="#1F447A"/>
<path id="Vector_7" d="M62.0377 32.1309L64.275 38.0814L66.509 32.1309H68.2532V39.8927H66.9115V37.3334L67.0457 33.912L64.7547 39.8927H63.7887L61.501 33.9187L61.6352 37.3367V39.8961H60.2935V32.1342H62.0411L62.0377 32.1309Z" fill="#1F447A"/>
<path id="Vector_8" d="M78.8864 38.0848H75.8809L75.2503 39.8928H73.8482L76.7799 32.1309H77.9908L80.9291 39.8928H79.5203L78.8864 38.0848ZM76.2599 36.998H78.5107L77.387 33.7779L76.2633 36.998H76.2599ZM77.7895 30.0513H79.2654L77.7895 31.6647H76.7497L77.7895 30.0513Z" fill="#1F447A"/>
<path id="Vector_9" d="M92.109 33.2177H89.6906V39.8927H88.3522V33.2177H85.9539V32.1309H92.1124V33.2177H92.109Z" fill="#1F447A"/>
<path id="Vector_10" d="M99.247 39.8927H97.9052V32.1309H99.247V39.8927Z" fill="#1F447A"/>
<path id="Vector_11" d="M111.52 37.3671C111.443 38.1956 111.138 38.8396 110.605 39.3059C110.071 39.7721 109.364 40.0002 108.478 40.0002C107.861 40.0002 107.314 39.8526 106.844 39.5608C106.375 39.269 106.009 38.8497 105.754 38.3096C105.499 37.7696 105.365 37.1423 105.355 36.4279V35.7033C105.355 34.9721 105.486 34.3247 105.744 33.7679C106.003 33.2111 106.375 32.7784 106.861 32.4765C107.348 32.1746 107.908 32.0237 108.542 32.0237C109.397 32.0237 110.088 32.2551 110.611 32.718C111.135 33.1809 111.436 33.8384 111.524 34.687H110.182C110.118 34.1302 109.957 33.7277 109.696 33.4794C109.434 33.2312 109.052 33.1105 108.548 33.1105C107.961 33.1105 107.512 33.3251 107.197 33.7545C106.881 34.1838 106.72 34.8111 106.714 35.6396V36.3272C106.714 37.1658 106.865 37.8065 107.163 38.2493C107.462 38.692 107.904 38.9101 108.481 38.9101C109.011 38.9101 109.41 38.7893 109.675 38.5511C109.94 38.313 110.112 37.9172 110.182 37.3637H111.524L111.52 37.3671Z" fill="#1F447A"/>
<path id="Vector_12" d="M121.764 38.0847H118.759L118.128 39.8927H116.726L119.658 32.1309H120.869L123.807 39.8927H122.398L121.764 38.0847ZM119.138 36.9979H121.389L120.265 33.7778L119.141 36.9979H119.138Z" fill="#1F447A"/>
</g>
<path id="Vector_13" d="M42.8512 24.3589L35.6394 15.9832C39.7417 14.504 41.7946 12.1124 41.7946 8.81174C41.7946 6.09476 40.2315 3.94465 37.1052 2.36813C33.979 0.78826 29.7392 0 24.3857 0H16.9191V5.13543C16.9191 5.43732 17.1639 5.68218 17.4658 5.68218H23.9698C25.6134 5.68218 26.9451 7.01384 26.9451 8.65744V8.74465C26.9451 10.3883 25.6134 11.7199 23.9698 11.7199H17.4658C17.1639 11.7199 16.9191 11.9648 16.9191 12.2667V17.3686H20.7497L25.9086 24.5769C26.3782 25.1841 27.1967 25.486 28.3707 25.486H41.6772C42.0294 25.486 42.3312 25.4088 42.5862 25.2478C42.8411 25.0901 42.9686 24.9258 42.9686 24.7547C42.9686 24.5836 42.9283 24.4528 42.8512 24.3556V24.3589Z" fill="#1F447A"/>
<path id="Vector_14" d="M23.9665 6.77233H16.3723C16.0704 6.77233 15.8256 6.52746 15.8256 6.22558V0H1.58323C1.15388 0 0.781551 0.0972746 0.469602 0.291824C0.154298 0.486373 0 0.71782 0 0.982809V24.5031C0 24.7715 0.154298 24.9996 0.469602 25.1941C0.781551 25.3887 1.15388 25.486 1.58323 25.486H14.2457C14.6751 25.486 15.0474 25.3887 15.3593 25.1941C15.6713 24.9996 15.8289 24.7681 15.8289 24.5031V11.1732C15.8289 10.8713 16.0738 10.6264 16.3757 10.6264H23.9698C25.0096 10.6264 25.8516 9.78449 25.8516 8.74465V8.65744C25.8516 7.61761 25.0096 6.77568 23.9698 6.77568L23.9665 6.77233Z" fill="#799DD2"/>
<path id="Vector_15" d="M82.6197 2.51237C79.3761 0.838574 74.9786 0 69.4306 0H62.8428V5.13543C62.8428 5.43732 63.0876 5.68218 63.3895 5.68218H69.8935C71.5371 5.68218 72.8688 7.01384 72.8688 8.65744V8.74465C72.8688 10.3883 71.5371 11.7199 69.8935 11.7199H63.3895C63.0876 11.7199 62.8428 11.9648 62.8428 12.2667V17.5161H69.4306C75.995 17.5161 80.6474 16.7447 83.3811 15.205C86.1149 13.6654 87.4834 11.5824 87.4834 8.95933C87.4834 6.33627 85.86 4.18952 82.6164 2.51572L82.6197 2.51237Z" fill="#1F447A"/>
<path id="Vector_16" d="M69.8901 6.77233H62.296C61.9941 6.77233 61.7493 6.52746 61.7493 6.22558V0H47.5036C47.0742 0 46.7019 0.0972746 46.3899 0.291824C46.078 0.486373 45.9203 0.71782 45.9203 0.982809V24.5031C45.9203 24.7715 46.0746 24.9996 46.3899 25.1941C46.7019 25.3887 47.0742 25.486 47.5036 25.486H60.166C60.5954 25.486 60.9677 25.3887 61.2797 25.1941C61.5916 24.9996 61.7493 24.7681 61.7493 24.5031V11.1732C61.7493 10.8713 61.9941 10.6264 62.296 10.6264H69.8901C70.93 10.6264 71.7719 9.78449 71.7719 8.74465V8.65744C71.7719 7.61761 70.93 6.77568 69.8901 6.77568V6.77233Z" fill="#799DD2"/>
</g>
<defs>
<clipPath id="clip0_902_2742">
<rect width="134.172" height="40" fill="white"/>
</clipPath>
</defs>
</svg>
