<svg width="43" height="38" viewBox="0 0 43 38" fill="none" xmlns="http://www.w3.org/2000/svg">
<g id="3 User">
<path id="Rectangle 23 (Stroke)" fill-rule="evenodd" clip-rule="evenodd" d="M29.1475 23.9443C28.9017 23.9261 28.4866 23.9546 27.3046 24.0488C25.3176 24.2071 23.1136 24.3333 21.1245 24.3333C19.3376 24.3333 17.4582 24.2315 15.7452 24.0961C14.5367 24.0005 14.1058 23.9707 13.8713 23.9866C12.1737 24.1014 10.9669 25.1393 10.5993 26.8006C10.5483 27.0312 10.5176 27.404 10.4408 28.4794C10.3584 29.6322 10.3328 30.0496 10.359 30.3724C10.5315 32.4961 12.1398 34.2233 14.2457 34.5467C14.5658 34.5958 14.984 34.6 16.1397 34.6H26.8062C28.0143 34.6 28.4513 34.5954 28.7857 34.5417C30.866 34.2076 32.4533 32.5028 32.6384 30.404C32.6681 30.0667 32.6415 29.6305 32.5554 28.4255C32.4783 27.3454 32.4474 26.9746 32.3923 26.7333C32.0231 25.1159 30.802 24.0663 29.1475 23.9443ZM27.2436 21.2448C28.2055 21.1679 28.8612 21.1155 29.3535 21.1518C32.2343 21.3644 34.4792 23.2939 35.1221 26.1101C35.2319 26.5911 35.2753 27.2007 35.3381 28.0829C35.3414 28.1298 35.3448 28.1775 35.3483 28.226C35.3516 28.2727 35.3549 28.3187 35.3582 28.3641C35.431 29.3808 35.4796 30.0597 35.4276 30.65C35.1298 34.0263 32.5763 36.7688 29.2297 37.3063C28.6447 37.4003 27.964 37.4002 26.9447 37.4C26.8992 37.4 26.8531 37.4 26.8062 37.4H16.1397C16.0949 37.4 16.0507 37.4 16.0072 37.4C15.0321 37.4001 14.3809 37.4003 13.8207 37.3142C10.4329 36.794 7.84572 34.0154 7.56818 30.5992C7.52228 30.0342 7.56879 29.3848 7.63843 28.4121C7.64154 28.3687 7.64469 28.3246 7.64788 28.2799C7.65138 28.231 7.65481 28.1828 7.65818 28.1355C7.72061 27.2587 7.7635 26.6564 7.86545 26.1956C8.50158 23.3208 10.7446 21.3917 13.6823 21.1929C14.1532 21.1611 14.8157 21.2136 15.7976 21.2914C15.8527 21.2958 15.9088 21.3003 15.9659 21.3048C17.6349 21.4367 19.4357 21.5333 21.1245 21.5333C23.009 21.5333 25.131 21.4131 27.0822 21.2577C27.137 21.2533 27.1907 21.249 27.2436 21.2448Z" fill="white"/>
<path id="Rectangle 24 (Stroke)" fill-rule="evenodd" clip-rule="evenodd" d="M13.1 8.99998C13.1 4.36078 16.8608 0.599976 21.5 0.599976C26.1392 0.599976 29.9 4.36078 29.9 8.99998V9.99998C29.9 14.0869 26.5869 17.4 22.5 17.4H20.5C16.4131 17.4 13.1 14.0869 13.1 9.99998V8.99998ZM21.5 3.39998C18.4072 3.39998 15.9 5.90718 15.9 8.99998V9.99998C15.9 12.5405 17.9595 14.6 20.5 14.6H22.5C25.0405 14.6 27.1 12.5405 27.1 9.99998V8.99998C27.1 5.90718 24.5928 3.39998 21.5 3.39998Z" fill="white"/>
<path id="Vector 21 (Stroke)" fill-rule="evenodd" clip-rule="evenodd" d="M37.2055 21.4669C37.4998 20.752 38.3181 20.411 39.033 20.7054L38.5 22C39.033 20.7054 39.0337 20.7057 39.0344 20.706L39.0359 20.7066L39.039 20.7079L39.0462 20.7109L39.0638 20.7184L39.112 20.7398C39.1497 20.7569 39.1983 20.7798 39.2564 20.8089C39.3723 20.867 39.527 20.9505 39.7072 21.0624C40.0662 21.2853 40.5375 21.6277 41.0088 22.1175C41.9694 23.1157 42.9 24.7013 42.9 27C42.9 29.2987 41.9694 30.8842 41.0088 31.8825C40.5375 32.3723 40.0662 32.7147 39.7072 32.9375C39.527 33.0495 39.3723 33.1329 39.2564 33.1911C39.1983 33.2202 39.1497 33.2431 39.112 33.2602L39.0638 33.2815L39.0462 33.2891L39.039 33.292L39.0359 33.2934L39.0344 33.294C39.0337 33.2943 39.033 33.2945 38.5 32L39.033 33.2945C38.3181 33.5889 37.4998 33.248 37.2055 32.533C36.9128 31.8224 37.2479 31.0097 37.9541 30.7108C37.9521 30.7117 37.9519 30.7118 37.9534 30.7111L37.9554 30.7102L37.9582 30.7091L37.9621 30.7075L37.9641 30.7066M37.965 30.7063C37.9647 30.7064 37.9644 30.7065 37.9641 30.7066L37.9644 30.7065L37.965 30.7063ZM37.965 30.7063C37.9652 30.7062 37.9654 30.7061 37.9657 30.706C37.9657 30.706 37.9657 30.706 37.9657 30.706L37.965 30.7063ZM37.9541 30.7108C37.9545 30.7106 37.9549 30.7104 37.9554 30.7102C37.9617 30.7074 37.9775 30.7001 38.0014 30.688C38.0496 30.6639 38.1293 30.6214 38.2303 30.5588C38.4339 30.4324 38.7125 30.2307 38.9912 29.941C39.5306 29.3805 40.1 28.466 40.1 27C40.1 25.5339 39.5306 24.6195 38.9912 24.0589C38.7125 23.7693 38.4339 23.5676 38.2303 23.4412C38.1293 23.3785 38.0496 23.336 38.0014 23.3119C37.9775 23.2999 37.9617 23.2926 37.9554 23.2897M37.2055 21.4669C36.9128 22.1776 37.2479 22.9903 37.9541 23.2891L37.2055 21.4669ZM37.9541 23.2891C37.9531 23.2887 37.9526 23.2885 37.9524 23.2884C37.9523 23.2883 37.9526 23.2885 37.9534 23.2888L37.9582 23.2909L37.9621 23.2925L37.9644 23.2935L37.9657 23.294" fill="#A8CC33"/>
<path id="Vector 22 (Stroke)" fill-rule="evenodd" clip-rule="evenodd" d="M5.82817 21.5573C5.58366 20.8237 4.79081 20.4273 4.05729 20.6718L4.50001 22C4.05729 20.6718 4.0565 20.6721 4.0557 20.6724L4.05403 20.6729L4.05049 20.6741L4.04253 20.6768L4.02323 20.6836C4.00889 20.6887 3.9916 20.695 3.97156 20.7025C3.93151 20.7177 3.88032 20.738 3.81962 20.764C3.69842 20.8159 3.53792 20.8913 3.35136 20.9949C2.97971 21.2014 2.49417 21.5259 2.01006 22.01C1.01519 23.0049 0.100011 24.6044 0.100011 27C0.100011 29.3956 1.01519 30.9951 2.01006 31.9899C2.49417 32.474 2.97971 32.7986 3.35136 33.0051C3.53792 33.1087 3.69842 33.1841 3.81962 33.236C3.88032 33.262 3.93151 33.2823 3.97156 33.2974C3.9916 33.305 4.00889 33.3113 4.02323 33.3164L4.04253 33.3231L4.05049 33.3259L4.05403 33.3271L4.0557 33.3276C4.0565 33.3279 4.05729 33.3281 4.50001 32L4.05729 33.3281C4.79081 33.5727 5.58366 33.1762 5.82817 32.4427C6.07074 31.715 5.68247 30.9289 4.96003 30.6777C4.95513 30.6759 4.9423 30.6709 4.92259 30.6624C4.87973 30.644 4.80586 30.61 4.71116 30.5574C4.52031 30.4514 4.25585 30.2759 3.98996 30.01C3.48484 29.5049 2.90001 28.6044 2.90001 27C2.90001 25.3956 3.48484 24.4951 3.98996 23.9899C4.25585 23.724 4.52031 23.5486 4.71116 23.4426C4.80586 23.39 4.87973 23.3559 4.92259 23.3376C4.9423 23.3291 4.95512 23.3241 4.96003 23.3223C5.68247 23.0711 6.07074 22.285 5.82817 21.5573Z" fill="#A8CC33"/>
<path id="Vector 23 (Stroke)" fill-rule="evenodd" clip-rule="evenodd" d="M32.1292 2.7158C32.2861 1.9587 33.0271 1.47216 33.7842 1.62909L33.5 2.99995C33.7842 1.62909 33.7848 1.62923 33.7855 1.62938L33.787 1.62969L33.7903 1.63037L33.7979 1.632L33.8176 1.63634L33.8743 1.64957C33.9194 1.66049 33.9792 1.6758 34.0516 1.69619C34.196 1.73687 34.3923 1.79833 34.6235 1.88643C35.0821 2.06119 35.6995 2.34902 36.3245 2.80437C37.6096 3.74075 38.9 5.38008 38.9 7.99995C38.9 10.6198 37.6096 12.2591 36.3245 13.1955C35.6995 13.6509 35.0821 13.9387 34.6235 14.1135C34.3923 14.2016 34.196 14.263 34.0516 14.3037C33.9792 14.3241 33.9194 14.3394 33.8743 14.3503L33.8176 14.3636L33.7979 14.3679L33.7903 14.3695L33.787 14.3702L33.7855 14.3705C33.7848 14.3707 33.7842 14.3708 33.5 13L33.7842 14.3708C33.0271 14.5277 32.2861 14.0412 32.1292 13.2841C31.9729 12.5302 32.4546 11.7924 33.2061 11.6311L33.2156 11.6289C33.229 11.6257 33.2552 11.6191 33.2922 11.6086C33.3666 11.5877 33.4827 11.5518 33.6265 11.497C33.9179 11.386 34.3005 11.2058 34.6756 10.9325C35.3904 10.4116 36.1 9.55098 36.1 7.99995C36.1 6.44893 35.3904 5.58825 34.6756 5.06736C34.3005 4.79408 33.9179 4.61394 33.6265 4.5029C33.4827 4.44811 33.3666 4.41221 33.2922 4.39126C33.2552 4.38083 33.229 4.37425 33.2156 4.37099L33.2061 4.36875C32.4546 4.20751 31.9729 3.46965 32.1292 2.7158Z" fill="#A8CC33"/>
<path id="Vector 24 (Stroke)" fill-rule="evenodd" clip-rule="evenodd" d="M10.8809 2.76919C10.7534 2.00656 10.0319 1.49165 9.26926 1.6191L9.50002 2.99995C9.26926 1.6191 9.26853 1.61922 9.26779 1.61935L9.26622 1.61961L9.26281 1.62019L9.25484 1.62158L9.23442 1.62526L9.1763 1.63656C9.13013 1.64594 9.06923 1.6592 8.99568 1.67718C8.84893 1.71306 8.64975 1.76822 8.41536 1.84969C7.95053 2.01126 7.32445 2.28421 6.69062 2.73331C5.37664 3.66434 4.10002 5.31512 4.10002 7.99994C4.10002 10.6848 5.37664 12.3355 6.69062 13.2666C7.32445 13.7157 7.95053 13.9886 8.41536 14.1502C8.64974 14.2317 8.84893 14.2868 8.99568 14.3227C9.06923 14.3407 9.13013 14.354 9.17629 14.3633L9.23442 14.3746L9.25483 14.3783L9.2628 14.3797L9.26622 14.3803L9.26778 14.3806C9.26852 14.3807 9.26925 14.3808 9.50002 12.9999L9.26925 14.3808C10.0319 14.5082 10.7534 13.9933 10.8809 13.2307C11.0077 12.4716 10.4982 11.7532 9.74136 11.6209C9.74135 11.6209 9.74134 11.6209 9.74133 11.6209C9.73992 11.6206 9.73743 11.6201 9.7339 11.6194C9.72147 11.6169 9.69643 11.6116 9.66061 11.6028C9.58861 11.5852 9.47529 11.5543 9.33468 11.5054C9.04951 11.4063 8.67559 11.2414 8.30942 10.982C7.62339 10.4959 6.90002 9.64664 6.90002 7.99994C6.90002 6.35324 7.62339 5.50402 8.30941 5.01794C8.67559 4.75848 9.04951 4.59359 9.33468 4.49447C9.47529 4.44559 9.58861 4.41469 9.6606 4.39709C9.69643 4.38833 9.72147 4.383 9.7339 4.38047M9.74133 4.379C9.74134 4.379 9.74135 4.37899 9.74135 4.37899C9.74241 4.37879 9.74285 4.37871 9.74267 4.37874L9.7394 4.37933L9.73577 4.37996L9.73345 4.38035" fill="#A8CC33"/>
</g>
</svg>
