<svg width="43" height="44" viewBox="0 0 43 44" fill="none" xmlns="http://www.w3.org/2000/svg">
<g id="Statistics-Monitor">
<path id="Rectangle 93 (Stroke)" fill-rule="evenodd" clip-rule="evenodd" d="M17.4371 0.599976H25.5629C28.3099 0.599968 30.4574 0.599961 32.182 0.740867C33.9361 0.884183 35.3757 1.18021 36.6755 1.8425C38.8205 2.93546 40.5645 4.67944 41.6575 6.82448C42.3197 8.1243 42.6158 9.56389 42.7591 11.318C42.9 13.0426 42.9 15.1901 42.9 17.9371V18.0628C42.9 20.8099 42.9 22.9573 42.7591 24.682C42.6158 26.4361 42.3197 27.8757 41.6575 29.1755C40.5645 31.3205 38.8205 33.0645 36.6755 34.1575C35.3757 34.8197 33.9361 35.1158 32.182 35.2591C30.4573 35.4 28.3099 35.4 25.5628 35.4H17.4371C14.6901 35.4 12.5426 35.4 10.818 35.2591C9.06389 35.1158 7.6243 34.8197 6.32448 34.1575C4.17944 33.0645 2.43546 31.3205 1.3425 29.1755C0.680213 27.8757 0.384183 26.4361 0.240867 24.682C0.0999613 22.9574 0.0999677 20.8099 0.0999757 18.0629V17.9371C0.0999677 15.1901 0.0999613 13.0426 0.240867 11.318C0.384183 9.56389 0.680213 8.1243 1.3425 6.82448C2.43546 4.67944 4.17944 2.93546 6.32448 1.8425C7.6243 1.18021 9.06389 0.884183 10.818 0.740867C12.5426 0.599961 14.6901 0.599968 17.4371 0.599976ZM11.046 3.53157C9.46506 3.66074 8.43496 3.90967 7.59566 4.33732C5.97746 5.16183 4.66183 6.47746 3.83732 8.09566C3.40967 8.93496 3.16074 9.96506 3.03157 11.546C2.90106 13.1433 2.89998 15.1766 2.89998 18C2.89998 20.8233 2.90106 22.8567 3.03157 24.454C3.16074 26.0349 3.40967 27.065 3.83732 27.9043C4.66183 29.5225 5.97746 30.8381 7.59566 31.6626C8.43496 32.0903 9.46506 32.3392 11.046 32.4684C12.6433 32.5989 14.6766 32.6 17.5 32.6H25.5C28.3233 32.6 30.3567 32.5989 31.954 32.4684C33.5349 32.3392 34.565 32.0903 35.4043 31.6626C37.0225 30.8381 38.3381 29.5225 39.1626 27.9043C39.5903 27.065 39.8392 26.0349 39.9684 24.454C40.0989 22.8567 40.1 20.8233 40.1 18C40.1 15.1766 40.0989 13.1433 39.9684 11.546C39.8392 9.96506 39.5903 8.93496 39.1626 8.09566C38.3381 6.47746 37.0225 5.16183 35.4043 4.33732C34.565 3.90967 33.5349 3.66074 31.954 3.53157C30.3567 3.40106 28.3233 3.39998 25.5 3.39998H17.5C14.6766 3.39998 12.6433 3.40106 11.046 3.53157Z" fill="white"/>
<path id="Vector 11 (Stroke)" fill-rule="evenodd" clip-rule="evenodd" d="M21.5 32.6C22.2732 32.6 22.9 33.2268 22.9 34V38.0298L29.9916 40.6891C30.6253 40.9268 30.9983 41.5838 30.8775 42.2498C30.7568 42.9158 30.1768 43.4 29.5 43.4H13.5C12.8231 43.4 12.2432 42.9158 12.1225 42.2498C12.0017 41.5838 12.3747 40.9268 13.0084 40.6891L20.1 38.0298V34C20.1 33.2268 20.7268 32.6 21.5 32.6Z" fill="white"/>
<path id="Vector 10 (Stroke)" fill-rule="evenodd" clip-rule="evenodd" d="M17.51 15.01C18.022 14.498 18.84 14.4609 19.3962 14.9245L24.4141 19.106L28.51 15.01C29.0568 14.4633 29.9432 14.4633 30.4899 15.01C31.0367 15.5568 31.0367 16.4432 30.4899 16.9899L25.4899 21.9899C24.9779 22.5019 24.16 22.539 23.6037 22.0755L18.5859 17.894L14.4899 21.9899C13.9432 22.5367 13.0568 22.5367 12.51 21.9899C11.9633 21.4432 11.9633 20.5568 12.51 20.01L17.51 15.01Z" fill="#A8CC33"/>
</g>
</svg>
