<svg width="38" height="44" viewBox="0 0 38 44" fill="none" xmlns="http://www.w3.org/2000/svg">
<g id="Note">
<path id="Vector 3 (Stroke)" fill-rule="evenodd" clip-rule="evenodd" d="M1.5 14.6L3.97059 14.6C6.80865 14.6 8.83182 14.5983 10.4012 14.4387C11.9472 14.2814 12.8968 13.9825 13.6374 13.4877C14.358 13.0062 14.9768 12.3874 15.4583 11.6668C15.9531 10.9263 16.252 9.97663 16.4092 8.43064C16.5689 6.86125 16.5706 4.83809 16.5706 2.00002L19.3706 2.00003L19.3706 2.07815C19.3706 4.82089 19.3706 6.9864 19.1949 8.71402C19.0151 10.4814 18.6398 11.9451 17.7864 13.2224C17.1006 14.2488 16.2193 15.13 15.1929 15.8158C13.9157 16.6693 12.452 17.0445 10.6846 17.2243C8.95695 17.4001 6.79142 17.4 4.04865 17.4L1.5 17.4L1.5 14.6Z" fill="white"/>
<path id="Vector 4 (Stroke)" fill-rule="evenodd" clip-rule="evenodd" d="M20.6369 0.599999C20.7039 0.60001 20.7717 0.600022 20.8403 0.600022L22.1835 0.600022C25.1125 0.600004 27.4249 0.59999 29.2632 0.79915C31.1451 1.00304 32.6953 1.42904 34.0252 2.39526C34.8232 2.97505 35.525 3.67683 36.1048 4.47484C37.071 5.80473 37.497 7.35496 37.7009 9.23684C37.9 11.0751 37.9 13.3875 37.9 16.3165V27.6836C37.9 30.6126 37.9 32.925 37.7009 34.7632C37.497 36.6451 37.071 38.1953 36.1048 39.5252C35.525 40.3232 34.8232 41.025 34.0252 41.6048C32.6953 42.571 31.1451 42.997 29.2632 43.2009C27.4249 43.4001 25.1125 43.4 22.1834 43.4H15.8166C12.8875 43.4 10.5751 43.4001 8.73681 43.2009C6.85494 42.997 5.30471 42.571 3.97481 41.6048C3.1768 41.025 2.47502 40.3232 1.89524 39.5252C0.929012 38.1953 0.503013 36.6451 0.299124 34.7632C0.0999638 32.925 0.099978 30.6125 0.0999959 27.6835L0.0999961 20.4231C0.0999961 20.3311 0.0999752 20.2402 0.0999546 20.1503C0.0993296 17.4284 0.0989324 15.6982 0.68595 14.1144C0.879339 13.5926 1.11868 13.0891 1.40114 12.6096C2.25854 11.1544 3.60047 10.0621 5.71144 8.34387C5.78113 8.28715 5.85166 8.22974 5.92303 8.17161L10.8634 4.14848C10.9166 4.10514 10.9692 4.0623 11.0211 4.01997C12.6154 2.72124 13.6288 1.89563 14.8167 1.3793C15.2096 1.20849 15.6137 1.06475 16.0263 0.949078C17.2734 0.599405 18.5806 0.599636 20.6369 0.599999ZM20.8403 3.40002C18.5127 3.40002 17.6134 3.41204 16.7822 3.6451C16.4926 3.72632 16.2088 3.82724 15.9329 3.94717C15.1412 4.29133 14.4363 4.84985 12.6314 6.31964L7.6911 10.3428C5.29609 12.2931 4.38462 13.0617 3.81357 14.031C3.61524 14.3676 3.44719 14.7212 3.31141 15.0875C2.92044 16.1424 2.9 17.3345 2.9 20.4231V27.6C2.9 30.631 2.90192 32.7918 3.08283 34.4616C3.26091 36.1053 3.59884 37.1064 4.16048 37.8794C4.56757 38.4397 5.06031 38.9324 5.62061 39.3395C6.39364 39.9012 7.39477 40.2391 9.03841 40.4172C10.7083 40.5981 12.869 40.6 15.9 40.6H22.1C25.131 40.6 27.2917 40.5981 28.9616 40.4172C30.6052 40.2391 31.6063 39.9012 32.3794 39.3395C32.9397 38.9324 33.4324 38.4397 33.8395 37.8794C34.4011 37.1064 34.7391 36.1053 34.9172 34.4616C35.0981 32.7918 35.1 30.631 35.1 27.6V16.4C35.1 13.3691 35.0981 11.2083 34.9172 9.53844C34.7391 7.89479 34.4011 6.89367 33.8395 6.12064C33.4324 5.56033 32.9397 5.0676 32.3794 4.66051C31.6063 4.09887 30.6052 3.76094 28.9616 3.58286C27.2917 3.40194 25.131 3.40002 22.1 3.40002H20.8403Z" fill="white"/>
<path id="Line 11 (Stroke)" fill-rule="evenodd" clip-rule="evenodd" d="M29.5 33.4C29.5 34.1732 28.8732 34.8 28.1 34.8L10.9 34.8C10.1268 34.8 9.5 34.1732 9.5 33.4C9.5 32.6268 10.1268 32 10.9 32L28.1 32C28.8732 32 29.5 32.6268 29.5 33.4Z" fill="#A8CC33"/>
<path id="Line 12 (Stroke)" fill-rule="evenodd" clip-rule="evenodd" d="M23.5 25.4C23.5 26.1732 22.8732 26.8 22.1 26.8L10.9 26.8C10.1268 26.8001 9.5 26.1732 9.5 25.4001C9.5 24.6269 10.1268 24.0001 10.9 24L22.1 24C22.8732 24 23.5 24.6269 23.5 25.4Z" fill="#A8CC33"/>
</g>
</svg>
