<svg width="43" height="44" viewBox="0 0 43 44" fill="none" xmlns="http://www.w3.org/2000/svg">
<g id="Dollars">
<path id="Rectangle 182 (Stroke)" fill-rule="evenodd" clip-rule="evenodd" d="M0.0999756 22C0.0999756 10.1811 9.68108 0.599976 21.5 0.599976C33.3189 0.599976 42.9 10.1811 42.9 22C42.9 33.8189 33.3189 43.4 21.5 43.4C9.68108 43.4 0.0999756 33.8189 0.0999756 22ZM21.5 3.39998C11.2275 3.39998 2.89998 11.7275 2.89998 22C2.89998 32.2725 11.2275 40.6 21.5 40.6C31.7725 40.6 40.1 32.2725 40.1 22C40.1 11.7275 31.7725 3.39998 21.5 3.39998Z" fill="white"/>
<path id="Line 61 (Stroke)" fill-rule="evenodd" clip-rule="evenodd" d="M21.5 12.6C22.2732 12.6 22.9 13.2268 22.9 14V30C22.9 30.7732 22.2732 31.4 21.5 31.4C20.7268 31.4 20.1 30.7732 20.1 30V14C20.1 13.2268 20.7268 12.6 21.5 12.6Z" fill="#A8CC33"/>
<path id="Vector 29 (Stroke)" fill-rule="evenodd" clip-rule="evenodd" d="M17.6425 16.0099C18.6449 15.0701 20.0079 14.6 21.5 14.6C22.9921 14.6 24.3551 15.0701 25.3575 16.0099C26.3681 16.9573 26.9 18.2786 26.9 19.75C26.9 20.5232 26.2732 21.15 25.5 21.15C24.7268 21.15 24.1 20.5232 24.1 19.75C24.1 18.9714 23.8319 18.4176 23.4425 18.0526C23.0449 17.6799 22.4079 17.4 21.5 17.4C20.5921 17.4 19.9551 17.6799 19.5575 18.0526C19.1681 18.4176 18.9 18.9714 18.9 19.75C18.9 19.9515 18.9473 20.0263 18.9733 20.0618C19.0132 20.1163 19.1113 20.2137 19.3514 20.328C19.8886 20.5835 20.6668 20.7227 21.7385 20.9081C21.7532 20.9106 21.7679 20.9132 21.7827 20.9157C22.7211 21.0779 23.928 21.2865 24.8905 21.7818C25.408 22.0481 25.9269 22.4301 26.3127 22.9956C26.7077 23.5745 26.9 24.2535 26.9 25C26.9 26.795 25.7958 27.9398 24.6863 28.5639C23.6117 29.1684 22.3678 29.4 21.5 29.4C20.5141 29.4 19.2588 28.9927 18.2537 28.3595C17.2821 27.7474 16.1 26.6299 16.1 25C16.1 24.2268 16.7268 23.6 17.5 23.6C18.2732 23.6 18.9 24.2268 18.9 25C18.9 25.17 19.0512 25.5526 19.7462 25.9904C20.4078 26.4072 21.1525 26.6 21.5 26.6C21.9655 26.6 22.7216 26.4565 23.3136 26.1235C23.8708 25.8101 24.1 25.455 24.1 25C24.1 24.7507 24.0423 24.636 23.9998 24.5737C23.9481 24.4979 23.842 24.3912 23.6094 24.2715C23.0871 24.0028 22.317 23.8497 21.2614 23.6671C21.2083 23.6579 21.1542 23.6487 21.0993 23.6392C20.1942 23.4837 19.0563 23.2883 18.1485 22.8564C17.6387 22.6139 17.1117 22.2589 16.7141 21.7159C16.3026 21.1539 16.1 20.4859 16.1 19.75C16.1 18.2786 16.6319 16.9573 17.6425 16.0099Z" fill="#A8CC33"/>
</g>
</svg>
