<svg width="166" height="32" viewBox="0 0 166 32" fill="none" xmlns="http://www.w3.org/2000/svg">
<g id="intelbras" clip-path="url(#clip0_980_3427)">
<g id="g30">
<g id="g28">
<g id="g26">
<g id="g24">
<g id="g22">
<path id="path2" d="M132.085 7.63745C125.414 7.63745 120.006 13.0916 120.006 19.8187C120.006 26.545 125.414 31.9992 132.085 31.9992C134.287 31.9992 136.35 31.4031 138.127 30.3659V32H144.166V19.8185C144.165 13.0908 138.757 7.63745 132.085 7.63745ZM138.124 19.8185V19.8789C138.092 23.2145 135.401 25.9088 132.085 25.9088C128.749 25.9088 126.045 23.1824 126.045 19.8185C126.045 16.4551 128.749 13.727 132.085 13.727C135.421 13.727 138.124 16.4551 138.124 19.8185Z" fill="#00A335"/>
<path id="path4" d="M45.1614 25.4482C44.5501 25.7424 43.867 25.9102 43.144 25.9102C40.5503 25.9102 38.4468 23.7892 38.4468 21.1731L38.4481 13.7291L43.02 13.7281C43.02 13.727 43.777 11.0436 43.777 7.6385L38.4481 7.63956V0.51355C35.0704 0.51355 32.4073 1.41345 32.4073 1.41345C32.4073 1.41345 32.4089 5.07345 32.4081 7.63769L32.4073 21.16C32.4073 21.1646 32.4073 21.1689 32.4073 21.1731C32.4073 27.1518 37.2145 31.9997 43.1437 31.9997C45.1733 31.9997 47.0701 31.4301 48.6895 30.4425C47.1811 29.0652 45.9692 27.364 45.1614 25.4482Z" fill="#00A335"/>
<path id="path6" d="M122.603 9.19465C120.984 8.20764 119.087 7.63745 117.056 7.63745C111.128 7.63745 106.32 12.4857 106.32 18.4638C106.32 18.4686 106.321 18.4726 106.321 18.4769V31.9995H112.36L112.36 18.4638C112.36 15.8483 114.463 13.727 117.056 13.727C117.78 13.727 118.463 13.8946 119.075 14.189C119.883 12.2727 121.095 10.572 122.603 9.19465Z" fill="#00A335"/>
<path id="path8" d="M3.59341 0C1.7697 0 0.291504 1.49093 0.291504 3.32921C0.291504 5.1691 1.7697 6.66003 3.59341 6.66003C5.41764 6.66003 6.89584 5.1691 6.89584 3.32921C6.89584 1.49093 5.41764 0 3.59341 0Z" fill="#00A335"/>
<path id="path10" d="M19.6284 7.63818C13.6991 7.63818 8.89148 12.4856 8.89148 18.4643C8.89148 18.4683 8.89201 18.4726 8.89201 18.4768V32H14.9315V18.4643C14.9315 15.8482 17.0347 13.7272 19.6286 13.7272C22.2236 13.7272 24.3261 15.8482 24.3261 18.4643V32H30.3658V18.4643C30.3658 12.4856 25.5586 7.63818 19.6284 7.63818Z" fill="#00A335"/>
<path id="path12" d="M0.57373 32.0001H6.61344V7.63855C3.23523 7.63855 0.57373 8.53845 0.57373 8.53845V32.0001Z" fill="#00A335"/>
<path id="path14" d="M71.735 31.9995H77.775V0.51355C74.4701 0.514619 71.8479 1.37551 71.7405 1.41158L71.735 31.9995Z" fill="#00A335"/>
<path id="path16" d="M92.2949 7.63743C90.0944 7.63743 88.0333 8.2338 86.2568 9.27104L86.2552 0.51355C82.9456 0.514619 80.3193 1.37818 80.2202 1.41158C80.2202 1.41158 80.2152 19.8043 80.2152 19.8187C80.2152 26.545 85.6243 31.9992 92.2946 31.9992C98.9673 31.9992 104.375 26.545 104.375 19.8187C104.375 13.0916 98.9673 7.63743 92.2949 7.63743ZM92.2949 25.9088C88.9596 25.9088 86.2552 23.1816 86.2552 19.8184L86.2568 19.773C86.2812 16.4297 88.9747 13.7275 92.2949 13.7275C95.6318 13.7275 98.3357 16.4545 98.3357 19.8184C98.3357 23.1816 95.6315 25.9088 92.2949 25.9088Z" fill="#00A335"/>
<path id="path18" d="M69.901 22.7033C66.7859 21.4558 64.0618 21.3655 64.0618 21.3655C63.3056 24.2987 60.4844 26.2717 57.4289 25.8655C56.7426 25.775 56.0988 25.5695 55.513 25.2734L69.1739 14.7025C67.4901 11.0497 64.0473 8.31662 59.7942 7.75178C53.1819 6.87405 47.1167 11.5678 46.2461 18.2353C45.3754 24.9031 50.0302 31.0197 56.6414 31.8974C62.7511 32.7089 68.3918 28.5684 69.901 22.7033ZM52.2267 19.03C52.6625 15.6927 55.6982 13.3441 59.0062 13.7831C59.6924 13.8742 60.3363 14.08 60.9221 14.3757L52.2982 21.0489C52.1665 20.4017 52.1363 19.7225 52.2267 19.03Z" fill="#00A335"/>
<path id="path20" d="M157.769 17.1871L153.796 17.1831C152.85 17.1831 152.082 16.4096 152.082 15.4546C152.082 14.5008 152.849 13.727 153.796 13.727H162.473C162.508 13.6182 163.362 10.9947 163.363 7.66279C163.363 7.66279 153.966 7.66199 153.387 7.66199C149.331 7.66199 146.043 10.9778 146.043 15.0686C146.043 19.1593 149.331 22.4783 153.387 22.4783H157.361C158.307 22.4783 159.075 23.2521 159.075 24.2065C159.075 25.1609 158.307 25.9345 157.361 25.9345H147.518C147.482 26.0429 146.628 28.6668 146.628 31.9989C146.628 31.9989 157.624 31.9994 157.77 31.9994C161.826 31.9994 165.115 28.6841 165.115 24.5929C165.114 20.503 161.826 17.1871 157.769 17.1871Z" fill="#00A335"/>
</g>
</g>
</g>
</g>
</g>
</g>
<defs>
<clipPath id="clip0_980_3427">
<rect width="164.823" height="32" fill="white" transform="translate(0.291504)"/>
</clipPath>
</defs>
</svg>
