<svg width="150" height="32" viewBox="0 0 150 32" fill="none" xmlns="http://www.w3.org/2000/svg">
<g clip-path="url(#clip0_980_3407)">
<path d="M43.9461 12.4945C47.0404 12.4945 49.0379 14.1004 49.978 16.8029H54.5997C53.4639 11.672 49.3904 8.46021 43.9461 8.46021C37.4443 8.46021 32.5483 13.5128 32.5483 20.1322C32.5483 26.7515 37.4443 31.6475 43.9461 31.6475C49.3904 31.6475 53.3464 28.2791 54.5997 23.3048H49.978C49.0379 25.8507 47.0012 27.6132 43.9461 27.6132C39.6769 27.6132 37.0135 24.5581 37.0135 20.1713C37.0526 15.7454 39.6769 12.4945 43.9461 12.4945Z" fill="#1F447A"/>
<path d="M63.0208 10.967H62.825L62.59 8.77357H58.7124V31.7258H63.0208V17.1946C63.0208 14.1395 65.3709 12.4553 68.4651 12.4553C69.131 12.4553 69.2876 12.4945 69.2876 12.4945V8.30356C69.2876 8.30356 69.0135 8.22522 68.4651 8.22522C67.1334 8.22522 64.705 8.77357 63.0208 10.967Z" fill="#1F447A"/>
<path d="M109.278 8.22522C105.439 8.22522 103.089 9.87026 102.071 10.967H101.875L101.64 8.77357H97.7625V31.7258H102.071V17.273C102.071 14.0612 104.969 12.377 108.534 12.377C111.589 12.377 113.782 13.9045 113.782 17.0771V31.7258H118.091V16.8029C118.051 10.4578 113.586 8.22522 109.278 8.22522Z" fill="#1F447A"/>
<path d="M127.922 8.77356H123.613V31.7258H127.922V8.77356Z" fill="#1F447A"/>
<path d="M81.978 8.46021C75.437 8.46021 70.4627 13.4345 70.4627 20.0538C70.4627 26.6732 75.3978 31.6475 81.978 31.6475C88.519 31.6475 93.4933 26.6732 93.4933 20.0538C93.4933 13.4345 88.519 8.46021 81.978 8.46021ZM81.978 27.4957C77.7087 27.4957 74.967 24.3623 74.967 20.0538C74.967 15.7454 77.7087 12.5336 81.978 12.5336C86.2473 12.5336 88.989 15.7454 88.989 20.0538C88.989 24.3623 86.2473 27.4957 81.978 27.4957Z" fill="#1F447A"/>
<path d="M141.826 17.7821C137.557 16.8421 137.753 15.7846 137.753 14.8446C137.753 13.7087 139.006 12.2987 141.082 12.2987C142.805 12.2987 144.646 13.1603 144.646 16.0588H148.798C148.955 11.3586 145.86 8.49939 141.082 8.49939C136.852 8.49939 133.444 11.437 133.444 15.0404C133.444 19.5838 137.048 20.9939 140.965 21.8556C145.116 22.7564 145.469 24.049 145.469 24.9498C145.469 26.6732 143.706 28.1616 141.239 28.1616C139.476 28.1616 136.774 27.0649 136.774 23.7356H132.622C132.348 28.9841 136.147 32 141.239 32C146.056 32 149.856 28.9058 149.856 24.7931C149.816 20.093 145.704 18.6047 141.826 17.7821Z" fill="#1F447A"/>
<path d="M14.2962 0L0 31.7258H4.58262L7.36353 25.3415H25.1457L27.9266 31.7258H32.47L18.2521 0H14.2962ZM16.1763 5.40514H16.3721L16.6071 5.99266L20.6414 15.2362H11.907L15.9412 5.99266L16.1763 5.40514ZM8.9694 21.7381L10.3011 18.7613H22.2081L23.5398 21.7381H8.9694Z" fill="#1F447A"/>
</g>
<defs>
<clipPath id="clip0_980_3407">
<rect width="149.856" height="32" fill="white"/>
</clipPath>
</defs>
</svg>
