<svg width="152" height="32" viewBox="0 0 152 32" fill="none" xmlns="http://www.w3.org/2000/svg">
<g clip-path="url(#clip0_980_3420)">
<path d="M151.291 14.4769V11.8423H147.999V7.74632L147.888 7.78023L144.795 8.72048L144.734 8.73889V11.8424H139.853V10.1135C139.853 9.30843 140.034 8.69237 140.391 8.28151C140.746 7.87559 141.253 7.66922 141.9 7.66922C142.365 7.66922 142.846 7.77805 143.331 7.99268L143.452 8.04659V5.27191L143.395 5.25105C142.943 5.0896 142.328 5.0083 141.566 5.0083C140.606 5.0083 139.733 5.21597 138.972 5.62755C138.211 6.03971 137.612 6.6281 137.192 7.37618C136.774 8.1234 136.562 8.98641 136.562 9.94145V11.8423H134.269V14.4769H136.562V25.5764H139.853V14.4769H144.734V21.5304C144.734 24.4354 146.113 25.9075 148.833 25.9075C149.28 25.9075 149.75 25.8555 150.23 25.7536C150.719 25.649 151.052 25.5445 151.248 25.4329L151.292 25.4074V22.7484L151.158 22.8363C150.979 22.9546 150.757 23.0513 150.496 23.1231C150.234 23.1963 150.015 23.233 149.846 23.233C149.209 23.233 148.737 23.0624 148.445 22.7258C148.149 22.3861 147.999 21.792 147.999 20.961V14.4769H151.291ZM126.919 23.2334C125.724 23.2334 124.782 22.8398 124.118 22.0645C123.451 21.2852 123.112 20.1743 123.112 18.7627C123.112 17.3064 123.451 16.1666 124.119 15.3736C124.783 14.5858 125.716 14.1859 126.892 14.1859C128.033 14.1859 128.942 14.5678 129.592 15.3215C130.246 16.0792 130.578 17.2099 130.578 18.6832C130.578 20.1746 130.266 21.3202 129.651 22.0865C129.039 22.8471 128.12 23.2334 126.919 23.2334ZM127.065 11.5114C124.786 11.5114 122.976 12.175 121.685 13.4838C120.395 14.7927 119.741 16.6041 119.741 18.8681C119.741 21.0184 120.379 22.7481 121.639 24.0082C122.898 25.2687 124.612 25.9072 126.732 25.9072C128.941 25.9072 130.715 25.2344 132.005 23.9075C133.295 22.582 133.949 20.7877 133.949 18.5766C133.949 16.3927 133.336 14.6501 132.126 13.3984C130.915 12.1462 129.212 11.5114 127.065 11.5114ZM114.434 11.5114C112.884 11.5114 111.602 11.9054 110.622 12.6824C109.636 13.4639 109.136 14.489 109.136 15.7294C109.136 16.3741 109.244 16.9468 109.457 17.4326C109.67 17.92 110.001 18.3491 110.44 18.7092C110.876 19.0665 111.549 19.4407 112.441 19.8214C113.19 20.1279 113.749 20.3872 114.105 20.5915C114.452 20.7918 114.698 20.9931 114.837 21.1892C114.972 21.381 115.041 21.6436 115.041 21.9677C115.041 22.8904 114.346 23.3394 112.915 23.3394C112.384 23.3394 111.778 23.2292 111.115 23.0121C110.457 22.7983 109.835 22.4852 109.273 22.0838L109.136 21.9864V25.1351L109.186 25.1583C109.652 25.3719 110.239 25.552 110.931 25.6938C111.622 25.8356 112.249 25.9078 112.795 25.9078C114.477 25.9078 115.832 25.5119 116.82 24.7303C117.815 23.9434 118.319 22.8942 118.319 21.6109C118.319 20.6851 118.048 19.8912 117.513 19.251C116.982 18.6159 116.059 18.0329 114.773 17.5175C113.748 17.1089 113.092 16.7696 112.821 16.5092C112.56 16.2576 112.427 15.9018 112.427 15.4512C112.427 15.0518 112.591 14.7319 112.927 14.4727C113.266 14.2123 113.737 14.0799 114.328 14.0799C114.876 14.0799 115.437 14.1659 115.995 14.3346C116.553 14.5033 117.043 14.7292 117.451 15.0056L117.586 15.0969V12.1101L117.534 12.088C117.157 11.9273 116.66 11.7898 116.056 11.6782C115.454 11.5673 114.909 11.5114 114.434 11.5114ZM100.556 23.2334C99.3616 23.2334 98.4194 22.8398 97.7558 22.0645C97.0878 21.2852 96.75 20.1746 96.75 18.7627C96.75 17.3064 97.0883 16.1666 97.7565 15.3736C98.4201 14.5858 99.3528 14.1859 100.53 14.1859C101.67 14.1859 102.579 14.5678 103.23 15.3215C103.884 16.0792 104.216 17.2099 104.216 18.6832C104.216 20.1746 103.903 21.3202 103.288 22.0865C102.677 22.8471 101.758 23.2334 100.556 23.2334ZM100.703 11.5114C98.4229 11.5114 96.6125 12.175 95.3225 13.4838C94.0326 14.7927 93.3782 16.6041 93.3782 18.8681C93.3782 21.0193 94.017 22.7481 95.2762 24.0082C96.5355 25.2687 98.2491 25.9072 100.369 25.9072C102.578 25.9072 104.353 25.2344 105.643 23.9075C106.933 22.582 107.587 20.7877 107.587 18.5766C107.587 16.3927 106.973 14.6501 105.763 13.3984C104.552 12.1462 102.849 11.5114 100.703 11.5114ZM88.382 14.2207V11.8423H85.1308V25.5761H88.382V18.5507C88.382 17.3561 88.6546 16.3747 89.1925 15.6334C89.7235 14.901 90.4312 14.5298 91.2952 14.5298C91.5881 14.5298 91.9168 14.5778 92.2728 14.6727C92.6252 14.7671 92.8804 14.8695 93.0309 14.9774L93.1676 15.0758V11.8188L93.1149 11.7963C92.8122 11.6685 92.3838 11.604 91.8418 11.604C91.0248 11.604 90.2937 11.8649 89.6674 12.3785C89.1177 12.8299 88.7204 13.4489 88.4166 14.2207H88.382ZM79.3084 11.5114C77.8168 11.5114 76.4864 11.8292 75.3548 12.4557C74.2208 13.0837 73.3439 13.9801 72.7472 15.1201C72.1532 16.2573 71.8515 17.5857 71.8515 19.0671C71.8515 20.3647 72.144 21.5555 72.722 22.605C73.3002 23.6563 74.1187 24.4787 75.1548 25.0492C76.1895 25.6188 77.3853 25.9077 78.7093 25.9077C80.2544 25.9077 81.5736 25.6007 82.6313 24.9954L82.674 24.971V22.0113L82.5373 22.1104C82.0582 22.4572 81.5228 22.734 80.9467 22.9334C80.3721 23.1327 79.8482 23.2334 79.3888 23.2334C78.1131 23.2334 77.0889 22.8368 76.3455 22.0548C75.6005 21.2718 75.2228 20.1722 75.2228 18.7887C75.2228 17.3964 75.6167 16.2686 76.3931 15.4365C77.1671 14.6068 78.1931 14.1859 79.4425 14.1859C80.5111 14.1859 81.5524 14.5455 82.5376 15.2556L82.674 15.354V12.2354L82.63 12.2108C82.2592 12.0046 81.7536 11.8343 81.1258 11.7052C80.5007 11.5763 79.8893 11.5114 79.3084 11.5114ZM69.6123 11.8424H66.3611V25.5761H69.6123V11.8424ZM68.02 5.99174C67.4849 5.99174 67.0182 6.17275 66.6347 6.53143C66.2497 6.89113 66.0544 7.34401 66.0544 7.87848C66.0544 8.40455 66.2474 8.84917 66.6287 9.19931C67.0077 9.54842 67.4758 9.72537 68.0201 9.72537C68.5643 9.72537 69.0342 9.54842 69.4176 9.19988C69.8036 8.84917 69.9993 8.4047 69.9993 7.87848C69.9993 7.36271 69.8088 6.91446 69.4335 6.54593C69.0586 6.17811 68.5828 5.99174 68.02 5.99174ZM59.9079 10.8291V25.5761H63.226V6.41216H58.6337L52.7966 20.6466L47.132 6.41216H42.3527V25.5759H45.4708V10.8277H45.5778L51.5595 25.5761H53.9126L59.8009 10.8291H59.9079Z" fill="#706D6E"/>
<path d="M15.8169 15.2059H0.522217V0.00817871H15.8169V15.2059Z" fill="#F1511B"/>
<path d="M32.704 15.2059H17.4096V0.00817871H32.704V15.2059Z" fill="#80CC28"/>
<path d="M15.8165 31.9917H0.522217V16.7942H15.8165V31.9917Z" fill="#00ADEF"/>
<path d="M32.704 31.9917H17.4096V16.7942H32.704V31.9917Z" fill="#FBBC09"/>
</g>
<defs>
<clipPath id="clip0_980_3420">
<rect width="150.769" height="32" fill="white" transform="translate(0.522217)"/>
</clipPath>
</defs>
</svg>
