<svg width="381" height="46" viewBox="0 0 381 46" fill="none" xmlns="http://www.w3.org/2000/svg">
<path d="M246.754 44.229H236.335V1.83447L269.843 1.86199C269.843 1.86199 275.978 1.63382 279.881 5.47807C279.881 5.47807 283.865 8.79463 283.865 16.901V44.2225H273.473V16.1948C273.473 16.1948 273.601 13.336 272.624 12.3328C272.624 12.3328 271.76 11.2431 270.118 11.2431H246.728L246.75 44.2139L246.754 44.229ZM291.106 44.2217V4.5301V1.86613H332.918V11.2874L301.461 11.285V18.4879H323.315V27.5853H301.461V34.8126H333.114V44.2364H291.082L291.106 44.2217ZM218.179 44.2217V4.5301V1.86613H228.554V44.2364H218.179V44.2217ZM350.527 8.62101V7.19358V8.62101ZM347.853 44.2217V11.2752H338.059V1.85395H377.014V11.2752H358.235V44.2217H347.86H347.853ZM186.587 8.62101V7.19358V8.62101ZM183.913 44.2217V11.2752H174.119V1.85395H213.074V11.2752H194.295V44.2217H183.92H183.913ZM152.627 18.4587C155.162 18.4392 156.679 18.4611 157.29 18.0905C157.29 18.0905 158.355 17.5032 158.367 16.2428L158.369 13.4717C158.369 12.2054 157.292 11.6239 157.292 11.6239C156.483 11.1856 155.112 11.2679 151.858 11.2648H131.645V18.458H153.091H152.627V18.4587ZM158.218 44.2217V29.7623C158.218 28.4625 157.128 27.9177 157.128 27.9177C156.636 27.6133 155.165 27.5586 152.998 27.5586H153.501H131.645V44.2193H121.27V4.52766V1.86369H153.655C159.248 1.88074 163.11 2.70087 165.769 5.27523C168.382 7.92945 168.729 11.4019 168.744 15.0155V18.0326C168.778 21.1032 167.159 23.9035 165.229 25.535L165.617 25.7269C166.405 26.1073 166.836 26.6461 166.836 26.6461C168.304 28.5151 168.286 30.1234 168.283 32.1007V44.2298H158.218L158.218 44.2217ZM1.32373 1.85152V4.51792V44.2096H11.6987V27.5634H43.1312V18.4611H11.6987V11.2631H48.2356V1.84178H1.31885L1.32373 1.85152Z" fill="#231F20"/>
<path d="M373.51 36.7288V38.674H375.326C375.818 38.674 376.294 38.54 376.367 37.8124C376.471 36.8477 375.772 36.7288 375.326 36.7288H373.51ZM372.78 36.0896H375.31C376.189 36.0896 377.038 36.254 377.111 37.5292C377.142 38.2597 376.919 38.5247 376.367 38.9416C376.95 39.3129 376.965 39.4013 377.053 40.3812C377.111 41.1239 377.007 41.2427 377.322 41.7326H376.458L376.339 41.0204C376.22 40.3507 376.547 39.3129 375.371 39.3129H373.509V41.7329H372.779V36.0884L372.78 36.0896ZM374.685 34.5312C372.184 34.5312 370.145 36.5645 370.162 39.075C370.162 41.5685 372.186 43.6018 374.702 43.5896C377.206 43.5896 379.245 41.5685 379.245 39.0604C379.245 36.5645 377.205 34.5312 374.687 34.5312M374.702 44.1789C371.859 44.1789 369.564 41.8929 369.564 39.0604C369.551 36.2382 371.859 33.937 374.702 33.937C377.533 33.937 379.841 36.2382 379.841 39.0604C379.841 41.8948 377.533 44.1692 374.702 44.1789Z" fill="#231F20"/>
<path d="M107.005 44.6428C110.375 43.5012 112.998 39.6314 113.628 34.7662V33.3599H96.3491V44.644H107.002L107.005 44.6428ZM113.631 12.6703V11.398C112.968 6.32088 110.151 2.32006 106.558 1.38012H96.3515V12.6691H113.631V12.6703ZM52.8174 33.3611V34.7552C53.4431 39.6253 56.0656 43.502 59.4458 44.644H70.0454V33.3599H52.8174V33.3611ZM59.8879 1.38865C56.3001 2.32907 53.4744 6.33184 52.8174 11.4163V12.6796H70.0454V1.39059H59.8879V1.38865ZM113.643 17.3773H96.3637V28.6663H113.643V17.3773ZM74.7615 44.6501H91.6647V33.366H74.7615V44.6501ZM91.6647 1.37891H74.7615V12.6679H91.6647V1.37891ZM52.832 28.6517H70.0601V17.3627H52.832V28.6517Z" fill="#EE2E24"/>
</svg>
