<svg width="57" height="40" viewBox="0 0 57 40" fill="none" xmlns="http://www.w3.org/2000/svg">
<path id="Vector" d="M50.298 39.761C53.3942 38.7187 55.8038 35.1854 56.3827 30.7432V29.4592H40.5093V39.7621H50.2958L50.298 39.761ZM56.3849 10.5687V9.40703C55.7765 4.77139 53.1878 1.11847 49.8875 0.260267H40.5115V10.5676H56.3849V10.5687ZM0.519531 29.4603V30.7332C1.09434 35.1798 3.5035 38.7193 6.60863 39.7621H16.3458V29.4592H0.519531V29.4603ZM7.01472 0.268049C3.71889 1.1267 1.12306 4.7814 0.519531 9.4237V10.5772H16.3458V0.269827H7.01472V0.268049ZM56.3961 14.8664H40.5227V25.1737H56.3961V14.8664ZM20.6782 39.7676H36.2061V29.4647H20.6782V39.7676ZM36.2061 0.259155H20.6782V10.5665H36.2061V0.259155ZM0.532994 25.1604H16.3593V14.8531H0.532994V25.1604Z" fill="#EE2E24"/>
</svg>
