<svg width="32" height="32" viewBox="0 0 32 32" fill="none" xmlns="http://www.w3.org/2000/svg">
<g id="favicon">
<g id="Group 5">
<path id="Vector" d="M31.6708 24.5523L26.3407 18.3672C29.3727 17.2748 30.8899 15.5087 30.8899 13.0713C30.8899 11.065 29.7347 9.47718 27.4241 8.31298C25.1136 7.14631 21.98 6.56421 18.0233 6.56421H12.5048V10.3565C12.5048 10.5795 12.6857 10.7603 12.9089 10.7603H17.7159C18.9306 10.7603 19.9149 11.7437 19.9149 12.9574V13.0218C19.9149 14.2355 18.9306 15.2189 17.7159 15.2189H12.9089C12.6857 15.2189 12.5048 15.3997 12.5048 15.6227V19.3902H15.3359L19.1488 24.7133C19.4959 25.1617 20.1008 25.3846 20.9685 25.3846H30.8032C31.0635 25.3846 31.2866 25.3276 31.475 25.2087C31.6634 25.0923 31.7576 24.9709 31.7576 24.8446C31.7576 24.7183 31.7279 24.6217 31.6708 24.5498V24.5523Z" fill="#1F447A"/>
<path id="Vector_2" d="M17.7133 11.5653H12.1006C11.8775 11.5653 11.6965 11.3845 11.6965 11.1616V6.56421H1.17015C0.852818 6.56421 0.577635 6.63604 0.347077 6.77971C0.11404 6.92338 0 7.09429 0 7.28998V24.6588C0 24.857 0.11404 25.0254 0.347077 25.1691C0.577635 25.3128 0.852818 25.3846 1.17015 25.3846H10.5288C10.8462 25.3846 11.1213 25.3128 11.3519 25.1691C11.5825 25.0254 11.699 24.8545 11.699 24.6588V14.8152C11.699 14.5922 11.8799 14.4114 12.1031 14.4114H17.7158C18.4843 14.4114 19.1066 13.7897 19.1066 13.0218V12.9574C19.1066 12.1895 18.4843 11.5678 17.7158 11.5678L17.7133 11.5653Z" fill="#799DD2"/>
</g>
</g>
</svg>
