<svg width="138" height="138" viewBox="0 0 138 138" fill="none" xmlns="http://www.w3.org/2000/svg">
<path d="M82.7985 15.7103C83.3988 15.4889 84.0735 15.6697 84.4826 16.1616L87.9993 20.3891C88.3274 20.7835 88.8332 20.9845 89.3425 20.9227L94.8016 20.261C95.4368 20.184 96.0516 20.5155 96.3363 21.0885L98.7833 26.0131C99.0115 26.4726 99.4574 26.7848 99.9672 26.8421L105.432 27.4572C106.068 27.5288 106.589 27.9931 106.734 28.6163L107.98 33.9725C108.096 34.4722 108.458 34.8788 108.94 35.0522L114.116 36.9109C114.718 37.1271 115.119 37.6993 115.116 38.3391L115.092 43.8381C115.09 44.3511 115.348 44.8302 115.778 45.1103L120.386 48.1124C120.922 48.4617 121.179 49.1108 121.029 49.7328L119.738 55.0781C119.618 55.5768 119.759 56.1025 120.112 56.4742L123.903 60.4579C124.344 60.9214 124.445 61.6125 124.156 62.1831L121.667 67.0866C121.435 67.5441 121.45 68.0881 121.709 68.5313L124.479 73.2818C124.801 73.8346 124.74 74.5304 124.327 75.0188L120.774 79.2161C120.443 79.6077 120.333 80.1407 120.482 80.6316L122.081 85.8928C122.268 86.505 122.048 87.168 121.533 87.5479L117.108 90.8128C116.695 91.1174 116.465 91.6107 116.497 92.1227L116.84 97.611C116.88 98.2496 116.514 98.8441 115.925 99.095L110.867 101.251C110.395 101.453 110.057 101.88 109.97 102.385L109.038 107.805C108.93 108.435 108.436 108.929 107.805 109.038L102.386 109.969C101.88 110.056 101.453 110.394 101.252 110.866L99.0957 115.924C98.8448 116.513 98.2504 116.88 97.6118 116.84L92.1234 116.497C91.6114 116.465 91.1181 116.695 90.8135 117.107L87.5486 121.532C87.1687 122.047 86.5057 122.267 85.8936 122.081L80.6323 120.481C80.1415 120.332 79.6084 120.442 79.2169 120.773L75.0195 124.326C74.5311 124.739 73.8353 124.8 73.2825 124.478L68.532 121.708C68.0888 121.45 67.5448 121.434 67.0873 121.666L62.1838 124.155C61.6132 124.445 60.9221 124.343 60.4586 123.902L56.4749 120.112C56.1033 119.758 55.5775 119.617 55.0789 119.738L49.7335 121.029C49.1116 121.179 48.4624 120.921 48.1131 120.385L45.111 115.778C44.8309 115.348 44.3519 115.089 43.8388 115.092L38.3398 115.115C37.7 115.118 37.1279 114.717 36.9116 114.115L35.0529 108.94C34.8795 108.457 34.4729 108.095 33.9732 107.979L28.617 106.733C27.9938 106.589 27.5295 106.067 27.4579 105.431L26.8429 99.9665C26.7855 99.4567 26.4733 99.0108 26.0139 98.7825L21.0892 96.3356C20.5162 96.0509 20.1848 95.4361 20.2617 94.8009L20.9235 89.3418C20.9852 88.8325 20.7843 88.3267 20.3899 87.9986L16.1623 84.4819C15.6704 84.0727 15.4896 83.3981 15.711 82.7978L17.6139 77.6384C17.7914 77.1571 17.7125 76.6186 17.4044 76.2084L14.1018 71.8115C13.7175 71.2999 13.6972 70.6018 14.0511 70.0687L17.0924 65.4873C17.3762 65.0599 17.4236 64.5176 17.2184 64.0475L15.0188 59.0075C14.7629 58.4211 14.9041 57.737 15.3714 57.3L19.3873 53.5434C19.762 53.1929 19.9332 52.6763 19.8419 52.1714L18.8639 46.7601C18.7501 46.1304 19.0453 45.4974 19.6008 45.1799L24.3748 42.4507C24.8202 42.1961 25.1059 41.7329 25.1335 41.2206L25.4298 35.7295C25.4643 35.0906 25.8975 34.5427 26.5112 34.3618L31.786 32.8072C32.2781 32.6622 32.6629 32.2773 32.8079 31.7852L34.3626 26.5105C34.5435 25.8968 35.0914 25.4636 35.7303 25.4291L41.2213 25.1328C41.7336 25.1052 42.1968 24.8194 42.4514 24.3741L45.1806 19.6C45.4981 19.0446 46.1312 18.7494 46.7608 18.8632L52.1722 19.8412C52.677 19.9324 53.1937 19.7612 53.5441 19.3866L57.3007 15.3706C57.7378 14.9034 58.4218 14.7621 59.0082 15.0181L64.0482 17.2177C64.5184 17.4229 65.0606 17.3754 65.488 17.0917L70.0694 14.0503C70.6025 13.6965 71.3007 13.7168 71.8123 14.101L76.2091 17.4037C76.6193 17.7118 77.1578 17.7907 77.6392 17.6131L82.7985 15.7103Z" fill="#A8CC33"/>
<path d="M82.5287 17.2758C83.0296 17.091 83.5927 17.2419 83.9341 17.6524L87.3343 21.7399C87.7167 22.1996 88.3062 22.4338 88.8998 22.3618L94.178 21.722C94.7081 21.6578 95.2212 21.9344 95.4588 22.4126L97.8247 27.1741C98.0907 27.7095 98.6103 28.0734 99.2045 28.1403L104.488 28.7349C105.019 28.7947 105.454 29.1822 105.575 29.7022L106.779 34.881L107.023 34.8244L106.779 34.881C106.914 35.4634 107.336 35.9373 107.899 36.1394L112.903 37.9365C113.405 38.117 113.74 38.5944 113.737 39.1284L113.715 44.4452C113.712 45.0431 114.013 45.6015 114.514 45.9279L118.969 48.8306C119.416 49.1221 119.631 49.6638 119.506 50.1828L118.258 55.3511C118.117 55.9323 118.282 56.545 118.694 56.9782L122.359 60.8299C122.727 61.2167 122.811 61.7935 122.57 62.2696L120.163 67.0107C119.893 67.5439 119.911 68.178 120.212 68.6945L122.89 73.2877C123.159 73.7489 123.109 74.3296 122.764 74.7371L119.329 78.7955C118.942 79.2519 118.814 79.8731 118.988 80.4452L120.535 85.5321C120.69 86.043 120.507 86.5963 120.077 86.9133L115.799 90.0701C115.317 90.4251 115.049 91 115.087 91.5968L115.418 96.9033C115.452 97.4362 115.146 97.9323 114.655 98.1417L109.764 100.227C109.214 100.461 108.82 100.959 108.719 101.548L107.818 106.788C107.727 107.314 107.315 107.726 106.789 107.817L101.549 108.718C100.96 108.819 100.462 109.213 100.228 109.763L98.1427 114.654C97.9333 115.145 97.4372 115.451 96.9043 115.417L91.5978 115.086C91.001 115.048 90.4261 115.316 90.0711 115.798L86.9143 120.076C86.5973 120.506 86.044 120.689 85.5332 120.534L80.4462 118.987C79.8741 118.813 79.2529 118.941 78.7965 119.328L74.7382 122.763C74.3306 123.107 73.7499 123.158 73.2887 122.889L68.6955 120.211C68.179 119.91 67.5449 119.892 67.0117 120.162L62.2706 122.569C61.7945 122.81 61.2178 122.726 60.831 122.358L56.9792 118.693C56.5461 118.281 55.9333 118.116 55.3521 118.257L50.1838 119.505C49.6648 119.63 49.1231 119.415 48.8316 118.968L45.9289 114.513C45.6025 114.012 45.0442 113.711 44.4462 113.714L39.1294 113.736C38.5955 113.739 38.118 113.404 37.9375 112.902L36.1404 107.898C35.9383 107.335 35.4644 106.913 34.882 106.778L29.7033 105.574C29.1832 105.453 28.7957 105.018 28.736 104.487L28.1413 99.2035C28.0744 98.6093 27.7106 98.0897 27.1751 97.8236L22.4136 95.4577C21.9354 95.2201 21.6588 94.7071 21.723 94.177L22.3629 88.8988C22.4348 88.3052 22.2006 87.7157 21.7409 87.3333L17.6534 83.9331C17.2429 83.5916 17.092 83.0286 17.2768 82.5276L19.1166 77.5392C19.3235 76.9782 19.2316 76.3506 18.8725 75.8725L15.6793 71.6213C15.3586 71.1944 15.3416 70.6117 15.6369 70.1669L18.5776 65.7372C18.9083 65.2391 18.9636 64.6071 18.7244 64.0591L16.5976 59.1861C16.3841 58.6968 16.5019 58.1259 16.8919 57.7612L20.7748 54.129C21.2114 53.7206 21.411 53.1184 21.3046 52.5301L20.359 47.2979C20.264 46.7725 20.5104 46.2442 20.9739 45.9792L25.5898 43.3405C26.1089 43.0437 26.4419 42.5038 26.4741 41.9068L26.7606 36.5976C26.7894 36.0644 27.1509 35.6072 27.6631 35.4563L32.763 33.9531C33.3366 33.7841 33.7851 33.3356 33.9542 32.762L35.4573 27.662C35.6082 27.1499 36.0655 26.7883 36.5986 26.7596L41.9078 26.4731C42.5049 26.4409 43.0448 26.1079 43.3415 25.5888L45.9802 20.9729C46.2452 20.5094 46.7735 20.263 47.299 20.358L52.5311 21.3036C53.1195 21.41 53.7216 21.2104 54.1301 20.7738L57.7622 16.8908C58.1269 16.5009 58.6978 16.383 59.1872 16.5966L64.0602 18.7234C64.6082 18.9625 65.2401 18.9072 65.7382 18.5765L70.1679 15.6359C70.6128 15.3406 71.1954 15.3576 71.6223 15.6782L75.8735 18.8715C76.3516 19.2306 76.9793 19.3225 77.5402 19.1156L82.5287 17.2758Z" stroke="#86A329" stroke-width="0.5"/>
<circle cx="69.3317" cy="69.3322" r="47.3425" transform="rotate(15 69.3317 69.3322)" stroke="white" stroke-width="2"/>
<circle cx="69.3327" cy="69.3321" r="44.7352" transform="rotate(15 69.3327 69.3321)" stroke="white" stroke-width="0.5"/>
<path d="M62.0665 48.0841L64.5083 48.7384C64.6217 48.7688 64.7085 48.8362 64.7689 48.9407C64.8292 49.0453 64.8442 49.1542 64.8138 49.2675L62.1387 59.2513C62.1083 59.3647 62.0409 59.4515 61.9363 59.5118C61.8318 59.5722 61.7229 59.5872 61.6096 59.5568L58.8122 58.8072C58.6989 58.7769 58.6121 58.7094 58.5517 58.6049C58.4914 58.5004 58.4764 58.3915 58.5068 58.2782L59.6414 54.0435L58.1742 55.4393C57.9403 55.6528 57.7152 55.7305 57.4988 55.6725L56.417 55.3826C56.2006 55.3246 56.0445 55.1448 55.9487 54.843L55.3759 52.9006L54.2412 57.1352C54.2109 57.2485 54.1434 57.3354 54.0389 57.3957C53.9344 57.4561 53.8255 57.4711 53.7122 57.4407L50.9148 56.6911C50.8015 56.6608 50.7147 56.5933 50.6543 56.4888C50.594 56.3843 50.579 56.2754 50.6094 56.1621L53.2845 46.1782C53.3149 46.0649 53.3823 45.9781 53.4868 45.9177C53.5914 45.8574 53.7003 45.8424 53.8136 45.8728L56.2555 46.5271C56.544 46.6044 56.7282 46.8028 56.8082 47.1224L58.0553 51.432L61.2901 48.3233C61.5192 48.0866 61.778 48.0068 62.0665 48.0841ZM70.319 50.2954L73.6727 51.194C74.0436 51.2934 74.2299 51.5255 74.2315 51.8904L75.0359 62.674C75.0379 62.7077 75.0293 62.7606 75.0099 62.8327C74.9934 62.8945 74.9394 62.9518 74.8479 63.0046C74.7695 63.0499 74.684 63.0601 74.5913 63.0352L71.7321 62.2691C71.423 62.1863 71.2566 62.0037 71.2329 61.7212L71.1353 60.6018L67.8125 59.7115L67.1683 60.6321C67.0065 60.8649 66.7711 60.9398 66.462 60.857L63.6029 60.0909C63.5101 60.066 63.436 60.0131 63.3804 59.9319C63.338 59.8432 63.325 59.768 63.3416 59.7061C63.3609 59.634 63.3798 59.5839 63.3984 59.5557L69.4869 50.619C69.6707 50.3039 69.9481 50.196 70.319 50.2954ZM69.4082 56.909L71.1546 57.377L71.0439 54.2663L69.4082 56.909ZM79.7401 64.4149L76.5873 63.5701C76.474 63.5397 76.3872 63.4723 76.3268 63.3677C76.2665 63.2632 76.2515 63.1543 76.2819 63.041L78.957 53.0572C78.9874 52.9438 79.0548 52.857 79.1593 52.7967C79.2639 52.7363 79.3728 52.7213 79.4861 52.7517L82.6389 53.5965C82.7522 53.6269 82.8391 53.6943 82.8994 53.7988C82.9597 53.9033 82.9747 54.0122 82.9444 54.1256L80.2692 64.1094C80.2388 64.2227 80.1714 64.3096 80.0669 64.3699C79.9624 64.4302 79.8535 64.4452 79.7401 64.4149ZM83.8714 57.5709C84.153 56.52 84.8148 55.7808 85.857 55.3532C86.9094 54.9285 88.1414 54.9052 89.553 55.2835C90.9748 55.6644 92.0415 56.3202 92.7529 57.2507C93.4746 58.1839 93.7347 59.0266 93.5331 59.7788C93.5083 59.8715 93.4501 59.9443 93.3587 59.9971C93.2803 60.0423 93.1999 60.0539 93.1175 60.0318L90.0265 59.2036C89.7895 59.1401 89.5966 58.9946 89.4478 58.7669C89.299 58.5393 89.0597 58.3814 88.73 58.293C88.2355 58.1605 87.9495 58.2385 87.8722 58.527C87.8308 58.6815 87.9148 58.8421 88.1242 59.0086C88.3438 59.1779 88.7723 59.3921 89.4096 59.6512C90.8924 60.2583 91.8879 60.9116 92.3962 61.6109C92.9176 62.3028 93.0361 63.1793 92.7517 64.2406C92.4701 65.2915 91.7553 66.0221 90.6074 66.4323C89.4725 66.8349 88.1272 66.8278 86.5714 66.4109C85.0156 65.9941 83.8803 65.3475 83.1653 64.4713C82.4504 63.5951 82.2158 62.6985 82.4615 61.7815C82.4864 61.6888 82.538 61.6198 82.6164 61.5745C82.7078 61.5217 82.7999 61.5077 82.8927 61.5326L85.8291 62.3194C86.0454 62.3774 86.2548 62.5439 86.4572 62.819C86.6698 63.0968 87.008 63.2979 87.4716 63.4221C88.2444 63.6291 88.6694 63.5884 88.7467 63.2999C88.7964 63.1145 88.6946 62.9381 88.4412 62.7708C88.1906 62.5933 87.6928 62.3494 86.9477 62.0394C84.3833 60.9768 83.3579 59.4873 83.8714 57.5709ZM39.2046 61.6285L42.0791 62.3988C42.1719 62.4236 42.2395 62.4804 42.282 62.5691C42.3375 62.6502 42.357 62.7217 42.3405 62.7835C42.3239 62.8453 42.305 62.8955 42.2836 62.9339L36.7361 72.0156C36.5522 72.3307 36.2749 72.4386 35.904 72.3392L32.3803 71.3951C32.0093 71.2957 31.8231 71.0636 31.8214 70.6987L31.558 60.06C31.5587 60.016 31.5674 59.9631 31.5839 59.9013C31.6005 59.8395 31.648 59.786 31.7263 59.7407C31.8178 59.6879 31.9099 59.6739 32.0026 59.6988L34.8772 60.469C35.2481 60.5684 35.4344 60.8005 35.436 61.1654L35.3637 67.308L38.3724 61.9522C38.5563 61.637 38.8336 61.5291 39.2046 61.6285ZM45.267 71.618L50.0271 72.8935C50.1405 72.9238 50.2273 72.9913 50.2876 73.0958C50.348 73.2003 50.363 73.3092 50.3326 73.4226L49.7487 75.6017C49.7183 75.715 49.6509 75.8019 49.5464 75.8622C49.4419 75.9225 49.3329 75.9375 49.2196 75.9072L41.1676 73.7496C41.0543 73.7193 40.9675 73.6518 40.9071 73.5473C40.8468 73.4428 40.8318 73.3339 40.8622 73.2205L43.5373 63.2367C43.5677 63.1234 43.6351 63.0366 43.7397 62.9762C43.8442 62.9159 43.9531 62.9009 44.0664 62.9313L51.9947 65.0557C52.1081 65.086 52.1949 65.1535 52.2553 65.258C52.3156 65.3625 52.3306 65.4714 52.3002 65.5847L51.7163 67.7639C51.6859 67.8772 51.6185 67.964 51.514 68.0244C51.4095 68.0847 51.3006 68.0997 51.1872 68.0693L46.5508 66.827L46.2899 67.8007L50.5863 68.9519C50.6997 68.9823 50.7865 69.0497 50.8468 69.1542C50.9072 69.2587 50.9222 69.3676 50.8918 69.481L50.3535 71.4901C50.3231 71.6034 50.2556 71.6903 50.1511 71.7506C50.0466 71.811 49.9377 71.8259 49.8244 71.7956L45.5279 70.6444L45.267 71.618ZM60.917 67.4464L63.7143 68.1959C63.8277 68.2263 63.9145 68.2937 63.9748 68.3982C64.0352 68.5027 64.0502 68.6117 64.0198 68.725L61.3446 78.7088C61.3143 78.8221 61.2468 78.909 61.1423 78.9693C61.0378 79.0297 60.9289 79.0446 60.8155 79.0143L58.3737 78.36C58.1058 78.2882 57.9263 78.1131 57.8353 77.8347L56.2794 73.1939L55.24 77.0731C55.2096 77.1864 55.1422 77.2732 55.0377 77.3336C54.9332 77.3939 54.8242 77.4089 54.7109 77.3785L51.9136 76.629C51.8002 76.5986 51.7134 76.5312 51.6531 76.4267C51.5927 76.3222 51.5777 76.2132 51.6081 76.0999L54.2833 66.1161C54.3136 66.0028 54.3811 65.9159 54.4856 65.8556C54.5901 65.7952 54.699 65.7803 54.8123 65.8106L57.2542 66.4649C57.5427 66.5422 57.7222 66.7173 57.7926 66.9902L59.2574 71.971L60.3879 67.7518C60.4183 67.6385 60.4857 67.5517 60.5902 67.4913C60.6947 67.431 60.8037 67.416 60.917 67.4464ZM66.5544 68.9569L71.0054 70.1495C72.5096 70.5526 73.6453 71.26 74.4122 72.2716C75.1923 73.2757 75.4028 74.4475 75.0439 75.7869L74.4269 78.0896C74.0514 79.4909 73.2931 80.4251 72.152 80.8924C71.0108 81.3596 69.6675 81.3862 68.122 80.972L63.6556 79.7753C63.5423 79.7449 63.4554 79.6775 63.3951 79.573C63.3348 79.4684 63.3198 79.3595 63.3501 79.2462L66.0253 69.2624C66.0557 69.149 66.1231 69.0622 66.2276 69.0019C66.3321 68.9415 66.441 68.9265 66.5544 68.9569ZM69.1933 72.8941L67.9095 77.685L68.9141 77.9542C69.2644 78.0481 69.5702 78.0196 69.8315 77.8687C70.1058 77.7104 70.2982 77.4251 70.4087 77.013L71.0257 74.7102C71.2465 73.8859 70.9706 73.3703 70.1979 73.1632L69.1933 72.8941ZM78.5504 83.7663L75.3976 82.9215C75.2843 82.8912 75.1975 82.8237 75.1371 82.7192C75.0768 82.6147 75.0618 82.5058 75.0922 82.3924L77.7673 72.4086C77.7977 72.2953 77.8651 72.2085 77.9696 72.1481C78.0742 72.0878 78.1831 72.0728 78.2964 72.1032L81.4492 72.948C81.5625 72.9783 81.6494 73.0458 81.7097 73.1503C81.7701 73.2548 81.785 73.3637 81.7547 73.477L79.0795 83.4609C79.0491 83.5742 78.9817 83.661 78.8772 83.7214C78.7727 83.7817 78.6638 83.7967 78.5504 83.7663ZM84.2882 73.7087L88.7392 74.9013C90.2434 75.3044 91.379 76.0117 92.146 77.0234C92.926 78.0275 93.1366 79.1992 92.7777 80.5386L92.1607 82.8414C91.7852 84.2426 91.0269 85.1769 89.8858 85.6441C88.7446 86.1114 87.4013 86.1379 85.8558 85.7238L81.3894 84.527C81.2761 84.4967 81.1892 84.4292 81.1289 84.3247C81.0686 84.2202 81.0536 84.1113 81.0839 83.9979L83.7591 74.0141C83.7895 73.9008 83.8569 73.814 83.9614 73.7536C84.0659 73.6933 84.1748 73.6783 84.2882 73.7087ZM86.9271 77.6458L85.6433 82.4368L86.6479 82.706C86.9982 82.7998 87.304 82.7713 87.5653 82.6205C87.8396 82.4621 88.032 82.1768 88.1424 81.7647L88.7595 79.462C88.9803 78.6377 88.7044 78.122 87.9316 77.915L86.9271 77.6458ZM96.4452 78.0262C97.5974 77.5178 98.9514 77.472 100.507 77.8889C102.063 78.3057 103.206 79.0262 103.937 80.0501C104.68 81.0666 104.866 82.2702 104.493 83.6612L103.847 86.0721C103.469 87.4837 102.711 88.4347 101.575 88.9253C100.452 89.4084 99.1019 89.4387 97.5256 89.0163C95.9492 88.5939 94.7902 87.8914 94.0486 86.9086C93.3201 85.9183 93.1449 84.7174 93.5232 83.3059L94.1692 80.8949C94.5446 79.4937 95.3033 78.5375 96.4452 78.0262ZM97.5813 85.4699C97.7322 85.7312 97.9828 85.9088 98.3331 86.0027C98.6834 86.0965 98.9892 86.068 99.2505 85.9172C99.5117 85.7663 99.699 85.4797 99.8122 85.0573L100.508 82.4608C100.618 82.0487 100.598 81.712 100.447 81.4507C100.299 81.1792 100.05 80.9964 99.6996 80.9026C99.3493 80.8087 99.0422 80.8423 98.7781 81.0035C98.5168 81.1543 98.331 81.4358 98.2206 81.848L97.5248 84.4444C97.4117 84.8668 97.4305 85.2087 97.5813 85.4699Z" fill="white"/>
</svg>
