<svg width="245" height="52" viewBox="0 0 245 52" fill="none" xmlns="http://www.w3.org/2000/svg">
<g id="logo-microsoft" clip-path="url(#clip0_424_2731)">
<path id="Vector" d="M245 23.5251V19.2437H239.649V12.5878L239.469 12.6429L234.444 14.1708L234.345 14.2008V19.244H226.412V16.4345C226.412 15.1263 226.707 14.1252 227.287 13.4575C227.863 12.7979 228.687 12.4625 229.738 12.4625C230.494 12.4625 231.276 12.6394 232.064 12.9882L232.261 13.0758V8.56692L232.168 8.53301C231.434 8.27066 230.435 8.13855 229.196 8.13855C227.636 8.13855 226.218 8.47602 224.981 9.14484C223.744 9.81459 222.77 10.7707 222.088 11.9864C221.409 13.2006 221.064 14.603 221.064 16.1549V19.2437H217.338V23.5251H221.064V41.5617H226.412V23.5251H234.345V34.987C234.345 39.7076 236.586 42.0998 241.005 42.0998C241.731 42.0998 242.495 42.0153 243.276 41.8497C244.07 41.6797 244.611 41.5099 244.93 41.3285L245 41.2871V36.9662L244.783 37.1091C244.492 37.3013 244.131 37.4584 243.707 37.5752C243.282 37.6941 242.926 37.7537 242.651 37.7537C241.615 37.7537 240.849 37.4765 240.374 36.9294C239.894 36.3774 239.65 35.4121 239.65 34.0618V23.5251H245ZM205.394 37.7544C203.453 37.7544 201.923 37.1148 200.844 35.8548C199.759 34.5886 199.209 32.7832 199.209 30.4895C199.209 28.123 199.759 26.2708 200.844 24.9821C201.924 23.7019 203.44 23.0522 205.351 23.0522C207.205 23.0522 208.682 23.6727 209.739 24.8976C210.802 26.1288 211.341 27.9661 211.341 30.3602C211.341 32.7837 210.834 34.6453 209.834 35.8906C208.841 37.1265 207.347 37.7544 205.394 37.7544ZM205.632 18.7061C201.928 18.7061 198.987 19.7844 196.889 21.9112C194.793 24.0382 193.731 26.9817 193.731 30.6607C193.731 34.155 194.768 36.9657 196.814 39.0134C198.86 41.0617 201.645 42.0993 205.091 42.0993C208.681 42.0993 211.564 41.0059 213.66 38.8497C215.757 36.6958 216.819 33.7801 216.819 30.1871C216.819 26.6381 215.822 23.8065 213.856 21.7725C211.888 19.7376 209.121 18.7061 205.632 18.7061ZM185.107 18.7061C182.588 18.7061 180.504 19.3464 178.912 20.6089C177.31 21.879 176.498 23.5446 176.498 25.5603C176.498 26.608 176.673 27.5387 177.018 28.3281C177.366 29.1201 177.903 29.8174 178.617 30.4026C179.325 30.9831 180.419 31.5911 181.868 32.2098C183.086 32.7079 183.994 33.1292 184.571 33.4612C185.135 33.7867 185.536 34.1138 185.762 34.4324C185.982 34.7442 186.093 35.171 186.093 35.6975C186.093 37.197 184.963 37.9265 182.638 37.9265C181.775 37.9265 180.791 37.7475 179.714 37.3948C178.644 37.0473 177.634 36.5385 176.719 35.8862L176.497 35.7279V40.8446L176.579 40.8823C177.336 41.2294 178.29 41.5221 179.414 41.7524C180.537 41.983 181.557 42.1003 182.443 42.1003C185.176 42.1003 187.378 41.4569 188.984 40.1868C190.601 38.9081 191.42 37.2031 191.42 35.1177C191.42 33.6134 190.979 32.3233 190.11 31.2829C189.246 30.2509 187.748 29.3035 185.658 28.4661C183.993 27.802 182.926 27.2507 182.486 26.8275C182.062 26.4187 181.846 25.8405 181.846 25.1083C181.846 24.4593 182.112 23.9393 182.658 23.5183C183.208 23.0951 183.974 22.8798 184.934 22.8798C185.825 22.8798 186.737 23.0197 187.644 23.2938C188.55 23.5679 189.346 23.9351 190.01 24.3842L190.228 24.5325V19.6789L190.144 19.6431C189.532 19.382 188.723 19.1585 187.742 18.9771C186.765 18.797 185.878 18.7061 185.107 18.7061ZM162.555 37.7544C160.614 37.7544 159.083 37.1148 158.005 35.8548C156.919 34.5886 156.37 32.7837 156.37 30.4895C156.37 28.123 156.92 26.2708 158.006 24.9821C159.084 23.7019 160.6 23.0522 162.512 23.0522C164.366 23.0522 165.842 23.6727 166.9 24.8976C167.963 26.1288 168.502 27.9661 168.502 30.3602C168.502 32.7837 167.994 34.6453 166.994 35.8906C166.001 37.1265 164.508 37.7544 162.555 37.7544ZM162.793 18.7061C159.089 18.7061 156.147 19.7844 154.05 21.9112C151.954 24.0382 150.891 26.9817 150.891 30.6607C150.891 34.1564 151.929 36.9657 153.975 39.0134C156.022 41.0617 158.806 42.0993 162.251 42.0993C165.841 42.0993 168.725 41.0059 170.821 38.8497C172.917 36.6958 173.98 33.7801 173.98 30.1871C173.98 26.6381 172.983 23.8065 171.016 21.7725C169.048 19.7376 166.281 18.7061 162.793 18.7061ZM142.772 23.1087V19.2437H137.489V41.5612H142.772V30.1449C142.772 28.2037 143.215 26.6089 144.089 25.4044C144.952 24.2142 146.102 23.611 147.506 23.611C147.982 23.611 148.516 23.689 149.095 23.8432C149.667 23.9966 150.082 24.163 150.327 24.3383L150.549 24.4982V19.2056L150.463 19.1691C149.971 18.9614 149.275 18.8566 148.394 18.8566C147.067 18.8566 145.879 19.2805 144.861 20.1151C143.968 20.8486 143.322 21.8545 142.828 23.1087H142.772ZM128.028 18.7061C125.604 18.7061 123.442 19.2225 121.603 20.2406C119.76 21.261 118.335 22.7178 117.366 24.5702C116.4 26.4182 115.91 28.5768 115.91 30.984C115.91 33.0927 116.385 35.0278 117.325 36.7333C118.264 38.4416 119.594 39.778 121.278 40.7049C122.959 41.6307 124.903 42.1 127.054 42.1C129.565 42.1 131.709 41.6012 133.427 40.6176L133.497 40.578V35.7684L133.275 35.9295C132.496 36.493 131.626 36.9429 130.69 37.2669C129.756 37.5907 128.905 37.7544 128.158 37.7544C126.085 37.7544 124.421 37.1098 123.213 35.8391C122.002 34.5667 121.388 32.7799 121.388 30.5316C121.388 28.2692 122.029 26.4366 123.29 25.0843C124.548 23.7361 126.215 23.0522 128.245 23.0522C129.982 23.0522 131.674 23.6365 133.275 24.7904L133.497 24.9503V19.8826L133.425 19.8426C132.823 19.5075 132.001 19.2308 130.981 19.0209C129.965 18.8116 128.972 18.7061 128.028 18.7061ZM112.271 19.244H106.988V41.5612H112.271V19.244ZM109.684 9.73664C108.814 9.73664 108.056 10.0308 107.433 10.6136C106.807 11.1981 106.49 11.9341 106.49 12.8026C106.49 13.6575 106.803 14.38 107.423 14.9489C108.039 15.5162 108.8 15.8038 109.684 15.8038C110.568 15.8038 111.332 15.5162 111.955 14.9499C112.582 14.38 112.9 13.6577 112.9 12.8026C112.9 11.9645 112.591 11.2361 111.981 10.6372C111.372 10.0395 110.598 9.73664 109.684 9.73664ZM96.5018 17.5974V41.5612H101.894V10.4198H94.4312L84.9459 33.5507L75.7409 10.4198H67.9746V41.561H73.0415V17.595H73.2154L82.9356 41.5612H86.7594L96.3279 17.5974H96.5018Z" fill="#706D6E"/>
<path id="Vector_2" d="M24.8539 24.7096H0V0.0133057H24.8539V24.7096Z" fill="#F1511B"/>
<path id="Vector_3" d="M52.2949 24.7096H27.4414V0.0133057H52.2949V24.7096Z" fill="#80CC28"/>
<path id="Vector_4" d="M24.8532 51.9867H0V27.2906H24.8532V51.9867Z" fill="#00ADEF"/>
<path id="Vector_5" d="M52.2949 51.9867H27.4414V27.2906H52.2949V51.9867Z" fill="#FBBC09"/>
</g>
<defs>
<clipPath id="clip0_424_2731">
<rect width="245" height="52" fill="white"/>
</clipPath>
</defs>
</svg>
