<svg width="58" height="55" viewBox="0 0 58 55" fill="none" xmlns="http://www.w3.org/2000/svg">
<g id="Website">
<path id="Line 99 (Stroke)" fill-rule="evenodd" clip-rule="evenodd" d="M55.6668 23.3333L2.3335 23.3333L2.3335 19.6L55.6668 19.6V23.3333Z" fill="#A8CC33"/>
<path id="Vector 84 (Stroke)" fill-rule="evenodd" clip-rule="evenodd" d="M35.1333 12.6666C35.1333 11.6357 35.969 10.7999 37 10.7999L45 10.7999C46.0309 10.7999 46.8666 11.6357 46.8666 12.6666C46.8666 13.6975 46.0309 14.5333 45 14.5333L37 14.5333C35.969 14.5333 35.1333 13.6975 35.1333 12.6666Z" fill="#1F447A"/>
<path id="Rectangle 975 (Stroke)" fill-rule="evenodd" clip-rule="evenodd" d="M27.5844 0.133301H30.4158C34.7008 0.133292 38.028 0.133285 40.6976 0.345421C43.4051 0.560575 45.5956 1.00265 47.569 1.97584C51.0965 3.71539 53.9514 6.57028 55.6909 10.0977C56.6641 12.0712 57.1062 14.2616 57.3213 16.9692C57.5335 19.6388 57.5335 22.9659 57.5335 27.2509V27.4157C57.5335 31.7007 57.5335 35.0278 57.3213 37.6974C57.1062 40.405 56.6641 42.5954 55.6909 44.5689C53.9514 48.0963 51.0965 50.9512 47.569 52.6908C45.5956 53.6639 43.4051 54.106 40.6976 54.3212C38.028 54.5333 34.7008 54.5333 30.4159 54.5333H27.5844C23.2994 54.5333 19.9723 54.5333 17.3027 54.3212C14.5951 54.106 12.4047 53.6639 10.4312 52.6908C6.90378 50.9512 4.04889 48.0963 2.30934 44.5689C1.33615 42.5954 0.894071 40.405 0.678917 37.6974C0.466782 35.0278 0.466788 31.7007 0.466797 27.4157V27.2509C0.466788 22.9659 0.466782 19.6388 0.678917 16.9692C0.894071 14.2616 1.33615 12.0712 2.30934 10.0977C4.04889 6.57028 6.90378 3.71539 10.4312 1.97584C12.4047 1.00265 14.5951 0.560575 17.3027 0.345421C19.9723 0.133285 23.2994 0.133292 27.5844 0.133301ZM17.5984 4.06702C15.1148 4.26438 13.455 4.64732 12.0824 5.32417C9.29207 6.70023 7.03372 8.95858 5.65766 11.749C4.98082 13.1215 4.59788 14.7813 4.40052 17.2649C4.2015 19.7694 4.20013 22.9487 4.20013 27.3333C4.20013 31.7179 4.2015 34.8972 4.40052 37.4017C4.59788 39.8853 4.98082 41.5451 5.65766 42.9176C7.03372 45.708 9.29207 47.9664 12.0824 49.3424C13.455 50.0193 15.1148 50.4022 17.5984 50.5996C20.1029 50.7986 23.2822 50.8 27.6668 50.8H30.3335C34.7181 50.8 37.8974 50.7986 40.4018 50.5996C42.8854 50.4022 44.5453 50.0193 45.9178 49.3424C48.7082 47.9664 50.9665 45.708 52.3426 42.9176C53.0194 41.5451 53.4024 39.8853 53.5997 37.4017C53.7988 34.8972 53.8001 31.7179 53.8001 27.3333C53.8001 22.9487 53.7988 19.7694 53.5997 17.2649C53.4024 14.7813 53.0194 13.1215 52.3426 11.749C50.9665 8.95858 48.7082 6.70023 45.9178 5.32417C44.5453 4.64732 42.8854 4.26438 40.4018 4.06702C37.8974 3.86801 34.7181 3.86663 30.3335 3.86663H27.6668C23.2822 3.86663 20.1029 3.86801 17.5984 4.06702Z" fill="#1F447A"/>
<path id="Ellipse 45" d="M20.9999 12.6666C20.9999 13.6975 20.1642 14.5333 19.1333 14.5333C18.1023 14.5333 17.2666 13.6975 17.2666 12.6666C17.2666 11.6357 18.1023 10.7999 19.1333 10.7999C20.1642 10.7999 20.9999 11.6357 20.9999 12.6666Z" fill="#A8CC33"/>
<path id="Ellipse 44" d="M15.6669 12.6666C15.6669 13.6975 14.8312 14.5333 13.8003 14.5333C12.7693 14.5333 11.9336 13.6975 11.9336 12.6666C11.9336 11.6357 12.7693 10.7999 13.8003 10.7999C14.8312 10.7999 15.6669 11.6357 15.6669 12.6666Z" fill="#A8CC33"/>
</g>
</svg>
