<svg width="58" height="58" viewBox="0 0 58 58" fill="none" xmlns="http://www.w3.org/2000/svg">
<g id="Key">
<path id="Rectangle 121 (Stroke)" fill-rule="evenodd" clip-rule="evenodd" d="M28.9056 0.466675H29.0947C33.9993 0.466664 37.8074 0.466655 40.8481 0.742244C43.934 1.02193 46.4123 1.59719 48.6001 2.86036C51.3162 4.42848 53.5717 6.68393 55.1398 9.40001C56.403 11.5879 56.9782 14.0661 57.2579 17.152C57.5335 20.1928 57.5335 24.0009 57.5335 28.9056V29.0944C57.5335 33.9991 57.5335 37.8073 57.2579 40.848C56.9782 43.9339 56.403 46.4122 55.1398 48.6C53.5717 51.3161 51.3162 53.5715 48.6001 55.1397C46.4123 56.4028 43.934 56.9781 40.8481 57.2578C37.8074 57.5334 33.9992 57.5334 29.0945 57.5333H28.9058C24.0011 57.5334 20.1929 57.5334 17.1521 57.2578C14.0663 56.9781 11.588 56.4028 9.40013 55.1397C6.68405 53.5715 4.4286 51.3161 2.86048 48.6C1.59731 46.4122 1.02205 43.9339 0.742366 40.848C0.466777 37.8073 0.466786 33.9992 0.466797 29.0946V28.9055C0.466786 24.0008 0.466777 20.1927 0.742366 17.152C1.02205 14.0661 1.59731 11.5879 2.86048 9.40001C4.4286 6.68393 6.68405 4.42848 9.40013 2.86036C11.588 1.59719 14.0663 1.02193 17.1521 0.742244C20.1929 0.466655 24.001 0.466664 28.9056 0.466675ZM17.4891 4.46034C14.6622 4.71655 12.7917 5.21309 11.2668 6.09352C9.11826 7.33398 7.3341 9.11814 6.09364 11.2667C5.21321 12.7916 4.71667 14.6621 4.46046 17.489C4.20192 20.3416 4.20013 23.981 4.20013 29C4.20013 34.019 4.20192 37.6584 4.46046 40.511C4.71667 43.338 5.21321 45.2084 6.09364 46.7333C7.3341 48.8819 9.11826 50.666 11.2668 51.9065C12.7917 52.7869 14.6622 53.2835 17.4891 53.5397C20.3417 53.7982 23.9812 53.8 29.0001 53.8C34.0191 53.8 37.6585 53.7982 40.5111 53.5397C43.3381 53.2835 45.2085 52.7869 46.7335 51.9065C48.882 50.666 50.6662 48.8819 51.9066 46.7333C52.7871 45.2084 53.2836 43.338 53.5398 40.511C53.7983 37.6584 53.8001 34.019 53.8001 29C53.8001 23.981 53.7983 20.3416 53.5398 17.489C53.2836 14.6621 52.7871 12.7916 51.9066 11.2667C50.6662 9.11814 48.882 7.33398 46.7335 6.09352C45.2085 5.21309 43.3381 4.71655 40.5111 4.46034C37.6585 4.2018 34.0191 4.20001 29.0001 4.20001C23.9812 4.20001 20.3417 4.2018 17.4891 4.46034Z" fill="#1F447A"/>
<path id="Line 41 (Stroke)" fill-rule="evenodd" clip-rule="evenodd" d="M46.3337 32.2H27.667V28.4667H46.3337C47.3646 28.4667 48.2003 29.3024 48.2003 30.3333C48.2003 31.3643 47.3646 32.2 46.3337 32.2Z" fill="#A8CC33"/>
<path id="Ellipse 25 (Stroke)" fill-rule="evenodd" clip-rule="evenodd" d="M19.6668 35.9333C22.7596 35.9333 25.2668 33.4261 25.2668 30.3333C25.2668 27.2405 22.7596 24.7333 19.6668 24.7333C16.574 24.7333 14.0668 27.2405 14.0668 30.3333C14.0668 33.4261 16.574 35.9333 19.6668 35.9333ZM19.6668 39.6667C24.8215 39.6667 29.0002 35.488 29.0002 30.3333C29.0002 25.1787 24.8215 21 19.6668 21C14.5122 21 10.3335 25.1787 10.3335 30.3333C10.3335 35.488 14.5122 39.6667 19.6668 39.6667Z" fill="#1F447A"/>
<path id="Vector 20 (Stroke)" fill-rule="evenodd" clip-rule="evenodd" d="M37.0004 38.8667C35.9694 38.8667 35.1337 38.031 35.1337 37L35.1337 32.4667C35.1337 30.2576 36.9246 28.4667 39.1337 28.4667L41.5337 28.4667C43.7421 28.4667 45.5337 30.2562 45.5337 32.4661L45.5337 34.3334C45.5337 35.3643 44.698 36.2 43.667 36.2C42.6361 36.2 41.8004 35.3643 41.8004 34.3334L41.8004 32.4661C41.8004 32.3195 41.6817 32.2 41.5337 32.2L39.1337 32.2C38.9864 32.2 38.867 32.3194 38.867 32.4667L38.867 37C38.867 38.031 38.0313 38.8667 37.0004 38.8667Z" fill="#A8CC33"/>
</g>
</svg>
