<svg width="58" height="58" viewBox="0 0 58 58" fill="none" xmlns="http://www.w3.org/2000/svg">
<g id="Statistics-Monitor">
<path id="Rectangle 93 (Stroke)" fill-rule="evenodd" clip-rule="evenodd" d="M23.5829 0.466675H34.4174C38.08 0.466664 40.9433 0.466656 43.2428 0.654531C45.5816 0.845618 47.501 1.24033 49.2341 2.12338C52.0942 3.58065 54.4195 5.90596 55.8768 8.76602C56.7598 10.4991 57.1545 12.4186 57.3456 14.7574C57.5335 17.0569 57.5335 19.9202 57.5335 23.5829V23.7505C57.5335 27.4132 57.5335 30.2765 57.3456 32.576C57.1545 34.9148 56.7598 36.8342 55.8768 38.5673C54.4195 41.4274 52.0942 43.7527 49.2341 45.21C47.501 46.093 45.5816 46.4877 43.2428 46.6788C40.9433 46.8667 38.08 46.8667 34.4172 46.8667H23.583C19.9203 46.8667 17.057 46.8667 14.7575 46.6788C12.4187 46.4877 10.4992 46.093 8.76614 45.21C5.90608 43.7527 3.58077 41.4274 2.1235 38.5673C1.24045 36.8342 0.84574 34.9148 0.654653 32.576C0.466778 30.2765 0.466786 27.4132 0.466797 23.7506V23.5828C0.466786 19.9201 0.466778 17.0568 0.654653 14.7574C0.84574 12.4186 1.24045 10.4991 2.1235 8.76602C3.58077 5.90596 5.90608 3.58065 8.76614 2.12338C10.4992 1.24033 12.4187 0.845618 14.7575 0.654531C17.057 0.466656 19.9202 0.466664 23.5829 0.466675ZM15.0615 4.37546C12.9536 4.54769 11.5801 4.8796 10.461 5.4498C8.30345 6.54915 6.54927 8.30333 5.44992 10.4609C4.87973 11.58 4.54781 12.9534 4.37559 15.0614C4.20158 17.1911 4.20013 19.9022 4.20013 23.6667C4.20013 27.4312 4.20158 30.1423 4.37559 32.272C4.54781 34.3799 4.87973 35.7534 5.44992 36.8724C6.54927 39.03 8.30345 40.7842 10.461 41.8835C11.5801 42.4537 12.9536 42.7857 15.0615 42.9579C17.1912 43.1319 19.9023 43.1333 23.6668 43.1333H34.3335C38.0979 43.1333 40.809 43.1319 42.9388 42.9579C45.0467 42.7857 46.4202 42.4537 47.5392 41.8835C49.6968 40.7842 51.451 39.03 52.5503 36.8724C53.1205 35.7534 53.4525 34.3799 53.6247 32.272C53.7987 30.1423 53.8001 27.4312 53.8001 23.6667C53.8001 19.9022 53.7987 17.1911 53.6247 15.0614C53.4525 12.9534 53.1205 11.58 52.5503 10.4609C51.451 8.30333 49.6968 6.54915 47.5392 5.4498C46.4202 4.8796 45.0467 4.54769 42.9388 4.37546C40.8091 4.20146 38.0979 4.20001 34.3335 4.20001H23.6668C19.9023 4.20001 17.1912 4.20146 15.0615 4.37546Z" fill="#1F447A"/>
<path id="Vector 11 (Stroke)" fill-rule="evenodd" clip-rule="evenodd" d="M29.0003 43.1334C30.0312 43.1334 30.867 43.9691 30.867 45V50.3731L40.3224 53.9189C41.1674 54.2358 41.6647 55.1118 41.5037 55.9998C41.3427 56.8877 40.5694 57.5334 39.667 57.5334H18.3336C17.4312 57.5334 16.658 56.8877 16.4969 55.9998C16.3359 55.1118 16.8332 54.2358 17.6782 53.9189L27.1336 50.3731V45C27.1336 43.9691 27.9694 43.1334 29.0003 43.1334Z" fill="#1F447A"/>
<path id="Vector 10 (Stroke)" fill-rule="evenodd" clip-rule="evenodd" d="M23.6802 19.6801C24.3629 18.9974 25.4535 18.948 26.1951 19.566L32.8856 25.1414L38.3469 19.6801C39.0758 18.9511 40.2578 18.9511 40.9867 19.6801C41.7157 20.4091 41.7157 21.591 40.9867 22.32L34.3201 28.9866C33.6374 29.6693 32.5468 29.7188 31.8051 29.1007L25.1147 23.5254L19.6534 28.9866C18.9244 29.7156 17.7425 29.7156 17.0135 28.9866C16.2846 28.2577 16.2846 27.0758 17.0135 26.3468L23.6802 19.6801Z" fill="#A8CC33"/>
</g>
</svg>
