<svg width="58" height="40" viewBox="0 0 58 40" fill="none" xmlns="http://www.w3.org/2000/svg">
<g id="Mask">
<path id="Vector 49 (Stroke)" fill-rule="evenodd" clip-rule="evenodd" d="M28.2454 0.901028C28.745 0.816682 29.2552 0.816682 29.7548 0.901028L45.7548 3.60233C47.9364 3.97065 49.5335 5.85994 49.5335 8.0724V29.7364C49.5335 31.1148 48.8984 32.4976 47.6487 33.3303C45.023 35.0802 37.9183 39.2 29.0001 39.2C20.082 39.2 12.9772 35.0802 10.3515 33.3303C9.1019 32.4976 8.4668 31.1148 8.4668 29.7364V8.0724C8.4668 5.85993 10.0639 3.97065 12.2454 3.60233L28.2454 0.901028ZM29.1333 4.58226C29.0451 4.56738 28.9551 4.56738 28.867 4.58226L12.867 7.28356C12.482 7.34856 12.2001 7.68197 12.2001 8.0724V29.7364C12.2001 29.9922 12.3117 30.1503 12.4219 30.2237C14.8049 31.8118 21.1646 35.4667 29.0001 35.4667C36.8357 35.4667 43.1953 31.8118 45.5784 30.2237C45.6885 30.1503 45.8001 29.9922 45.8001 29.7364V8.0724C45.8001 7.68197 45.5183 7.34856 45.1333 7.28356L29.1333 4.58226Z" fill="#1F447A"/>
<path id="Vector 50 (Stroke)" fill-rule="evenodd" clip-rule="evenodd" d="M56.9869 21.3468C57.7159 22.0758 57.7159 23.2577 56.9869 23.9866L48.9869 31.9866C48.2579 32.7156 47.076 32.7156 46.347 31.9866C45.618 31.2577 45.618 30.0758 46.347 29.3468L54.347 21.3468C55.076 20.6178 56.2579 20.6178 56.9869 21.3468Z" fill="#1F447A"/>
<path id="Vector 52 (Stroke)" fill-rule="evenodd" clip-rule="evenodd" d="M1.0136 21.3468C0.284617 22.0758 0.284617 23.2577 1.0136 23.9866L9.0136 31.9866C9.74257 32.7156 10.9245 32.7156 11.6535 31.9866C12.3824 31.2577 12.3824 30.0758 11.6535 29.3468L3.65346 21.3468C2.92448 20.6178 1.74258 20.6178 1.0136 21.3468Z" fill="#1F447A"/>
<path id="Vector 51 (Stroke)" fill-rule="evenodd" clip-rule="evenodd" d="M56.9869 6.68016C57.7159 7.40914 57.7159 8.59104 56.9869 9.32002L48.9869 17.32C48.2579 18.049 47.076 18.049 46.347 17.32C45.618 16.591 45.618 15.4091 46.347 14.6802L54.347 6.68016C55.076 5.95118 56.2579 5.95118 56.9869 6.68016Z" fill="#1F447A"/>
<path id="Vector 53 (Stroke)" fill-rule="evenodd" clip-rule="evenodd" d="M1.0136 6.68016C0.284617 7.40914 0.284617 8.59104 1.0136 9.32002L9.0136 17.32C9.74257 18.049 10.9245 18.049 11.6535 17.32C12.3824 16.591 12.3824 15.4091 11.6535 14.6802L3.65346 6.68016C2.92448 5.95118 1.74258 5.95118 1.0136 6.68016Z" fill="#1F447A"/>
<path id="Vector 54 (Stroke)" fill-rule="evenodd" clip-rule="evenodd" d="M21.8003 29.3333C21.8003 28.3024 22.636 27.4667 23.667 27.4667H34.3336C35.3646 27.4667 36.2003 28.3024 36.2003 29.3333C36.2003 30.3643 35.3646 31.2 34.3336 31.2H23.667C22.636 31.2 21.8003 30.3643 21.8003 29.3333Z" fill="#A8CC33"/>
</g>
</svg>
