<svg width="58" height="58" viewBox="0 0 58 58" fill="none" xmlns="http://www.w3.org/2000/svg">
<g id="programming">
<path id="Rectangle 198 (Stroke)" fill-rule="evenodd" clip-rule="evenodd" d="M28.9056 0.466675H29.0947C33.9993 0.466664 37.8074 0.466655 40.8481 0.742244C43.934 1.02193 46.4123 1.59719 48.6001 2.86036C51.3162 4.42848 53.5717 6.68393 55.1398 9.40001C56.403 11.5879 56.9782 14.0661 57.2579 17.152C57.5335 20.1928 57.5335 24.0009 57.5335 28.9056V29.0944C57.5335 33.9991 57.5335 37.8073 57.2579 40.848C56.9782 43.9339 56.403 46.4122 55.1398 48.6C53.5717 51.3161 51.3162 53.5715 48.6001 55.1397C46.4123 56.4028 43.934 56.9781 40.8481 57.2578C37.8074 57.5334 33.9992 57.5334 29.0945 57.5333H28.9058C24.0011 57.5334 20.1929 57.5334 17.1521 57.2578C14.0663 56.9781 11.588 56.4028 9.40013 55.1397C6.68405 53.5715 4.4286 51.3161 2.86048 48.6C1.59731 46.4122 1.02205 43.9339 0.742366 40.848C0.466777 37.8073 0.466786 33.9992 0.466797 29.0946V28.9055C0.466786 24.0008 0.466777 20.1927 0.742366 17.152C1.02205 14.0661 1.59731 11.5879 2.86048 9.40001C4.4286 6.68393 6.68405 4.42848 9.40013 2.86036C11.588 1.59719 14.0663 1.02193 17.1521 0.742244C20.1929 0.466655 24.001 0.466664 28.9056 0.466675ZM17.4891 4.46034C14.6622 4.71655 12.7917 5.21309 11.2668 6.09352C9.11826 7.33398 7.3341 9.11814 6.09364 11.2667C5.21321 12.7916 4.71667 14.6621 4.46046 17.489C4.20192 20.3416 4.20013 23.981 4.20013 29C4.20013 34.019 4.20192 37.6584 4.46046 40.511C4.71667 43.338 5.21321 45.2084 6.09364 46.7333C7.3341 48.8819 9.11826 50.666 11.2668 51.9065C12.7917 52.7869 14.6622 53.2835 17.4891 53.5397C20.3417 53.7982 23.9812 53.8 29.0001 53.8C34.0191 53.8 37.6585 53.7982 40.5111 53.5397C43.3381 53.2835 45.2085 52.7869 46.7335 51.9065C48.882 50.666 50.6662 48.8819 51.9066 46.7333C52.7871 45.2084 53.2836 43.338 53.5398 40.511C53.7983 37.6584 53.8001 34.019 53.8001 29C53.8001 23.981 53.7983 20.3416 53.5398 17.489C53.2836 14.6621 52.7871 12.7916 51.9066 11.2667C50.6662 9.11814 48.882 7.33398 46.7335 6.09352C45.2085 5.21309 43.3381 4.71655 40.5111 4.46034C37.6585 4.2018 34.0191 4.20001 29.0001 4.20001C23.9812 4.20001 20.3417 4.2018 17.4891 4.46034Z" fill="#1F447A"/>
<path id="Vector 41 (Stroke)" fill-rule="evenodd" clip-rule="evenodd" d="M17.0135 22.3467C17.7425 21.6177 18.9244 21.6177 19.6534 22.3467L24.9867 27.6801C25.7157 28.409 25.7157 29.5909 24.9867 30.3199L19.6534 35.6533C18.9244 36.3822 17.7425 36.3822 17.0135 35.6533C16.2846 34.9243 16.2846 33.7424 17.0135 33.0134L21.0269 29L17.0135 24.9866C16.2846 24.2576 16.2846 23.0757 17.0135 22.3467Z" fill="#A8CC33"/>
<path id="Line 64 (Stroke)" fill-rule="evenodd" clip-rule="evenodd" d="M44.2002 34.3333C44.2002 35.3643 43.3645 36.2 42.3335 36.2H31.6669C30.6359 36.2 29.8002 35.3643 29.8002 34.3333C29.8002 33.3024 30.6359 32.4667 31.6669 32.4667H42.3335C43.3645 32.4667 44.2002 33.3024 44.2002 34.3333Z" fill="#A8CC33"/>
</g>
</svg>
