<svg width="58" height="51" viewBox="0 0 58 51" fill="none" xmlns="http://www.w3.org/2000/svg">
<g id="Cloud-Received">
<path id="Vector (Stroke)" fill-rule="evenodd" clip-rule="evenodd" d="M26.9257 29.7408C28.0712 28.5953 29.9285 28.5953 31.074 29.7408L35.8685 34.5353C36.4933 35.1601 36.4933 36.1732 35.8685 36.798C35.2436 37.4228 34.2306 37.4228 33.6057 36.798L30.5999 33.7921L30.5999 49C30.5999 49.8836 29.8835 50.6 28.9999 50.6C28.1162 50.6 27.3999 49.8836 27.3999 49L27.3999 33.7921L24.394 36.798C23.7691 37.4228 22.7561 37.4228 22.1312 36.798C21.5064 36.1732 21.5064 35.1601 22.1312 34.5353L26.9257 29.7408Z" fill="#A8CC33"/>
<path id="Vector 31 (Stroke)" fill-rule="evenodd" clip-rule="evenodd" d="M12.2002 15.6892C12.1996 15.6891 12.1996 15.6815 12.1996 15.6667C12.1996 16.2183 11.995 16.6489 11.8321 16.9131C11.6669 17.1813 11.4697 17.399 11.3091 17.5595C10.9946 17.8741 10.5888 18.1936 10.229 18.4735C10.1548 18.5312 10.0795 18.5895 10.0032 18.6486C9.28019 19.2089 8.46775 19.8384 7.65287 20.6533C5.90267 22.4035 4.1996 24.9541 4.19964 29C4.1997 34.8015 9.22944 37.6183 12.123 38.7423C12.8456 39.0229 13.6801 39.1333 14.6411 39.1333H18.333C19.3639 39.1333 20.1996 39.9691 20.1996 41C20.1996 42.0309 19.3639 42.8667 18.333 42.8667H14.6411C13.4217 42.8667 12.0811 42.7311 10.7713 42.2223C7.74698 41.0475 0.466391 37.3784 0.466309 29C0.466257 23.7125 2.76319 20.2632 5.01301 18.0134C6.00433 17.0221 6.99808 16.2532 7.71366 15.6996C7.7915 15.6394 7.86605 15.5817 7.93695 15.5265C8.2039 15.3189 8.39084 15.1689 8.52167 15.0554C8.56431 14.7879 8.6279 14.5067 8.69931 14.2355C8.84201 13.6937 9.05874 13.0339 9.36528 12.3008C9.97787 10.8357 10.9677 9.03365 12.4899 7.2774C15.5786 3.71398 20.7545 0.466675 28.9996 0.466675C37.2448 0.466675 42.4207 3.71398 45.5093 7.2774C47.0316 9.03365 48.0214 10.8357 48.634 12.3008C48.9406 13.0339 49.1573 13.6937 49.3 14.2355C49.3714 14.5067 49.435 14.7879 49.4776 15.0554C49.6084 15.1689 49.7954 15.3189 50.0623 15.5265C50.1332 15.5817 50.2078 15.6394 50.2856 15.6996C51.0012 16.2532 51.9949 17.0221 52.9862 18.0134C55.236 20.2632 57.533 23.7125 57.533 29C57.533 37.3784 50.2523 41.0476 47.228 42.2223C45.9182 42.7311 44.5776 42.8667 43.3582 42.8667H39.6663C38.6354 42.8667 37.7996 42.0309 37.7996 41C37.7996 39.9691 38.6354 39.1333 39.6663 39.1333H43.3582C44.3192 39.1333 45.1537 39.0229 45.8763 38.7423C48.7699 37.6183 53.7996 34.8015 53.7996 29C53.7996 24.9542 52.0966 22.4035 50.3464 20.6533C49.5315 19.8384 48.7191 19.2089 47.9961 18.6486C47.9198 18.5895 47.8445 18.5312 47.7703 18.4735C47.4104 18.1936 47.0047 17.8741 46.6901 17.5595C46.5296 17.399 46.3324 17.1813 46.1671 16.9131C46.0042 16.6489 45.7996 16.2183 45.7996 15.6667C45.7996 15.6815 45.7997 15.6891 45.7991 15.6892C45.7964 15.6894 45.7806 15.5314 45.6898 15.1863C45.5924 14.8167 45.4319 14.3203 45.1896 13.7409C44.7046 12.581 43.9107 11.133 42.6882 9.72262C40.2874 6.9527 36.13 4.20001 28.9996 4.20001C21.8693 4.20001 17.7119 6.9527 15.3111 9.72262C14.0886 11.133 13.2946 12.581 12.8096 13.7409C12.5674 14.3203 12.4069 14.8167 12.3095 15.1863C12.2187 15.5314 12.2029 15.6894 12.2002 15.6892Z" fill="#1F447A"/>
</g>
</svg>
