<svg width="263" height="56" viewBox="0 0 263 56" fill="none" xmlns="http://www.w3.org/2000/svg">
<g clip-path="url(#clip0_148_9093)">
<path d="M76.9056 21.8654C82.3205 21.8654 85.8163 24.6757 87.4613 29.4052H95.5494C93.5617 20.426 86.4332 14.8054 76.9056 14.8054C65.5274 14.8054 56.9595 23.6475 56.9595 35.2314C56.9595 46.8152 65.5274 55.3831 76.9056 55.3831C86.4332 55.3831 93.356 49.4884 95.5494 40.7834H87.4613C85.8163 45.2387 82.252 48.3232 76.9056 48.3232C69.4344 48.3232 64.7734 42.9768 64.7734 35.2999C64.842 27.5545 69.4344 21.8654 76.9056 21.8654Z" fill="white"/>
<path d="M110.286 19.1921H109.944L109.532 15.3537H102.747V55.5201H110.286V30.0905C110.286 24.7441 114.399 21.7967 119.814 21.7967C120.979 21.7967 121.253 21.8653 121.253 21.8653V14.5311C121.253 14.5311 120.774 14.394 119.814 14.394C117.483 14.394 113.234 15.3537 110.286 19.1921Z" fill="white"/>
<path d="M191.236 14.394C184.519 14.394 180.406 17.2729 178.624 19.1921H178.282L177.87 15.3537H171.084V55.5201H178.624V30.2276C178.624 24.607 183.696 21.6596 189.934 21.6596C195.28 21.6596 199.119 24.3328 199.119 29.8849V55.5201H206.659V29.4051C206.59 18.301 198.776 14.394 191.236 14.394Z" fill="white"/>
<path d="M223.863 15.3538H216.323V55.5202H223.863V15.3538Z" fill="white"/>
<path d="M143.461 14.8054C132.015 14.8054 123.31 23.5104 123.31 35.0943C123.31 46.6781 131.946 55.3831 143.461 55.3831C154.908 55.3831 163.613 46.6781 163.613 35.0943C163.613 23.5104 154.908 14.8054 143.461 14.8054ZM143.461 48.1175C135.99 48.1175 131.192 42.6341 131.192 35.0943C131.192 27.5545 135.99 21.9339 143.461 21.9339C150.933 21.9339 155.731 27.5545 155.731 35.0943C155.731 42.6341 150.933 48.1175 143.461 48.1175Z" fill="white"/>
<path d="M248.196 31.1188C240.724 29.4738 241.067 27.6231 241.067 25.9781C241.067 23.9903 243.26 21.5227 246.893 21.5227C249.909 21.5227 253.131 23.0307 253.131 28.1029H260.396C260.671 19.8777 255.256 14.874 246.893 14.874C239.491 14.874 233.527 20.0148 233.527 26.3208C233.527 34.2718 239.833 36.7394 246.688 38.2473C253.953 39.8238 254.57 42.0858 254.57 43.6623C254.57 46.6782 251.486 49.2828 247.167 49.2828C244.083 49.2828 239.353 47.3636 239.353 41.5374H232.088C231.608 50.7222 238.257 56.0001 247.167 56.0001C255.598 56.0001 262.247 50.5852 262.247 43.3881C262.178 35.1629 254.981 32.5582 248.196 31.1188Z" fill="white"/>
<path d="M25.0184 0L0 55.5202H8.01958L12.8862 44.3476H44.0049L48.8715 55.5202H56.8225L31.9412 0H25.0184ZM28.3084 9.459H28.6512L29.0624 10.4872L36.1224 26.6634H20.8372L27.8972 10.4872L28.3084 9.459ZM15.6965 38.0416L18.0269 32.8323H38.8641L41.1946 38.0416H15.6965Z" fill="white"/>
</g>
<defs>
<clipPath id="clip0_148_9093">
<rect width="262.247" height="56" fill="white"/>
</clipPath>
</defs>
</svg>
