<svg width="350" height="42" viewBox="0 0 350 42" fill="none" xmlns="http://www.w3.org/2000/svg">
<path d="M226.677 40.3829H217.106V1.6748L247.888 1.69993C247.888 1.69993 253.524 1.4916 257.109 5.00157C257.109 5.00157 260.768 8.02973 260.768 15.4312V40.3769H251.222V14.7864C251.222 14.7864 251.34 12.1762 250.442 11.2602C250.442 11.2602 249.649 10.2653 248.14 10.2653H226.653L226.674 40.3691L226.677 40.3829ZM267.421 40.3762V4.13603V1.70371H305.831V10.3058L276.933 10.3035V16.8801H297.009V25.1865H276.933V31.7853H306.01V40.3896H267.398L267.421 40.3762ZM200.427 40.3762V4.13603V1.70371H209.958V40.3896H200.427V40.3762ZM322.007 7.87121V6.5679V7.87121ZM319.55 40.3762V10.2946H310.554V1.69259H346.339V10.2946H329.088V40.3762H319.557H319.55ZM171.406 7.87121V6.5679V7.87121ZM168.949 40.3762V10.2946H159.953V1.69259H195.738V10.2946H178.487V40.3762H168.956H168.949ZM140.209 16.8534C142.538 16.8357 143.931 16.8557 144.492 16.5173C144.492 16.5173 145.471 15.981 145.482 14.8302L145.484 12.3001C145.484 11.1439 144.494 10.613 144.494 10.613C143.751 10.2128 142.492 10.288 139.502 10.2851H120.934V16.8528H140.635H140.209V16.8534ZM145.345 40.3762V27.1741C145.345 25.9873 144.344 25.49 144.344 25.49C143.892 25.212 142.54 25.162 140.55 25.162H141.012H120.934V40.374H111.404V4.1338V1.70148H141.154C146.291 1.71705 149.839 2.46586 152.282 4.81636C154.682 7.23979 155.001 10.4102 155.014 13.7097V16.4644C155.045 19.268 153.559 21.8248 151.786 23.3144L152.142 23.4896C152.866 23.8369 153.261 24.3289 153.261 24.3289C154.61 26.0353 154.594 27.5038 154.591 29.3092V40.3836H145.345L145.345 40.3762ZM1.2164 1.69037V4.12491V40.3651H10.7472V25.1665H39.6222V16.8557H10.7472V10.2835H44.3113V1.68147H1.21191L1.2164 1.69037Z" fill="#231F20"/>
<path d="M343.119 33.5351V35.3111H344.788C345.239 35.3111 345.677 35.1888 345.744 34.5245C345.84 33.6436 345.197 33.5351 344.788 33.5351H343.119ZM342.449 32.9515H344.773C345.581 32.9515 346.361 33.1016 346.428 34.2659C346.456 34.9329 346.251 35.1748 345.744 35.5555C346.279 35.8945 346.293 35.9752 346.375 36.8699C346.428 37.548 346.332 37.6565 346.621 38.1038H345.828L345.718 37.4535C345.609 36.8421 345.909 35.8945 344.829 35.8945H343.119V38.1041H342.448V32.9504L342.449 32.9515ZM344.199 31.5286C341.902 31.5286 340.028 33.3851 340.044 35.6773C340.044 37.954 341.903 39.8105 344.215 39.7993C346.514 39.7993 348.388 37.954 348.388 35.664C348.388 33.3851 346.514 31.5286 344.201 31.5286M344.215 40.3374C341.603 40.3374 339.494 38.2501 339.494 35.664C339.483 33.0871 341.603 30.9861 344.215 30.9861C346.815 30.9861 348.935 33.0871 348.935 35.664C348.935 38.2519 346.815 40.3285 344.215 40.3374Z" fill="#231F20"/>
<path d="M98.298 40.761C101.394 39.7187 103.804 36.1854 104.383 31.7432V30.4592H88.5093V40.7621H98.2958L98.298 40.761ZM104.385 11.5687V10.407C103.776 5.77139 101.188 2.11847 97.8875 1.26027H88.5115V11.5676H104.385V11.5687ZM48.5195 30.4603V31.7332C49.0943 36.1798 51.5035 39.7193 54.6086 40.7621H64.3458V30.4592H48.5195V30.4603ZM55.0147 1.26805C51.7189 2.1267 49.1231 5.7814 48.5195 10.4237V11.5772H64.3458V1.26983H55.0147V1.26805ZM104.396 15.8664H88.5227V26.1737H104.396V15.8664ZM68.6782 40.7676H84.2061V30.4647H68.6782V40.7676ZM84.2061 1.25916H68.6782V11.5665H84.2061V1.25916ZM48.533 26.1604H64.3593V15.8531H48.533V26.1604Z" fill="#EE2E24"/>
</svg>
