<svg width="44" height="44" viewBox="0 0 44 44" fill="none" xmlns="http://www.w3.org/2000/svg">
<path fill-rule="evenodd" clip-rule="evenodd" d="M17.9372 0.600006H26.063C28.81 0.599998 30.9575 0.599992 32.6821 0.740898C34.4362 0.884213 35.8758 1.18024 37.1756 1.84253C39.3206 2.93549 41.0646 4.67947 42.1576 6.82451C42.8199 8.12433 43.1159 9.56392 43.2592 11.318C43.4001 13.0426 43.4001 15.1901 43.4001 17.9372V18.0628C43.4001 20.8099 43.4001 22.9574 43.2592 24.682C43.1159 26.4361 42.8199 27.8757 42.1576 29.1755C41.0646 31.3205 39.3206 33.0645 37.1756 34.1575C35.8758 34.8198 34.4362 35.1158 32.6821 35.2591C30.9575 35.4 28.81 35.4 26.0629 35.4H17.9373C15.1902 35.4 13.0427 35.4 11.3181 35.2591C9.56401 35.1158 8.12442 34.8198 6.82461 34.1575C4.67956 33.0645 2.93558 31.3205 1.84262 29.1755C1.18034 27.8757 0.884305 26.4361 0.740989 24.682C0.600083 22.9574 0.60009 20.8099 0.600098 18.0629V17.9371C0.60009 15.1901 0.600083 13.0426 0.740989 11.318C0.884305 9.56392 1.18034 8.12433 1.84262 6.82451C2.93558 4.67947 4.67956 2.93549 6.82461 1.84253C8.12442 1.18024 9.56401 0.884213 11.3181 0.740898C13.0427 0.599992 15.1902 0.599998 17.9372 0.600006ZM11.5461 3.5316C9.96518 3.66077 8.93508 3.9097 8.09578 4.33735C6.47759 5.16186 5.16195 6.47749 4.33744 8.09569C3.9098 8.93499 3.66086 9.96509 3.53169 11.546C3.40119 13.1433 3.4001 15.1766 3.4001 18C3.4001 20.8234 3.40119 22.8567 3.53169 24.454C3.66086 26.0349 3.9098 27.065 4.33744 27.9043C5.16195 29.5225 6.47759 30.8382 8.09578 31.6627C8.93508 32.0903 9.96518 32.3392 11.5461 32.4684C13.1434 32.5989 15.1767 32.6 18.0001 32.6H26.0001C28.8235 32.6 30.8568 32.5989 32.4541 32.4684C34.035 32.3392 35.0651 32.0903 35.9044 31.6627C37.5226 30.8382 38.8382 29.5225 39.6628 27.9043C40.0904 27.065 40.3393 26.0349 40.4685 24.454C40.599 22.8567 40.6001 20.8234 40.6001 18C40.6001 15.1766 40.599 13.1433 40.4685 11.546C40.3393 9.96509 40.0904 8.93499 39.6628 8.09569C38.8382 6.47749 37.5226 5.16186 35.9044 4.33735C35.0651 3.9097 34.035 3.66077 32.4541 3.5316C30.8568 3.4011 28.8235 3.40001 26.0001 3.40001H18.0001C15.1767 3.40001 13.1434 3.4011 11.5461 3.5316Z" fill="#1F447A"/>
<path fill-rule="evenodd" clip-rule="evenodd" d="M22 32.6C22.7732 32.6 23.4 33.2268 23.4 34V38.0298L30.4916 40.6891C31.1253 40.9268 31.4983 41.5838 31.3775 42.2498C31.2568 42.9158 30.6768 43.4 30 43.4H14C13.3231 43.4 12.7432 42.9158 12.6225 42.2498C12.5017 41.5838 12.8747 40.9268 13.5084 40.6891L20.6 38.0298V34C20.6 33.2268 21.2268 32.6 22 32.6Z" fill="#1F447A"/>
<path fill-rule="evenodd" clip-rule="evenodd" d="M18.0101 15.0101C18.5222 14.4981 19.3401 14.461 19.8964 14.9245L24.9142 19.106L29.0102 15.0101C29.5569 14.4633 30.4433 14.4633 30.99 15.0101C31.5368 15.5568 31.5368 16.4432 30.99 16.99L25.99 21.99C25.478 22.502 24.6601 22.5391 24.1038 22.0755L19.086 17.894L14.99 21.99C14.4433 22.5367 13.5569 22.5367 13.0101 21.99C12.4634 21.4432 12.4634 20.5568 13.0101 20.0101L18.0101 15.0101Z" fill="#A8CC33"/>
</svg>
