<svg width="42" height="42" viewBox="0 0 42 42" fill="none" xmlns="http://www.w3.org/2000/svg">
<g id="Graph">
<path id="Ellipse 32 (Stroke)" fill-rule="evenodd" clip-rule="evenodd" d="M25.0005 7.51888C25.2627 7.53392 25.6111 7.60491 26.2788 7.74848C28.193 8.16003 30.0225 8.93039 31.6668 10.0291C34.2322 11.7432 36.2317 14.1796 37.4124 17.0301C38.5931 19.8807 38.9021 23.0173 38.3001 26.0434C37.6982 29.0695 36.2125 31.8492 34.0308 34.0309C31.8491 36.2126 29.0694 37.6983 26.0433 38.3002C23.0172 38.9022 19.8806 38.5932 17.03 37.4125C14.1795 36.2318 11.7431 34.2323 10.029 31.6669C8.93029 30.0226 8.15993 28.1931 7.74838 26.2789C7.60481 25.6112 7.53382 25.2628 7.51878 25.0006C7.50795 24.8117 7.53251 24.7636 7.56059 24.7123C7.56061 24.7123 7.56552 24.7038 7.57676 24.6874C7.58912 24.6694 7.60503 24.648 7.62333 24.6253C7.64163 24.6027 7.65926 24.5826 7.67425 24.5667C7.68998 24.5501 7.69731 24.5439 7.69464 24.5462C7.69525 24.5456 7.69593 24.545 7.69673 24.5443C7.71132 24.5309 7.76237 24.4839 8.02538 24.4481C8.35593 24.403 8.80895 24.4 9.5999 24.4H15.8773C17.3113 24.4 18.4998 24.4001 19.4569 24.2964C20.4574 24.188 21.3698 23.9529 22.1739 23.3687C22.6324 23.0356 23.0355 22.6325 23.3686 22.174C23.9529 21.3699 24.1879 20.4575 24.2963 19.457C24.4 18.4998 24.3999 17.3114 24.3999 15.8774L24.3999 9.6C24.3999 8.80905 24.4029 8.35603 24.448 8.02548C24.4838 7.76248 24.5308 7.71143 24.5442 7.69683C24.5449 7.69604 24.5455 7.69535 24.5461 7.69474C24.5438 7.69741 24.55 7.69008 24.5666 7.67435C24.5825 7.65936 24.6026 7.64173 24.6252 7.62343C24.6479 7.60513 24.6693 7.58923 24.6873 7.57686M25.0005 7.51888C24.8116 7.50805 24.7635 7.53261 24.7122 7.5607L25.0005 7.51888ZM26.6497 4.9636C25.6209 4.73799 24.4896 4.48991 23.3661 5.10548C23.0358 5.28649 22.6746 5.57827 22.4282 5.86319C21.9511 6.41483 21.7576 7.03112 21.6736 7.64722C21.5997 8.18962 21.5998 8.83692 21.5999 9.52235C21.5999 9.54818 21.5999 9.57406 21.5999 9.6L21.5999 15.8C21.5999 17.3311 21.598 18.3669 21.5126 19.1554C21.43 19.9176 21.283 20.2809 21.1033 20.5282C20.943 20.749 20.7489 20.9431 20.5281 21.1034C20.2808 21.2831 19.9176 21.4301 19.1553 21.5126C18.3668 21.5981 17.331 21.6 15.7999 21.6L9.52218 21.6C8.83677 21.5999 8.1895 21.5998 7.64711 21.6737C7.03102 21.7577 6.41472 21.9512 5.86308 22.4283C5.57816 22.6747 5.28639 23.0359 5.10538 23.3662C4.4898 24.4897 4.73789 25.621 4.96349 26.6498C4.97953 26.7229 4.99545 26.7955 5.01093 26.8675C5.49634 29.1252 6.40496 31.283 7.70086 33.2225C9.72267 36.2484 12.5964 38.6067 15.9585 39.9994C19.3207 41.392 23.0203 41.7564 26.5896 41.0464C30.1588 40.3365 33.4374 38.584 36.0107 36.0108C38.5839 33.4375 40.3364 30.1589 41.0463 26.5897C41.7563 23.0204 41.3919 19.3208 39.9993 15.9586C38.6066 12.5965 36.2483 9.72277 33.2224 7.70095C31.2829 6.40506 29.1251 5.49644 26.8674 5.01104C26.7954 4.99555 26.7228 4.97963 26.6497 4.9636Z" fill="#1F447A"/>
<path id="Ellipse 33 (Stroke)" fill-rule="evenodd" clip-rule="evenodd" d="M4.02876 16.5538C4.36084 16.5972 4.81498 16.6 5.59989 16.6L10.7999 16.6C12.331 16.6 13.3668 16.5981 14.1553 16.5127C14.9175 16.4301 15.2808 16.2831 15.5281 16.1034C15.7489 15.9431 15.943 15.749 16.1033 15.5282C16.283 15.2809 16.43 14.9177 16.5125 14.1554C16.598 13.3669 16.5999 12.3311 16.5999 10.8L16.5999 5.59999C16.5999 4.81508 16.5971 4.36094 16.5537 4.02887C16.5184 3.75873 16.4712 3.70743 16.4619 3.69731C16.4622 3.69763 16.4614 3.69679 16.4619 3.69731C16.462 3.69738 16.4605 3.69571 16.4597 3.69479C16.4587 3.69371 16.4572 3.69195 16.4549 3.68954L16.4381 3.67227C16.4236 3.65788 16.4057 3.64139 16.3856 3.62439C16.3655 3.60739 16.3462 3.59243 16.3297 3.58047L16.3098 3.56677C16.3048 3.56343 16.3023 3.56197 16.3024 3.56209L16.2998 3.56054C16.2656 3.54049 16.215 3.51077 16.0021 3.51567C15.72 3.52216 15.3434 3.58202 14.6495 3.69849C13.5642 3.88067 12.566 4.13556 11.8317 4.43971C10.1745 5.12613 8.66881 6.13223 7.40047 7.40057C6.13213 8.66891 5.12603 10.1746 4.43961 11.8318C4.13546 12.5661 3.88057 13.5643 3.69839 14.6497C3.58192 15.3435 3.52206 15.7201 3.51557 16.0022C3.51067 16.2151 3.54039 16.2657 3.56044 16.2999L3.56198 16.3026C3.56187 16.3024 3.56333 16.3049 3.56667 16.31L3.58036 16.3298C3.59233 16.3464 3.60728 16.3656 3.62428 16.3857C3.64128 16.4058 3.65778 16.4237 3.67216 16.4383L3.68943 16.455C3.6939 16.4592 3.69612 16.461 3.69595 16.4609C3.69628 16.4612 3.69544 16.4604 3.69595 16.4609C3.70608 16.4702 3.75863 16.5185 4.02876 16.5538ZM3.66595 19.3302C3.06277 19.2514 2.45281 19.0698 1.90321 18.6117C1.61714 18.3733 1.33184 18.0361 1.14405 17.7145C0.798866 17.1234 0.702671 16.5308 0.71631 15.9378C0.727996 15.4298 0.825256 14.8511 0.924522 14.2605C0.928688 14.2358 0.932857 14.211 0.937025 14.1861C1.13763 12.9911 1.43665 11.7649 1.85275 10.7603C2.67988 8.76342 3.89222 6.94902 5.42057 5.42067C6.94891 3.89233 8.76331 2.67998 10.7602 1.85284C11.7647 1.43675 12.991 1.13772 14.186 0.937125C14.2108 0.932957 14.2357 0.928788 14.2604 0.924622C14.851 0.825356 15.4297 0.728096 15.9377 0.716412C16.5307 0.702772 17.1233 0.798968 17.7144 1.14415C18.036 1.33194 18.3732 1.61725 18.6116 1.90331C19.0697 2.45291 19.2513 3.06287 19.3301 3.66605C19.4001 4.20136 19.4 4.84165 19.3999 5.52447C19.3999 5.54959 19.3999 5.57476 19.3999 5.59999L19.3999 10.8774C19.3999 12.3114 19.3999 13.4999 19.2963 14.457C19.1879 15.4575 18.9528 16.3699 18.3686 17.174C18.0355 17.6325 17.6324 18.0356 17.1739 18.3687C16.3698 18.9529 15.4574 19.188 14.4569 19.2964C13.4997 19.4001 12.3113 19.4 10.8773 19.4L5.59989 19.4C5.57466 19.4 5.54948 19.4 5.52436 19.4C4.84155 19.4001 4.20125 19.4002 3.66595 19.3302Z" fill="#A8CC33"/>
</g>
</svg>
