<svg width="44" height="38" viewBox="0 0 44 38" fill="none" xmlns="http://www.w3.org/2000/svg">
<g id="3 User">
<path id="Rectangle 23 (Stroke)" fill-rule="evenodd" clip-rule="evenodd" d="M29.6474 23.9443C29.4016 23.9262 28.9865 23.9547 27.8046 24.0489C25.8175 24.2071 23.6136 24.3333 21.6245 24.3333C19.8375 24.3333 17.9582 24.2315 16.2451 24.0961C15.0367 24.0006 14.6058 23.9707 14.3712 23.9866C12.6737 24.1015 11.4669 25.1393 11.0993 26.8006C11.0483 27.0313 11.0176 27.404 10.9407 28.4795C10.8584 29.6323 10.8327 30.0496 10.859 30.3725C11.0315 32.4961 12.6397 34.2233 14.7456 34.5467C15.0658 34.5959 15.4839 34.6 16.6397 34.6H27.3062C28.5143 34.6 28.9513 34.5955 29.2856 34.5418C31.3659 34.2077 32.9533 32.5029 33.1383 30.4041C33.1681 30.0668 33.1415 29.6306 33.0554 28.4255C32.9782 27.3454 32.9474 26.9746 32.8923 26.7333C32.523 25.1159 31.302 24.0664 29.6474 23.9443ZM27.7435 21.2448C28.7054 21.168 29.3612 21.1156 29.8535 21.1519C32.7343 21.3644 34.9791 23.2939 35.622 26.1101C35.7319 26.5912 35.7753 27.2008 35.8381 28.0829C35.8414 28.1299 35.8448 28.1776 35.8483 28.226C35.8516 28.2727 35.8549 28.3188 35.8582 28.3641C35.931 29.3808 35.9796 30.0598 35.9275 30.65C35.6298 34.0264 33.0762 36.7688 29.7297 37.3064C29.1447 37.4003 28.464 37.4002 27.4447 37.4C27.3992 37.4 27.3531 37.4 27.3062 37.4H16.6397C16.5949 37.4 16.5507 37.4 16.5072 37.4C15.532 37.4002 14.8809 37.4003 14.3207 37.3143C10.9329 36.794 8.34569 34.0155 8.06815 30.5992C8.02225 30.0343 8.06875 29.3848 8.1384 28.4121C8.14151 28.3687 8.14466 28.3247 8.14785 28.28C8.15135 28.231 8.15478 28.1829 8.15815 28.1355C8.22058 27.2587 8.26347 26.6564 8.36542 26.1957C9.00154 23.3209 11.2446 21.3918 14.1822 21.193C14.6532 21.1611 15.3157 21.2136 16.2976 21.2915C16.3527 21.2959 16.4087 21.3003 16.4658 21.3048C18.1348 21.4368 19.9357 21.5333 21.6245 21.5333C23.509 21.5333 25.6309 21.4131 27.5822 21.2577C27.6369 21.2533 27.6907 21.249 27.7435 21.2448Z" fill="#1F447A"/>
<path id="Rectangle 24 (Stroke)" fill-rule="evenodd" clip-rule="evenodd" d="M13.6001 9.00001C13.6001 4.36081 17.3609 0.600006 22.0001 0.600006C26.6393 0.600006 30.4001 4.36081 30.4001 9.00001V10C30.4001 14.0869 27.087 17.4 23.0001 17.4H21.0001C16.9132 17.4 13.6001 14.0869 13.6001 10V9.00001ZM22.0001 3.40001C18.9073 3.40001 16.4001 5.90721 16.4001 9.00001V10C16.4001 12.5405 18.4596 14.6 21.0001 14.6H23.0001C25.5406 14.6 27.6001 12.5405 27.6001 10V9.00001C27.6001 5.90721 25.0929 3.40001 22.0001 3.40001Z" fill="#1F447A"/>
<path id="Vector 21 (Stroke)" fill-rule="evenodd" clip-rule="evenodd" d="M37.7054 21.467C37.9998 20.752 38.818 20.4111 39.533 20.7055L39 22C39.533 20.7055 39.5337 20.7057 39.5344 20.706L39.5359 20.7066L39.539 20.7079L39.5461 20.7109L39.5638 20.7185L39.612 20.7398C39.6496 20.7569 39.6983 20.7798 39.7564 20.8089C39.8723 20.8671 40.0269 20.9505 40.2072 21.0625C40.5661 21.2853 41.0375 21.6277 41.5088 22.1175C42.4694 23.1158 43.4 24.7013 43.4 27C43.4 29.2987 42.4694 30.8843 41.5088 31.8825C41.0375 32.3723 40.5661 32.7147 40.2072 32.9376C40.0269 33.0495 39.8723 33.133 39.7564 33.1911C39.6983 33.2202 39.6496 33.2431 39.612 33.2602L39.5638 33.2816L39.5461 33.2891L39.539 33.2921L39.5359 33.2934L39.5344 33.294C39.5337 33.2943 39.533 33.2946 39 32L39.533 33.2946C38.818 33.589 37.9998 33.248 37.7054 32.533C37.4128 31.8224 37.7479 31.0097 38.454 30.7108C38.4521 30.7117 38.4518 30.7118 38.4534 30.7111L38.4554 30.7102L38.4582 30.7091L38.462 30.7075L38.4641 30.7066M38.4649 30.7063C38.4647 30.7064 38.4644 30.7065 38.4641 30.7066L38.4644 30.7065L38.4649 30.7063ZM38.4649 30.7063C38.4652 30.7062 38.4654 30.7061 38.4656 30.706C38.4656 30.706 38.4656 30.706 38.4656 30.706L38.4649 30.7063ZM38.454 30.7108C38.4544 30.7107 38.4549 30.7105 38.4554 30.7102C38.4616 30.7074 38.4774 30.7001 38.5014 30.6881C38.5495 30.6639 38.6293 30.6215 38.7302 30.5588C38.9338 30.4324 39.2125 30.2307 39.4912 29.9411C40.0306 29.3805 40.6 28.4661 40.6 27C40.6 25.534 40.0306 24.6195 39.4912 24.059C39.2125 23.7693 38.9338 23.5676 38.7302 23.4412C38.6293 23.3785 38.5495 23.3361 38.5014 23.3119C38.4774 23.2999 38.4616 23.2926 38.4554 23.2898M37.7054 21.467C37.4128 22.1776 37.7479 22.9903 38.454 23.2892L37.7054 21.467ZM38.454 23.2892C38.4531 23.2888 38.4526 23.2885 38.4524 23.2884C38.4523 23.2884 38.4526 23.2885 38.4534 23.2889L38.4582 23.2909L38.462 23.2925L38.4644 23.2935L38.4656 23.294" fill="#A8CC33"/>
<path id="Vector 22 (Stroke)" fill-rule="evenodd" clip-rule="evenodd" d="M6.32817 21.5573C6.08366 20.8238 5.29081 20.4273 4.55729 20.6718L5.00001 22C4.55729 20.6718 4.5565 20.6721 4.5557 20.6724L4.55403 20.6729L4.55049 20.6741L4.54253 20.6769L4.52323 20.6836C4.50889 20.6887 4.4916 20.695 4.47156 20.7026C4.43151 20.7177 4.38032 20.738 4.31962 20.764C4.19842 20.8159 4.03792 20.8913 3.85136 20.9949C3.47971 21.2014 2.99417 21.5259 2.51006 22.0101C1.51519 23.0049 0.600011 24.6044 0.600011 27C0.600011 29.3956 1.51519 30.9951 2.51006 31.99C2.99417 32.4741 3.47971 32.7986 3.85136 33.0051C4.03792 33.1087 4.19842 33.1841 4.31962 33.236C4.38032 33.262 4.43151 33.2823 4.47156 33.2975C4.4916 33.305 4.50889 33.3113 4.52323 33.3164L4.54253 33.3232L4.55049 33.3259L4.55403 33.3271L4.5557 33.3276C4.5565 33.3279 4.55729 33.3282 5.00001 32L4.55729 33.3282C5.29081 33.5727 6.08366 33.1762 6.32817 32.4427C6.57074 31.715 6.18247 30.9289 5.46003 30.6777C5.45513 30.6759 5.4423 30.6709 5.42259 30.6624C5.37973 30.6441 5.30586 30.61 5.21116 30.5574C5.02031 30.4514 4.75585 30.2759 4.48996 30.0101C3.98484 29.5049 3.40001 28.6044 3.40001 27C3.40001 25.3956 3.98484 24.4951 4.48996 23.99C4.75585 23.7241 5.02031 23.5486 5.21116 23.4426C5.30586 23.39 5.37973 23.356 5.42259 23.3376C5.4423 23.3291 5.45512 23.3241 5.46003 23.3223C6.18247 23.0711 6.57074 22.285 6.32817 21.5573Z" fill="#A8CC33"/>
<path id="Vector 23 (Stroke)" fill-rule="evenodd" clip-rule="evenodd" d="M32.6293 2.71586C32.7862 1.95876 33.5272 1.47222 34.2843 1.62915L34.0001 3.00001C34.2843 1.62915 34.285 1.62929 34.2857 1.62944L34.2871 1.62975L34.2904 1.63043L34.298 1.63206L34.3177 1.6364L34.3744 1.64963C34.4195 1.66056 34.4793 1.67586 34.5517 1.69625C34.6961 1.73693 34.8924 1.79839 35.1237 1.8865C35.5823 2.06125 36.1996 2.34908 36.8246 2.80443C38.1097 3.74081 39.4001 5.38014 39.4001 8.00001C39.4001 10.6199 38.1097 12.2592 36.8246 13.1956C36.1996 13.6509 35.5823 13.9388 35.1237 14.1135C34.8924 14.2016 34.6961 14.2631 34.5517 14.3038C34.4793 14.3242 34.4195 14.3395 34.3744 14.3504L34.3177 14.3636L34.298 14.368L34.2904 14.3696L34.2871 14.3703L34.2857 14.3706C34.285 14.3707 34.2843 14.3709 34.0001 13L34.2843 14.3709C33.5272 14.5278 32.7862 14.0413 32.6293 13.2842C32.473 12.5303 32.9547 11.7925 33.7062 11.6312L33.7157 11.629C33.7292 11.6257 33.7553 11.6191 33.7923 11.6087C33.8667 11.5878 33.9828 11.5518 34.1266 11.4971C34.418 11.386 34.8006 11.2059 35.1757 10.9326C35.8906 10.4117 36.6001 9.55104 36.6001 8.00001C36.6001 6.44899 35.8906 5.58831 35.1757 5.06742C34.8006 4.79414 34.418 4.614 34.1266 4.50296C33.9828 4.44817 33.8667 4.41227 33.7923 4.39132C33.7553 4.38089 33.7292 4.37431 33.7157 4.37105L33.7062 4.36882C32.9547 4.20757 32.473 3.46971 32.6293 2.71586Z" fill="#A8CC33"/>
<path id="Vector 24 (Stroke)" fill-rule="evenodd" clip-rule="evenodd" d="M11.381 2.76925C11.2536 2.00663 10.532 1.49171 9.76941 1.61916L10.0002 3.00001C9.76941 1.61916 9.76868 1.61928 9.76794 1.61941L9.76637 1.61967L9.76296 1.62025L9.75499 1.62164L9.73457 1.62532L9.67645 1.63662C9.63029 1.646 9.56939 1.65926 9.49584 1.67724C9.34908 1.71312 9.1499 1.76828 8.91551 1.84975C8.45068 2.01132 7.8246 2.28427 7.19078 2.73337C5.8768 3.6644 4.60017 5.31518 4.60017 8C4.60017 10.6848 5.8768 12.3356 7.19077 13.2666C7.8246 13.7157 8.45068 13.9887 8.91551 14.1503C9.1499 14.2317 9.34908 14.2869 9.49583 14.3228C9.56938 14.3408 9.63028 14.354 9.67645 14.3634L9.73457 14.3747L9.75498 14.3784L9.76295 14.3798L9.76637 14.3803L9.76794 14.3806C9.76868 14.3807 9.7694 14.3809 10.0002 13L9.7694 14.3809C10.532 14.5083 11.2536 13.9934 11.381 13.2308C11.5079 12.4717 10.9983 11.7533 10.2415 11.621C10.2415 11.621 10.2415 11.621 10.2415 11.621C10.2401 11.6207 10.2376 11.6202 10.2341 11.6195C10.2216 11.617 10.1966 11.6116 10.1608 11.6029C10.0888 11.5853 9.97545 11.5544 9.83483 11.5055C9.54966 11.4064 9.17574 11.2415 8.80957 10.982C8.12355 10.4959 7.40017 9.6467 7.40017 8C7.40017 6.35331 8.12355 5.50408 8.80957 5.018C9.17574 4.75854 9.54966 4.59365 9.83483 4.49453C9.97544 4.44565 10.0888 4.41475 10.1608 4.39715C10.1966 4.38839 10.2216 4.38306 10.234 4.38053M10.2415 4.37906C10.2415 4.37906 10.2415 4.37906 10.2415 4.37905C10.2426 4.37885 10.243 4.37877 10.2428 4.3788L10.2396 4.37939L10.2359 4.38002L10.2336 4.38041" fill="#A8CC33"/>
</g>
</svg>
